<?xml version="1.0" standalone="no"?>
<!DOCTYPE svg PUBLIC "-//W3C//DTD SVG 1.1//EN" "http://www.w3.org/Graphics/SVG/1.1/DTD/svg11.dtd" >
<svg xmlns="http://www.w3.org/2000/svg" xmlns:xlink="http://www.w3.org/1999/xlink" version="1.1">
<metadata></metadata>
<defs>
<font id="sudsy_outlineregular" horiz-adv-x="1275" >
<font-face units-per-em="2048" ascent="1536" descent="-512" />
<missing-glyph horiz-adv-x="512" />
<glyph horiz-adv-x="0" />
<glyph horiz-adv-x="682" />
<glyph unicode=" "  horiz-adv-x="512" />
<glyph unicode="&#x09;" horiz-adv-x="512" />
<glyph unicode="&#xa0;" horiz-adv-x="512" />
<glyph unicode="!" horiz-adv-x="641" d="M-41 1010q0 151 25 254.5t75.5 161.5t115.5 82t155 24q73 0 126.5 -14t97.5 -49t71.5 -93t42 -147t14.5 -211q0 -373 -162 -518q56 -49 86.5 -118.5t30.5 -143.5q0 -64 -21.5 -123t-62.5 -106.5t-107.5 -76t-148.5 -28.5q-81 0 -146 28.5t-105 76t-61.5 106.5t-21.5 123 q0 79 32 151.5t93 120.5q-129 135 -129 500zM57 1010q0 -139 18.5 -236t54.5 -151t81 -77.5t106 -23.5q121 0 194 124t73 372q0 123 -15.5 205t-49 128t-78.5 64.5t-111 18.5t-114 -19.5t-85 -66.5t-55.5 -131t-18.5 -207zM61 238q0 -97 62 -166.5t174 -69.5 q115 0 178.5 69.5t63.5 166.5q0 98 -65 170.5t-177 72.5q-111 0 -173.5 -72.5t-62.5 -170.5z" />
<glyph unicode="&#x22;" horiz-adv-x="1112" d="M-41 1194q0 177 85 272t243 95q179 0 264 -101q77 113 262 113q171 0 255.5 -92.5t84.5 -300.5q0 -113 -30 -208t-79 -156t-109 -94.5t-122 -33.5q-73 0 -141 49t-113 137q-50 -89 -122.5 -137.5t-149.5 -48.5q-62 0 -120.5 35.5t-105 99.5t-74.5 160.5t-28 210.5z M57 1194q0 -181 69.5 -294.5t160.5 -113.5q95 0 170 106.5t75 281.5q0 152 -61 220t-184 68q-110 0 -170 -69.5t-60 -198.5zM588 1202q0 -185 67.5 -300.5t157.5 -115.5q93 0 167.5 108.5t74.5 285.5q0 156 -60 225.5t-182 69.5q-112 0 -168.5 -66.5t-56.5 -206.5z" />
<glyph unicode="#" horiz-adv-x="1402" d="M-61 373q0 110 71 168.5t191 68.5l18 162q-104 15 -153.5 65.5t-49.5 151.5q0 113 70 176.5t186 79.5q12 58 32 106t51.5 88t79.5 62.5t108 22.5q112 0 169 -41.5t72 -126.5q37 87 101.5 122t167.5 35q120 0 171.5 -60t51.5 -173q0 -35 -2 -55q101 -14 146.5 -69.5 t45.5 -178.5q0 -96 -74 -153t-194 -70q-3 -27 -5.5 -57t-6 -51.5t-12.5 -65.5q118 -16 162 -69.5t44 -152.5q0 -47 -16 -84.5t-42.5 -62t-66 -42t-82 -27t-94.5 -13.5q-33 -107 -97 -169t-148 -62q-167 0 -224 120q-31 -68 -92.5 -94t-169.5 -26q-213 0 -217 229 q-100 18 -146 75t-46 171zM37 373q0 -85 47.5 -119.5t153.5 -34.5q-8 -43 -8.5 -79.5t9 -70.5t37 -53.5t72.5 -19.5q103 0 148 43.5t55 163.5q39 -6 147 4q-24 -92 10 -151.5t126 -59.5q61 0 106.5 62t60.5 165q84 1 141.5 11t98.5 41t41 83q0 45 -17 72t-67.5 43t-140.5 16 q12 58 21 117.5t19.5 142.5t12.5 101q109 -5 183.5 28t74.5 99q0 92 -49 124t-162 32q15 67 19 114t-4.5 87.5t-38 60.5t-80.5 20q-99 0 -148 -56.5t-69 -211.5q-53 4 -156 4q14 91 11.5 152t-38 91.5t-110.5 30.5q-47 0 -81.5 -21t-54.5 -60.5t-30.5 -85.5t-14.5 -105 q-110 0 -178.5 -40t-68.5 -124q0 -69 52 -97.5t163 -31.5q-4 -41 -19.5 -163t-21.5 -183q-69 3 -124 -9t-91.5 -46t-36.5 -86zM571 682q0 57 35.5 100t98.5 43t99 -41.5t36 -97.5q0 -57 -36.5 -99t-101.5 -42q-62 0 -96.5 40t-34.5 97zM670 682q0 -39 32 -39q19 0 29 13 t10 30t-9 29t-27 12q-35 0 -35 -45z" />
<glyph unicode="$" horiz-adv-x="927" d="M-41 360q0 98 47 166t115 92q-148 123 -148 340q0 151 81 268.5t231 172.5q7 64 25 105t49 60.5t64 26t85 6.5q91 0 144 -44.5t71 -145.5q120 -37 187 -118t67 -195q0 -82 -42.5 -159.5t-115.5 -103.5q164 -153 164 -389q0 -143 -81.5 -245t-215.5 -152 q-48 -192 -213 -192q-76 0 -130.5 41.5t-78.5 128.5q-145 34 -225 134.5t-80 202.5zM57 360q0 -39 16.5 -79t49.5 -78t92 -63t135 -29q16 -160 123 -160q49 0 82 41.5t43 126.5q127 33 207 116.5t80 206.5q0 83 -21 150.5t-54.5 110.5t-73.5 77t-80.5 56.5t-74 41.5 t-54.5 40t-21 45q0 34 53 34q28 0 54 -18.5t61 -37.5t84 -19q56 0 88.5 54t32.5 118q0 91 -66.5 152.5t-181.5 82.5q-4 96 -33.5 133t-89.5 37q-61 0 -95 -39.5t-38 -138.5q-146 -34 -224.5 -132t-78.5 -231q0 -72 20.5 -130t53.5 -94.5t72.5 -64t79 -45t72.5 -32 t53.5 -29.5t20.5 -33q0 -53 -63 -53q-70 0 -123.5 25.5t-85.5 25.5q-43 0 -79 -46.5t-36 -121.5z" />
<glyph unicode="%" horiz-adv-x="1257" d="M-41 1139q0 57 14.5 112t45 105t74.5 88t107 60t138 22q133 0 227 -78t125 -193q226 271 334 271q80 0 127 -53t47 -138q0 -186 -317 -682q28 -4 45 -4q109 0 196 -53.5t131.5 -136.5t44.5 -176q0 -71 -23 -137t-66.5 -119t-114.5 -85t-160 -32q-159 0 -254.5 78.5 t-120.5 201.5q-220 -281 -348 -284q-79 -3 -128.5 50.5t-49.5 141.5q0 87 79.5 262.5t235.5 421.5q-95 -1 -171 28.5t-122.5 80.5t-71 114.5t-24.5 133.5zM57 1139q0 -107 73.5 -182.5t209.5 -75.5q127 0 196.5 81t69.5 193q0 108 -74 190t-194 82q-69 0 -124 -25 t-88.5 -66.5t-51 -92t-17.5 -104.5zM131 98q0 -43 21 -68.5t55 -25.5q68 0 194 145t351 486q348 529 348 700q0 40 -20.5 66t-55.5 26q-135 0 -559 -647q-334 -506 -334 -682zM651 266q0 -107 73.5 -182.5t209.5 -75.5q127 0 196.5 81.5t69.5 193.5q0 107 -76.5 187.5 t-197.5 80.5q-69 0 -123 -24.5t-86.5 -65.5t-49 -91t-16.5 -104z" />
<glyph unicode="&#x26;" horiz-adv-x="1546" d="M-41 461q0 348 268 487q-24 71 -24 148q0 110 39.5 196.5t107.5 141t156.5 82.5t189.5 28q128 0 229.5 -38t162 -100t91.5 -134.5t31 -149.5q0 -128 -49 -235q32 4 53 4q77 0 136 -25t91.5 -66t48 -85.5t15.5 -89.5q0 -92 -45 -181q55 -45 91 -111.5t36 -129.5 q0 -116 -92.5 -202.5t-202.5 -86.5q-133 0 -266 86q-189 -117 -422 -117q-293 0 -469 151.5t-176 426.5zM57 461q0 -228 149 -353.5t398 -125.5q131 0 231.5 35t192.5 102q130 -107 264 -107q74 0 135.5 57.5t61.5 133.5q0 67 -49 125t-125 80q92 103 92 217q0 64 -47.5 116 t-145.5 52q-28 0 -51.5 -6.5t-41.5 -23t-30.5 -30.5t-26 -42.5t-19.5 -44t-19 -50.5q-49 74 -88 164q74 55 124 149t50 213q0 59 -25 115t-74 103.5t-131 76.5t-186 29q-110 0 -197.5 -37.5t-142.5 -118t-55 -194.5q0 -115 61 -197q-145 -44 -225 -154t-80 -284zM541 485 q0 41 24 69t74 28q47 0 69.5 -26.5t22.5 -66.5q0 -37 -25.5 -63.5t-68.5 -26.5q-47 0 -71.5 25.5t-24.5 60.5zM625 1010q0 31 24 53t68 22q34 0 54 -24t20 -55q0 -29 -20.5 -49.5t-57.5 -20.5q-41 0 -64.5 22t-23.5 52zM629 492q0 -9 8 -9t8 9q0 8 -8 8t-8 -8zM698 1008 q0 -11 11 -11q12 0 12 11q0 12 -10 12q-13 0 -13 -12z" />
<glyph unicode="'" horiz-adv-x="587" d="M-41 1194q0 177 84.5 272t243.5 95q170 0 256 -92.5t86 -294.5q0 -111 -30.5 -205t-80 -154t-109.5 -93.5t-122 -33.5q-131 0 -229.5 140.5t-98.5 365.5zM57 1194q0 -182 69 -295t161 -113q93 0 168 107t75 281q0 152 -60.5 220t-182.5 68q-112 0 -171 -69t-59 -199z" />
<glyph unicode="(" horiz-adv-x="681" d="M-49 735q0 172 47.5 329t125 267t177 175t201.5 65q63 0 111.5 -22.5t74.5 -59t38.5 -76.5t12.5 -82q0 -60 -21.5 -112.5t-52.5 -96.5t-61.5 -94t-52 -128t-21.5 -175q0 -112 16 -191.5t41.5 -126.5t52 -86.5t52.5 -98.5t39 -136q0 -104 -66.5 -164.5t-156.5 -60.5 q-161 0 -288 110t-198 309.5t-71 454.5zM49 735q0 -226 58.5 -403.5t163 -275t237.5 -97.5q51 0 88 34.5t37 92.5q0 40 -15 78t-37 68t-48.5 75.5t-48.5 96.5t-37 135t-15 186q0 112 21.5 199t52 138.5t61.5 93t52.5 84.5t21.5 91q0 55 -34 98.5t-105 43.5q-84 0 -166 -57.5 t-145 -154t-102.5 -235.5t-39.5 -291z" />
<glyph unicode=")" horiz-adv-x="681" d="M-49 1331q0 42 12.5 82t38.5 76.5t74.5 59t111.5 22.5q102 0 201.5 -65t177 -175t125 -267t47.5 -329q0 -255 -71 -454.5t-198 -309.5t-288 -110q-90 0 -156.5 60.5t-66.5 164.5q0 62 20.5 111t50 90t59.5 91t50.5 138.5t20.5 208.5q0 98 -21.5 175t-52.5 126t-61.5 92.5 t-52 96.5t-21.5 116zM49 1331q0 -48 21.5 -91t52.5 -84.5t61.5 -93t52 -138.5t21.5 -199q0 -116 -15 -205.5t-37 -139.5t-48.5 -92t-48.5 -67t-37 -59.5t-15 -75.5q0 -58 37 -92.5t88 -34.5q133 0 237.5 97.5t163 275t58.5 403.5q0 152 -39.5 291t-102.5 235.5t-145 154 t-166 57.5q-71 0 -105 -43.5t-34 -98.5z" />
<glyph unicode="*" horiz-adv-x="933" d="M-41 1128q0 107 61 162.5t156 55.5q33 0 86 -11q17 211 221 211q97 0 151 -65.5t60 -171.5q46 8 68 8q37 0 73 -12t68.5 -36.5t52 -68.5t19.5 -100q0 -71 -47 -125.5t-125 -85.5q39 -67 39 -131q0 -68 -59.5 -138.5t-149.5 -70.5q-49 0 -101 30t-94 78q-78 -88 -172 -88 q-75 0 -144 61.5t-69 145.5q0 72 51 156q-145 64 -145 196zM57 1128q0 -60 59 -92.5t167 -52.5q-59 -46 -95 -102t-36 -105q0 -44 36.5 -76t77.5 -32q48 0 90 45t90 129q31 -85 82.5 -140t104.5 -55q48 0 79 37.5t31 73.5q0 73 -114 194q104 5 176 45.5t72 102.5 q0 59 -35 89t-80 30q-61 0 -180 -56q16 62 16 117q0 74 -29.5 121t-85.5 47q-125 0 -125 -166q0 -19 9 -102q-98 67 -191 67q-53 0 -86 -30t-33 -89z" />
<glyph unicode="+" horiz-adv-x="1146" d="M-41 780q0 76 25.5 132t70 86t94 43.5t107.5 13.5l16 1q-1 1 -8 2l-4 1q0 65 15 122t48.5 109t96 82.5t147.5 30.5t146 -27t93 -73.5t46 -98.5t14 -114v-3q61 -1 114.5 -16.5t102 -48.5t77 -93.5t28.5 -142.5q0 -85 -25.5 -146.5t-70.5 -95t-96 -48.5t-111 -15h-23 q-1 -47 -10.5 -89.5t-31 -83t-53 -69.5t-81.5 -47t-113 -18t-113 21t-82 54t-53.5 78.5t-31 91t-10.5 93.5h-35q-58 0 -106 12.5t-91 41t-67.5 83t-24.5 131.5zM57 780q0 -48 16 -83t44.5 -53t60.5 -26t70 -8q72 0 151 27q-18 -41 -18 -109q0 -46 10 -88.5t30.5 -81.5 t60 -62.5t91.5 -23.5q53 0 91.5 19.5t59.5 53t30.5 70.5t9.5 79q0 64 -16 114q61 -28 137 -28q87 0 146 48t59 158q0 56 -20 97t-54.5 63.5t-72 32.5t-79.5 10q-66 0 -114 -20q18 56 18 121q0 91 -46.5 153t-154.5 62q-58 0 -100.5 -21.5t-65 -58.5t-33 -78.5t-10.5 -87.5 q0 -67 21 -121q-59 18 -123 18q-84 0 -141.5 -41t-57.5 -135zM260 1055v4q-12 0 0 -4z" />
<glyph unicode="," horiz-adv-x="634" d="M-41 248q0 148 93.5 244t260.5 96q363 0 363 -422q0 -94 -38.5 -185t-96.5 -155t-127.5 -103.5t-130.5 -39.5q-54 0 -97 19t-68 49.5t-37.5 65.5t-12.5 70q0 58 22 97q-131 79 -131 264zM57 248q0 -100 57 -154.5t144 -54.5q30 0 76 12q-7 -26 -35 -44.5t-57 -28 t-52.5 -32.5t-23.5 -59q0 -41 30 -73.5t87 -32.5q62 0 130 51.5t116.5 143t48.5 190.5q0 323 -265 323q-122 0 -189 -67.5t-67 -173.5z" />
<glyph unicode="-" horiz-adv-x="886" d="M-41 621q0 167 113 239t350 72q100 0 183 -14.5t157 -47t116 -94.5t42 -149q0 -78 -36.5 -137t-101 -94.5t-148 -53.5t-183.5 -18q-258 0 -375 72t-117 225zM57 621q0 -102 94.5 -150.5t299.5 -48.5q164 0 267 51.5t103 153.5q0 59 -33.5 101t-93 64.5t-126 32 t-146.5 9.5q-188 0 -276.5 -49.5t-88.5 -163.5z" />
<glyph unicode="." horiz-adv-x="589" d="M-41 240q0 88 35 163t111.5 125t181.5 50q107 0 187 -51.5t118.5 -129t38.5 -166.5q0 -65 -22 -124t-63 -107t-108 -76t-151 -28q-104 0 -180.5 51t-112 127.5t-35.5 165.5zM57 240q0 -100 61 -173t169 -73q118 0 181.5 69.5t63.5 167.5q0 99 -65.5 173.5t-179.5 74.5 q-109 0 -169.5 -70.5t-60.5 -168.5z" />
<glyph unicode="/" horiz-adv-x="847" d="M-66 -61q0 96 56.5 268.5t191.5 515.5q78 195 125.5 310.5t95 218t77 151t65 84.5t65 45.5t70.5 9.5q102 0 155.5 -59.5t53.5 -175.5q0 -102 -51 -279.5t-158 -468.5q-165 -449 -288 -641t-257 -192q-97 0 -149 58t-52 155zM33 -61q0 -53 26 -84t76 -31q96 0 198 176.5 t255 593.5q104 284 153.5 452.5t49.5 260.5q0 137 -111 137q-25 0 -44 -9t-45 -41.5t-50.5 -79t-66 -139t-86 -202t-114.5 -287.5q-131 -331 -186 -497.5t-55 -249.5z" />
<glyph unicode="0" horiz-adv-x="1265" d="M-49 707q0 180 35.5 321.5t97 235t149.5 154.5t188.5 87.5t219.5 26.5q145 0 267 -52.5t213.5 -154t142.5 -262t51 -365.5q0 -164 -39 -299.5t-104.5 -226.5t-153.5 -153.5t-184.5 -90.5t-200.5 -28q-106 0 -201 24t-184.5 83t-154 149t-103.5 231t-39 320zM49 707 q0 -157 33.5 -281t88.5 -203t132 -131t158 -73t172 -21q88 0 171 24.5t158.5 79.5t131.5 135t89.5 198.5t33.5 262.5q0 181 -43.5 322.5t-121.5 231t-182.5 136t-228.5 46.5q-102 0 -188 -23.5t-162 -77.5t-128.5 -136t-83 -207t-30.5 -283zM502 825q0 57 35.5 99.5 t97.5 42.5q61 0 94 -40t33 -96q0 -57 -35 -99t-96 -42t-95 40t-34 95zM600 825q0 -30 31 -30q15 0 24 10.5t9 25.5q0 13 -9 22t-22 9q-33 0 -33 -37z" />
<glyph unicode="1" horiz-adv-x="778" d="M-41 1171q0 167 121.5 265t310.5 98q82 0 147 -22.5t109 -59t76.5 -96t50.5 -120t28.5 -145t13.5 -157.5t3 -170q0 -103 -3 -182.5t-12.5 -173t-26.5 -162.5t-46.5 -137t-70 -111t-100 -69.5t-134.5 -26.5q-172 0 -244.5 103.5t-72.5 303.5q0 147 67 559 q-96 29 -156.5 103.5t-60.5 199.5zM57 1171q0 -58 21 -102t56 -68.5t74.5 -36.5t80.5 -12q-7 -48 -28 -175.5t-29 -183t-16.5 -139.5t-8.5 -145q0 -151 50 -230t169 -79q56 0 100.5 23.5t75 61.5t53 98.5t35 122t20 144t9.5 153t2 161.5q0 84 -2.5 148t-10.5 137.5 t-22 126.5t-39 105t-59 84t-84 51.5t-113 19.5q-146 0 -240 -71.5t-94 -193.5z" />
<glyph unicode="2" horiz-adv-x="1114" d="M-41 215q0 72 24 144.5t57.5 128.5t85.5 116t92.5 98t94.5 84q16 14 53 42.5t55 45t13 21.5t-30 -9.5t-67.5 -33t-82.5 -18.5q-117 0 -197 85.5t-80 227.5q0 71 37.5 139t108 124.5t186 91t256.5 34.5q116 0 210 -29.5t153.5 -77.5t100 -112.5t57 -130.5t16.5 -135 q0 -124 -49.5 -248.5t-137.5 -233.5q240 -57 240 -340q0 -122 -61.5 -195t-201.5 -108t-378 -35q-141 0 -244 18t-162 46.5t-93.5 73t-45 87t-10.5 99.5zM57 215q0 -40 8.5 -69.5t37 -60.5t77 -50.5t133 -32t201.5 -12.5q298 0 420.5 55t122.5 184q0 304 -379 248 q144 108 235 262.5t91 311.5q0 55 -13.5 107.5t-46.5 104t-81.5 89.5t-125.5 62t-172 24q-118 0 -214 -26t-154.5 -68.5t-89.5 -93t-31 -103.5q0 -97 51.5 -156t126.5 -59q54 0 104 33.5t107 33.5q50 0 68 -20t18 -53q0 -34 -27 -72.5t-71 -77t-96.5 -81.5t-105 -94.5 t-96.5 -107.5t-71 -128.5t-27 -149.5z" />
<glyph unicode="3" horiz-adv-x="1144" d="M-41 291q0 148 91 250t224 102q-32 56 -32 148q0 54 12 94q-93 15 -156 84.5t-63 189.5q0 111 74.5 196.5t201.5 131t283 45.5q246 0 375 -131.5t129 -358.5q0 -144 -76 -251q164 -141 164 -381q0 -148 -87 -265t-232 -180t-318 -63q-134 0 -247.5 33.5t-187 88.5 t-114.5 124.5t-41 142.5zM57 291q0 -114 135.5 -202.5t356.5 -88.5q146 0 268.5 51t196 145.5t73.5 213.5q0 136 -60 227.5t-163 140.5q135 85 135 264q0 182 -103.5 287t-301.5 105q-129 0 -233.5 -33.5t-166 -96.5t-61.5 -145q0 -86 49 -132t115 -46q42 0 78 11.5t57 25.5 t47.5 25.5t52.5 11.5q80 0 80 -56q0 -26 -20 -40t-50.5 -17t-65.5 -10.5t-65.5 -18t-50.5 -41.5t-20 -81q0 -57 23.5 -92t58.5 -46.5t76.5 -19.5t76.5 -13t58.5 -26t23.5 -59q0 -45 -25.5 -68t-66.5 -23q-33 0 -67 16t-59.5 34.5t-70.5 34.5t-98 16q-89 0 -151 -74t-62 -180 z" />
<glyph unicode="4" horiz-adv-x="1290" d="M-29 506q0 221 39.5 415t105.5 326.5t152 208.5t178 76q187 0 230 -150q71 91 203 91q104 -1 170.5 -90t90 -239.5t7.5 -348.5q105 -46 154 -130t49 -173q0 -134 -57 -206.5t-187 -90.5q-4 -91 -25 -150t-63.5 -90t-92.5 -42t-126 -11q-144 0 -211.5 60t-75.5 192 q-134 0 -230 16t-156 44t-95 73.5t-47.5 96.5t-12.5 122zM70 506q0 -55 12 -94t46.5 -73t94.5 -53t156.5 -28t232.5 -4q-9 -136 33.5 -195t153.5 -59q59 0 95.5 9.5t66 39t40.5 87.5t7 151q129 0 186 50.5t57 154.5q0 74 -50.5 141.5t-158.5 91.5q10 191 6.5 316t-28 199 t-58.5 103.5t-85 30.5q-54 1 -93 -26.5t-72 -98t-54 -201t-31 -325.5l-133 10q46 129 71 281.5t25 263.5q0 80 -35.5 118t-108.5 38t-141 -68.5t-120 -188.5t-83.5 -295.5t-31.5 -375.5z" />
<glyph unicode="5" horiz-adv-x="1056" d="M-41 301q0 90 34 162t95 112q-32 34 -51 82t-27 121t-10 131t-2 164q0 100 8.5 170t32 122.5t56.5 83.5t90 50.5t124.5 26t167.5 6.5q307 0 423 -53.5t116 -212.5q0 -102 -52 -170t-139 -101q273 -121 273 -532q0 -123 -31 -219.5t-85 -160t-131 -105t-164 -59 t-189 -17.5q-98 0 -194 29t-173 80t-124.5 127t-47.5 163zM57 301q0 -86 66 -156.5t166.5 -107.5t208.5 -37q86 0 158.5 14.5t137 49t109 87t70.5 132t26 180.5q0 120 -28 210t-73 143.5t-113.5 86t-138 44t-157.5 11.5q12 50 15 125q55 -18 151 -18q68 0 125.5 19.5 t97.5 66.5t40 115q0 100 -94.5 134t-346.5 34q-79 0 -133 -5t-99 -20.5t-71.5 -40t-45 -66t-25.5 -96t-7 -133.5q0 -93 1.5 -140t8 -114.5t22 -99t42 -65t69.5 -44t103 -6.5q48 5 94.5 3.5t84 -9t60.5 -33t23 -67.5q0 -72 -102 -72q-36 0 -80 23.5t-92.5 47t-96.5 23.5 q-79 0 -127.5 -61.5t-48.5 -157.5z" />
<glyph unicode="6" horiz-adv-x="1165" d="M-41 627q0 227 59.5 404.5t165.5 289t246.5 168.5t308.5 57q82 0 147 -26t104.5 -69t60 -95t20.5 -109q0 -75 -34.5 -140t-96.5 -103q119 -77 192.5 -212.5t73.5 -304.5q0 -591 -624 -591q-139 0 -252.5 45t-196.5 133.5t-128.5 229t-45.5 323.5zM57 627 q0 -312 142 -472.5t383 -160.5q526 0 526 493q0 89 -25.5 170t-68 141t-100 103.5t-121 63t-131.5 14t-130 -38.5q39 60 98 88t158 31q84 3 134.5 58t50.5 130q0 81 -61 141t-173 60q-147 0 -270 -51t-215.5 -150.5t-144.5 -258t-52 -361.5zM506 539q0 36 21 63t57 27 q44 0 69 -26.5t25 -61.5q0 -36 -23.5 -63t-64.5 -27q-40 0 -62 26.5t-22 61.5zM580 541q0 -13 12 -13t12 13q0 12 -12 12t-12 -12z" />
<glyph unicode="7" horiz-adv-x="1034" d="M-61 1229q0 164 125.5 234.5t431.5 70.5q124 0 220 -12.5t158 -37t103 -53.5t62 -69t28.5 -76t7.5 -82q0 -169 -39 -340t-102 -310.5t-142.5 -262t-161.5 -206t-158.5 -131.5t-133.5 -48q-129 0 -209 82.5t-80 244.5q0 274 322 695q-93 -1 -168.5 14.5t-136 49t-94 94 t-33.5 143.5zM37 1229q0 -62 33 -105.5t87 -64.5t128 -28.5t150.5 -2t160.5 20.5q-449 -520 -449 -816q0 -113 53.5 -171t137.5 -58q49 0 115.5 44.5t137.5 121.5t140.5 190.5t124 242.5t88 287t33.5 314q0 39 -8.5 69t-38.5 62t-80.5 53t-140.5 34.5t-213 13.5 q-170 0 -270.5 -22t-144.5 -66.5t-44 -118.5z" />
<glyph unicode="8" horiz-adv-x="1148" d="M-41 440q0 261 160 387q-84 110 -84 236q0 216 135.5 344.5t415.5 128.5q115 0 205 -24t150.5 -66.5t100 -103t57 -130.5t17.5 -153q0 -154 -82 -248q72 -67 114 -159t42 -197q0 -96 -20 -177.5t-65.5 -151t-114 -117.5t-170 -75.5t-230.5 -27.5q-319 0 -475 136.5 t-156 397.5zM57 440q0 -213 132 -324.5t401 -111.5q134 0 232.5 33.5t156.5 95.5t85.5 142t27.5 180q0 124 -69 220.5t-173 131.5q80 27 124 91.5t44 160.5q0 83 -23 149.5t-72.5 119t-135 81.5t-201.5 29q-231 0 -342 -102t-111 -273q0 -83 43 -148t109 -108 q-109 -37 -168.5 -130t-59.5 -237zM485 559q0 37 25.5 63.5t73.5 26.5q39 0 62.5 -26.5t23.5 -61.5q0 -36 -23.5 -61t-66.5 -25q-41 0 -68 25t-27 59zM498 1028q0 33 20 58.5t53 25.5t52.5 -24t19.5 -56t-18 -53t-54 -21q-35 0 -54 20t-19 50zM559 1034q0 -12 12 -12 q13 0 13 10q0 12 -13 12q-12 0 -12 -10zM569 561q0 -10 11 -10q12 0 12 10q0 12 -12 12q-11 0 -11 -12z" />
<glyph unicode="9" horiz-adv-x="1179" d="M-41 928q0 134 38 243.5t113 191t195.5 126.5t278.5 45q114 0 207.5 -22t175 -75.5t136.5 -136.5t86.5 -210.5t31.5 -292.5q0 -129 -24 -244t-67 -204.5t-102 -164t-129 -126.5t-149 -88t-160 -53t-164 -17q-161 0 -246.5 85.5t-85.5 204.5q0 69 32 134.5t89 105.5 q-120 70 -188 199.5t-68 298.5zM57 928q0 -211 121 -340t309 -129q118 0 191 45q-33 -53 -103.5 -81.5t-197.5 -35.5q-84 -4 -134 -63t-50 -134q0 -79 59.5 -135.5t173.5 -56.5q102 0 200.5 29.5t188.5 93.5t158 156t108.5 226t40.5 294q0 143 -26.5 253t-73.5 182.5 t-115.5 118.5t-147.5 65.5t-175 19.5q-133 0 -234.5 -37.5t-165 -106t-95.5 -160.5t-32 -204zM522 889q0 35 23 61.5t63 26.5t62 -26.5t22 -61.5q0 -36 -20.5 -62t-55.5 -26q-46 0 -70 25.5t-24 62.5zM596 889q0 -15 14 -15q6 0 10.5 4.5t4.5 10.5q0 14 -15 14 q-14 0 -14 -14z" />
<glyph unicode=":" horiz-adv-x="591" d="M-41 252q0 78 30 150t87 120q-55 48 -84 120t-29 151q0 64 20.5 123t60 107t103 76.5t142.5 28.5q109 0 189 -51.5t117.5 -129t37.5 -167.5q0 -79 -31.5 -149.5t-91.5 -116.5q58 -50 89.5 -122t31.5 -148q0 -64 -22 -123.5t-63 -107.5t-108 -76.5t-151 -28.5 q-104 0 -180.5 51t-112 127.5t-35.5 165.5zM57 252q0 -100 61 -173t169 -73q117 0 181 70.5t64 167.5q0 101 -65.5 175.5t-179.5 74.5q-109 0 -169.5 -72t-60.5 -170zM61 793q0 -100 61 -174t169 -74q116 0 180 69t64 166q0 101 -65.5 175.5t-180.5 74.5q-109 0 -168.5 -70 t-59.5 -167z" />
<glyph unicode=";" horiz-adv-x="636" d="M-41 268q0 188 135 273q-90 101 -90 245q0 88 35 163.5t111.5 126t181.5 50.5q107 0 186.5 -51.5t117.5 -128.5t38 -166q0 -161 -111 -260q115 -98 115 -342q0 -95 -38.5 -185t-96.5 -152t-127.5 -100t-130.5 -38q-97 0 -150 56.5t-53 142.5q0 57 22 96 q-67 35 -106 103.5t-39 166.5zM57 268q0 -100 57.5 -154.5t143.5 -54.5q28 0 78 13q-10 -29 -36.5 -50.5t-52.5 -32.5t-46.5 -33t-20.5 -54q0 -44 27.5 -72.5t77.5 -28.5q62 0 130 49.5t116.5 139t48.5 188.5q0 172 -67.5 247t-197.5 75q-123 0 -190.5 -64t-67.5 -168z M102 786q0 -100 61 -172.5t169 -72.5q116 0 179.5 70.5t63.5 168.5q0 100 -65 174t-178 74q-109 0 -169.5 -72t-60.5 -170z" />
<glyph unicode="&#x3c;" horiz-adv-x="1083" d="M-41 737q0 52 55 136t141 174t192.5 182.5t207.5 165t188.5 118.5t133.5 46q108 0 172.5 -77.5t64.5 -187.5q0 -90 -157 -259.5t-332 -295.5q83 -62 167.5 -138.5t160.5 -160.5t123.5 -167t47.5 -144q0 -87 -68 -150t-167 -63q-98 0 -260 98.5t-308.5 230.5t-254 273 t-107.5 219zM57 737q0 -55 62 -147.5t161 -190t209 -185t219.5 -144t180.5 -56.5q58 0 97.5 34t39.5 81q0 63 -67.5 158.5t-163 184.5t-193 163.5t-162.5 107.5q84 36 220.5 141t246 226t109.5 184q0 69 -37.5 117.5t-101.5 48.5q-61 0 -198.5 -87t-274.5 -202.5t-242 -241 t-105 -192.5z" />
<glyph unicode="=" horiz-adv-x="1146" d="M-41 522q0 147 195 221q-195 62 -195 224q0 155 143.5 221.5t448.5 66.5q100 0 187.5 -7.5t172 -27.5t144.5 -51t96.5 -81t36.5 -115q0 -147 -195 -221q195 -62 195 -224q0 -155 -143.5 -221.5t-448.5 -66.5q-100 0 -187.5 7.5t-172 27.5t-144.5 51t-96.5 81t-36.5 115z M57 522q0 -52 45.5 -89.5t125.5 -57.5t170 -28.5t198 -8.5q255 0 374.5 44t119.5 146q0 90 -127 132t-406 42q-106 0 -194.5 -10t-158 -31t-108.5 -56.5t-39 -82.5zM57 967q0 -90 127 -132t406 -42q221 0 360.5 45t139.5 135q0 52 -45.5 89.5t-125.5 57.5t-170 28.5 t-198 8.5q-255 0 -374.5 -44t-119.5 -146z" />
<glyph unicode="&#x3e;" horiz-adv-x="1081" d="M-41 129q0 61 47.5 145t124 168t161 160.5t167.5 138.5q-110 79 -220 180t-191 206.5t-81 166.5q0 109 65 187t173 78q55 0 167 -64t238 -164t242.5 -210t193 -216t76.5 -168q0 -63 -69.5 -168t-179.5 -215.5t-233.5 -210t-245.5 -163.5t-201 -64q-100 0 -167 62.5 t-67 150.5zM57 129q0 -47 39 -81t97 -34q71 0 180 56.5t219.5 144t209 185t160.5 190t62 147.5q0 54 -68.5 147t-172.5 190t-216.5 185.5t-212.5 144.5t-149 56q-64 0 -101.5 -48.5t-37.5 -117.5q0 -63 110 -184t246.5 -226t220.5 -141q-65 -33 -162.5 -107.5t-193 -163.5 t-163 -184.5t-67.5 -158.5z" />
<glyph unicode="?" horiz-adv-x="899" d="M-70 1180q0 106 75 191.5t189.5 130t241.5 44.5q531 0 531 -487q0 -67 -12.5 -122.5t-28.5 -91t-47.5 -70.5t-52 -52.5t-60.5 -46.5q-21 -15 -32 -24.5t-30 -29t-36 -44.5q-35 -60 -54 -80q60 -48 91.5 -119t31.5 -150q0 -87 -36.5 -161t-115.5 -123t-188 -49 q-107 0 -184.5 49t-113.5 123t-36 161q0 76 30 147.5t85 119.5q-94 84 -94 223q0 106 49 168q-89 28 -146 108.5t-57 184.5zM29 1180q0 -86 53.5 -146.5t130.5 -60.5q43 0 74 13.5t45.5 29.5t35 29.5t44.5 13.5q16 0 27.5 -13.5t11.5 -29.5q0 -31 -20 -54t-50 -35 t-64.5 -29.5t-64.5 -36t-50 -55.5t-20 -87q0 -92 61 -145.5t154 -53.5q44 0 76.5 8.5t52.5 25.5t31 31.5t24 38t21 33.5q23 32 61.5 63t71.5 56t64.5 59.5t50 90.5t18.5 133q0 389 -432 389q-102 0 -194.5 -32.5t-152.5 -95t-60 -140.5zM162 229q0 -97 61.5 -166t173.5 -69 q115 0 178.5 69.5t63.5 165.5q0 98 -65 171t-177 73q-110 0 -172.5 -73t-62.5 -171z" />
<glyph unicode="@" horiz-adv-x="1533" d="M-41 719q0 159 45.5 294.5t125.5 232.5t187.5 165.5t231.5 101.5t258 33q161 0 293 -45t218.5 -117.5t146 -167.5t85 -191.5t25.5 -193.5q0 -187 -65.5 -317.5t-180.5 -183.5q47 -50 47 -135q0 -42 -16 -83.5t-57.5 -84.5t-104.5 -75t-165.5 -52.5t-231.5 -20.5 q-205 0 -366 61t-264.5 172t-157.5 264.5t-54 342.5zM57 719q0 -166 47.5 -301.5t139.5 -234t234 -152.5t323 -54q107 0 192 14t137.5 36.5t86.5 52t47.5 58t13.5 57.5q0 42 -22.5 67t-63.5 25q-37 0 -169.5 -37t-213.5 -37q-77 0 -146.5 14.5t-137 50.5t-116 91t-78.5 143 t-30 199q0 232 141.5 366.5t374.5 134.5q194 0 304 -110t110 -289q0 -39 -0.5 -58.5t-1.5 -51t-4.5 -47.5t-9.5 -33.5t-16 -25t-23 -7.5q-19 0 -32 17t-21.5 70t-8.5 144q0 131 -19 179.5t-67 48.5q-27 0 -49.5 -26.5t-28.5 -68.5q-29 47 -95 77t-128 30q-64 0 -119 -18 t-100.5 -55.5t-71.5 -104t-26 -156.5t25.5 -157t71 -105.5t100.5 -57t120 -18.5q90 0 162.5 32t107.5 83q26 -51 75.5 -79t109.5 -28q133 0 214 118t81 316q0 83 -22.5 166.5t-74.5 165.5t-127 144.5t-190.5 101.5t-255.5 39q-149 0 -282.5 -47.5t-238.5 -136.5t-167 -230 t-62 -315zM631 727q0 36 23.5 63t62.5 27t61.5 -27.5t22.5 -64.5q0 -33 -21.5 -57.5t-60.5 -24.5q-42 0 -65 24.5t-23 59.5zM702 729q0 -4 4 -8t11 -4q12 0 12 12t-12 12q-15 0 -15 -12zM903 322q7 1 107 24q-3 2 -11.5 7.5t-11.5 8.5q-41 -26 -84 -40z" />
<glyph unicode="A" d="M-41 449q0 118 20.5 243t58.5 245.5t97 228t131.5 188.5t166.5 128.5t198 47.5q106 0 202.5 -49t170.5 -132.5t134 -193.5t98.5 -232.5t59.5 -247.5t21 -241q0 -154 -33.5 -270.5t-107.5 -187t-181 -70.5q-123 0 -209 87t-129 216q-6 -2 -18 -2q-34 -152 -118 -245 t-208 -93q-118 0 -199.5 79t-118 207t-36.5 294zM57 449q0 -137 26.5 -243.5t85.5 -172.5t144 -66q100 0 163 95t79 241h22q81 0 152 19q9 -45 24 -87.5t38.5 -85t52.5 -74.5t68 -51.5t83 -19.5q75 0 126 57.5t74.5 152.5t23.5 220q0 128 -24.5 265t-75 268t-119 234.5 t-165 167t-204.5 63.5q-105 0 -199 -61t-161 -162.5t-116.5 -229.5t-73.5 -264.5t-24 -265.5zM512 772q0 42 28.5 72t80.5 30q50 0 79 -32.5t29 -75.5q0 -41 -29.5 -70.5t-83.5 -29.5q-48 0 -76 31.5t-28 74.5zM610 768q0 -8 8 -8q11 0 11 10q0 8 -11 8q-8 0 -8 -10z" />
<glyph unicode="B" horiz-adv-x="1124" d="M-41 735q0 145 11 258.5t31.5 198t55 145.5t75.5 101t98.5 63t119 32t142.5 9q127 0 248 -37t214 -100.5t150 -156t57 -195.5q0 -195 -106 -326q119 -110 119 -293q0 -174 -92 -300t-244 -187.5t-346 -61.5q-58 0 -102 3t-90.5 11.5t-81 24t-69 40t-58.5 59.5t-47 82 t-37.5 108.5t-26 139t-16.5 172.5t-5 210zM57 735q0 -113 5.5 -204.5t15.5 -163.5t27 -128t36.5 -96.5t48.5 -68.5t58.5 -46t70.5 -27.5t80.5 -13t92.5 -3.5q166 0 296 50t208.5 153.5t78.5 246.5q0 58 -15.5 106t-44 82t-55 55.5t-63.5 43.5q74 43 120 127.5t46 204.5 q0 109 -82 200t-213 141t-276 50q-94 0 -158.5 -16.5t-120.5 -61.5t-88 -124t-50 -204t-18 -303zM473 410q0 43 25.5 74.5t72.5 31.5q48 0 75.5 -32.5t27.5 -75.5t-26 -74t-73 -31q-48 0 -75 32t-27 75zM520 1026q0 42 26.5 72t74.5 30q45 0 70.5 -30t25.5 -70 q0 -41 -25.5 -71.5t-70.5 -30.5q-48 0 -74.5 29.5t-26.5 70.5zM567 410q0 -9 8 -9q7 0 7 9q0 8 -9 8q-6 -2 -6 -8zM612 1026q0 -3 3.5 -6.5t7.5 -3.5q10 0 10 10t-10 10q-11 0 -11 -10z" />
<glyph unicode="C" horiz-adv-x="1138" d="M-41 719q0 173 38.5 312.5t102.5 231t150.5 153t177.5 88t188 26.5q137 0 245 -33t171 -89.5t88 -130.5q14 -40 13 -83q0 -36 -9 -72q-10 -41 -24 -73.5t-32.5 -56t-35 -40.5t-42 -28.5t-43 -18.5t-48 -11t-47 -5.5t-49.5 -3.5q-27 -2 -41 -4t-35 -11t-31.5 -26 t-19 -49.5t-8.5 -79.5q0 -42 9 -67.5t22 -36t35 -13t42 0.5t50 7t51 4q55 0 97 -9.5t84.5 -34.5t74 -76t49.5 -128q7 -28 7 -58t-7 -62q-14 -63 -57 -123.5t-107 -109.5t-160 -79t-207 -30q-340 0 -516 216t-176 603zM57 719q0 -340 151.5 -530.5t442.5 -190.5q111 0 202 34 t144 85t77 111q16 39 16 74q0 19 -5 38q-14 61 -41 99.5t-60 52.5q-34 14 -73 18q-20 2 -39.5 2t-39.5 -2q-40 -4 -78 -6q-10 -1 -19 0q-27 0 -53 5q-34 7 -59 26.5t-39.5 64.5t-14.5 115q0 96 21 154t56 79.5t78 28.5t89.5 9t88 11.5t76.5 46t52 103.5q6 25 6 48 q0 87 -89 153q-113 84 -331 84q-82 0 -159.5 -23t-151 -77.5t-128 -134.5t-87.5 -203t-33 -275z" />
<glyph unicode="D" horiz-adv-x="1193" d="M-41 772q0 179 19.5 311.5t56 221t94 142.5t127.5 76.5t162 22.5q155 0 288 -42.5t229 -118t164.5 -177.5t102 -223t33.5 -254q0 -169 -39 -306.5t-110.5 -236t-175 -166t-231 -99.5t-278.5 -32q-442 0 -442 881zM57 772q0 -782 344 -782q167 0 301 45.5t231.5 135.5 t150.5 232t53 328q0 146 -47.5 275.5t-136 228t-227 156t-308.5 57.5q-91 0 -155.5 -32t-112 -108t-70.5 -209t-23 -327zM522 803q0 110 105 110q50 0 82 -34t32 -78q0 -46 -28 -78.5t-84 -32.5q-46 0 -76.5 27t-30.5 86zM621 803q0 -15 10 -15q12 0 12 13q0 14 -12 14 q-10 0 -10 -12z" />
<glyph unicode="E" horiz-adv-x="1085" d="M-41 711q0 195 19.5 336t57 234.5t99 148.5t137.5 77.5t181 22.5q147 0 262.5 -20t188 -52.5t119.5 -78.5t66 -94.5t19 -104.5q0 -198 -180 -256q123 -83 123 -232q0 -78 -24.5 -132t-84.5 -89q178 -76 178 -258q0 -52 -6 -92t-21.5 -72.5t-37 -55.5t-58 -40t-78 -27.5 t-103 -17t-128 -8.5t-158.5 -2q-101 0 -177.5 15t-143 50.5t-111.5 95.5t-77 150t-47 214.5t-15 287.5zM57 711q0 -214 27.5 -354t89 -219.5t145.5 -110.5t211 -31q96 0 148.5 1.5t119 8t100 20t66.5 37.5t45.5 61t12.5 89q0 68 -42 115t-109.5 65.5t-151.5 22.5 q-15 1 -29 1l-139 -16q3 14 7 46t7 47q118 5 194.5 19t118.5 40t58 58.5t16 80.5q0 98 -91 158q-81 53 -244 54q-19 0 -39 -1q0 63 -7 121q45 -9 87 -14q42 -6 96 -8q12 -1 22 0q40 0 74 7q43 9 80.5 27t58.5 55t21 89q0 40 -16 75t-56 68.5t-102 57t-160 37.5t-223 14 q-84 0 -144.5 -20t-110 -68.5t-79.5 -130.5t-46 -206t-16 -296z" />
<glyph unicode="F" horiz-adv-x="1038" d="M-41 657q0 125 5.5 221.5t20 192.5t39 165.5t64 130.5t94 98.5t130.5 59t171 21.5q112 0 197 -6t149 -17.5t108.5 -31.5t73 -43.5t44.5 -59t22 -73t6 -88.5q0 -110 -66 -185.5t-173 -111.5q112 -23 174.5 -94t62.5 -193q0 -187 -103 -263q-92 -68 -275 -68q-21 0 -44 1 q-30 -202 -111.5 -299.5t-199.5 -97.5q-92 0 -161 38t-121.5 122t-79.5 230t-27 351zM57 657q0 -178 20.5 -304.5t59.5 -199.5t90.5 -106t120.5 -33q89 0 148.5 100t76.5 306q65 -8 136 -8q146 0 210 54t64 177q0 101 -68 150t-184 49q-72 0 -162 -19q-14 140 -20 193 q60 -17 117 -17q81 0 151.5 24t119 77.5t48.5 126.5q0 50 -10.5 83t-41 61.5t-86.5 44t-145 24t-219 8.5q-78 0 -139.5 -19t-105.5 -52.5t-76.5 -88t-52.5 -116t-31.5 -147t-16 -171.5t-4.5 -197z" />
<glyph unicode="G" horiz-adv-x="1312" d="M-41 713q0 173 40 315.5t109 239.5t163.5 163.5t201 97t223.5 30.5q478 0 478 -326q0 -165 -80 -238q132 -37 196 -148t64 -308q0 -311 -180 -479.5t-500 -168.5q-144 0 -273.5 58t-227.5 162.5t-156 260.5t-58 341zM57 713q0 -162 50 -299.5t134.5 -229t196.5 -143 t236 -51.5q273 0 427 143t154 406q0 201 -81.5 291t-253.5 90q-127 0 -207 -53.5t-80 -155.5q0 -90 61 -139q54 -45 153 -45q12 0 25 1q-10 -38 -43 -53.5t-98 -15.5q-105 0 -154 62t-49 186q0 83 18.5 140.5t50.5 87.5t73 47t86 23t90.5 10.5t86.5 15t73 31t50.5 63.5 t18.5 108q0 227 -379 227q-102 0 -194 -27t-174 -85.5t-142 -144.5t-94.5 -211.5t-34.5 -278.5z" />
<glyph unicode="H" horiz-adv-x="1306" d="M-41 702q0 822 373 822q67 0 118 -22t93.5 -73.5t70 -140.5t41.5 -217q33 234 116.5 343.5t215.5 109.5q119 0 197 -82.5t121 -274.5t43 -499q0 -181 -16.5 -315.5t-46 -221.5t-76 -140.5t-101 -75t-125.5 -21.5q-128 0 -211.5 121t-118.5 337h-10q-70 -444 -344 -444 q-104 0 -181 97.5t-118 277t-41 419.5zM57 702q0 -319 65 -507.5t177 -188.5q211 0 258 447q31 -2 68 -2q52 0 116 4q21 -217 83 -340t159 -123q66 0 112.5 31t82.5 105.5t53.5 208.5t17.5 331q0 272 -31 441.5t-88 242.5t-143 73q-105 0 -167.5 -121.5t-80.5 -385.5 q-109 0 -170 -11q-5 155 -23 258t-49.5 159t-70.5 78.5t-94 22.5q-275 0 -275 -723z" />
<glyph unicode="I" horiz-adv-x="655" d="M-39 754q0 177 17.5 310t48 219t78 139t102 74.5t125.5 21.5q73 0 126.5 -21t97.5 -71.5t71.5 -136t42 -215.5t14.5 -308q0 -437 -99.5 -656t-265.5 -219q-66 0 -118.5 25.5t-98.5 86.5t-76 158.5t-47.5 247t-17.5 345.5zM59 754q0 -216 18.5 -368t54 -237t81 -122 t106.5 -37q122 0 194.5 194t72.5 582q0 193 -15.5 321t-49 200.5t-78.5 102t-111 29.5t-113.5 -31t-84.5 -104.5t-56 -205.5t-19 -324z" />
<glyph unicode="J" horiz-adv-x="921" d="M-61 254q0 149 80.5 228t228.5 79q-27 156 -27 311q0 340 100.5 503t278.5 163q184 0 273.5 -196.5t89.5 -612.5q0 -228 -36 -391.5t-107 -263t-171 -145.5t-235 -46q-228 0 -351.5 98.5t-123.5 272.5zM37 254q0 -127 98 -199.5t279 -72.5q88 0 158 25.5t125.5 81t92 142 t55.5 211.5t19 287q0 367 -65 539t-199 172q-132 0 -206.5 -139t-74.5 -429q0 -116 19.5 -248.5t52.5 -211.5q-9 4 -31.5 15t-37 17.5t-38 12.5t-44.5 6q-96 0 -149.5 -54.5t-53.5 -154.5z" />
<glyph unicode="K" horiz-adv-x="1189" d="M-41 817q0 196 27 336.5t77.5 220.5t115.5 116t149 36q190 0 264 -254q148 239 328 239q72 0 131 -28.5t94.5 -75t54.5 -101.5t19 -112q0 -122 -71 -260t-185 -240q132 -99 219.5 -223.5t87.5 -255.5q0 -53 -18.5 -106.5t-53.5 -100.5t-94.5 -76.5t-134.5 -29.5 q-85 0 -178 57.5t-179 155.5q-84 -207 -280 -207q-373 0 -373 909zM57 817q0 -811 275 -811q55 0 98 27.5t70 76.5t43 107.5t22 128.5q93 -148 201.5 -247t202.5 -99q97 0 149.5 67.5t52.5 147.5q0 70 -35.5 143t-93.5 134.5t-122.5 111t-131.5 86.5q136 76 234 224.5 t98 279.5q0 85 -53 152t-147 67q-33 0 -65.5 -14t-59 -34t-57 -58.5t-51.5 -69.5t-51 -86.5t-48 -91t-49 -98.5q-24 466 -211 466q-62 0 -109.5 -31t-85 -99.5t-57 -189.5t-19.5 -290z" />
<glyph unicode="L" horiz-adv-x="921" d="M-31 678q0 235 25 398.5t76.5 261t123 141t171.5 43.5q81 0 142.5 -45.5t98 -125.5t54.5 -181.5t18 -221.5q0 -261 -25 -401q338 0 338 -314q0 -144 -114 -234.5t-283 -90.5q-117 0 -209.5 23t-172 78.5t-132 142.5t-82 219.5t-29.5 306.5zM68 678q0 -188 37 -321 t108.5 -208.5t164.5 -109t216 -33.5q127 0 213 63.5t86 163.5q1 143 -95 191q-48 24 -118 24q-69 0 -158 -24q58 184 58 524q0 100 -12 183.5t-37 150t-67.5 104t-98.5 37.5q-101 0 -164.5 -68.5t-98 -235t-34.5 -441.5z" />
<glyph unicode="M" horiz-adv-x="1662" d="M-45 487q0 171 42 357t110 338t163.5 251t194.5 99q204 0 385 -410q166 410 375 410q128 0 240.5 -138t178.5 -366t66 -481q0 -128 -21.5 -243.5t-63 -207.5t-108 -146t-149.5 -54q-96 0 -170.5 57.5t-118.5 167.5q-100 -158 -221 -158q-163 0 -264 178 q-97 -239 -281 -239q-358 0 -358 585zM53 487q0 -487 260 -487q77 0 134.5 73t90 198t44.5 296q25 -257 98.5 -381.5t177.5 -124.5q90 0 163 148t99 358q-2 -41 -2 -79q0 -216 58 -344q68 -150 192 -150q79 0 135.5 80t82.5 203t26 270q0 228 -52.5 433t-142.5 329.5 t-192 124.5q-31 0 -60.5 -13t-56 -40t-49.5 -57t-46 -74.5t-40 -81t-37 -88.5t-32 -85.5t-29.5 -83.5t-24.5 -71q-17 55 -36 108.5t-48.5 125.5t-62.5 132t-70.5 113.5t-81 84t-86.5 30.5q-106 0 -203 -150t-153 -369.5t-56 -427.5z" />
<glyph unicode="N" horiz-adv-x="1386" d="M-41 645q0 224 16 383t52.5 274t99.5 170.5t154 55.5q115 0 231.5 -99.5t241.5 -273.5q64 377 329 377q67 0 120.5 -28.5t90.5 -81t63.5 -120t41.5 -153.5t21.5 -172t6.5 -184q0 -871 -368 -871q-234 0 -445 268q-75 -278 -303 -288q-128 0 -202 62.5t-112 225.5t-38 455 zM57 645q0 -253 27.5 -394.5t80 -196t144.5 -54.5q232 11 240 469q253 -449 510 -449q270 0 270 773q0 641 -246 641q-67 0 -118.5 -48t-80.5 -130q-30 -82 -44 -180q-13 -87 -13 -182v-26q-48 74 -78.5 120.5t-76.5 112t-80 107t-77.5 88t-79.5 73t-76.5 44t-77.5 17.5 q-123 0 -173.5 -191.5t-50.5 -593.5z" />
<glyph unicode="O" horiz-adv-x="1292" d="M-41 727q0 165 39 301.5t105 228.5t155 155t186 91.5t201 28.5q76 0 146 -12.5t139.5 -41t129 -72t110.5 -109.5t86.5 -148t56 -192.5t20.5 -239.5q0 -181 -35.5 -323t-97.5 -236.5t-151 -156t-190.5 -88t-221.5 -26.5q-146 0 -268.5 53t-214.5 155t-143.5 264t-51.5 368 zM57 727q0 -182 44 -325t122.5 -233t183.5 -136.5t230 -46.5q130 0 234.5 38.5t188 121.5t129.5 228t46 343q0 133 -23 242t-65 186.5t-97 134t-122.5 90t-137 49t-145.5 15.5q-89 0 -172 -25t-159.5 -80.5t-133 -136t-90 -200.5t-33.5 -265zM512 793q0 58 36.5 101.5 t100.5 43.5q61 0 95 -41t34 -98q0 -58 -36.5 -102t-98.5 -44q-61 0 -96 41.5t-35 98.5zM610 793q0 -16 9.5 -27.5t25.5 -11.5q35 0 35 45q0 15 -10 26t-25 11q-35 0 -35 -43z" />
<glyph unicode="P" horiz-adv-x="1187" d="M-41 709q0 201 27 347t73.5 237.5t122.5 145t162 73.5t203 20q144 0 262.5 -39.5t194.5 -102t128.5 -144.5t74.5 -163t22 -161q0 -283 -137.5 -447.5t-393.5 -173.5q-39 -399 -350 -399q-182 0 -285.5 201t-103.5 606zM57 709q0 -355 77.5 -532t213.5 -177q248 0 258 401 q35 -3 69 -3q203 0 319 120q136 140 136 404q0 67 -19 135t-63.5 137t-109.5 121.5t-166.5 85.5t-224.5 33q-97 0 -168.5 -17.5t-135 -65t-102.5 -128t-61.5 -209t-22.5 -305.5zM479 909q0 44 27 75.5t78 31.5q48 0 77 -33.5t29 -77.5q0 -43 -30 -74.5t-85 -31.5 q-44 0 -70 33t-26 77zM575 907q0 -8 9 -8q8 0 8 8t-8 8q-9 0 -9 -8z" />
<glyph unicode="Q" horiz-adv-x="1277" d="M-41 754q0 187 51 335.5t141.5 244.5t213.5 147t270 51q333 0 510.5 -203.5t177.5 -585.5q0 -276 -113 -462q89 -21 146 -93t57 -172q0 -61 -11 -115t-39.5 -106.5t-72.5 -90.5t-114.5 -61.5t-161.5 -23.5q-89 0 -175.5 23t-162 67.5t-128 117.5t-65.5 165 q-226 54 -375 264t-149 498zM57 754q0 -138 41.5 -260.5t112 -211t166 -143t201.5 -63.5v-17q0 -78 34 -142q37 -71 101.5 -113.5t142 -64.5t158.5 -22q85 0 146 26t93.5 70.5t47 94.5t14.5 108q0 74 -48 124t-118 50q-34 0 -66.5 -10.5t-51 -21t-46.5 -16t-53 4.5 q134 73 213.5 220t79.5 376q0 335 -152 513t-438 178q-125 0 -230.5 -44.5t-183 -128.5t-121 -214t-43.5 -293zM522 791q0 56 34.5 98.5t92.5 42.5q64 0 99.5 -40t35.5 -95q0 -56 -35 -97t-98 -41q-62 0 -95.5 38.5t-33.5 93.5zM631 795q0 -10 5.5 -17.5t14.5 -7.5 q11 0 18 8t7 19q0 24 -23 24q-9 0 -15.5 -7t-6.5 -19z" />
<glyph unicode="R" horiz-adv-x="1280" d="M-41 709q0 143 17.5 260t48.5 201.5t77.5 148.5t100 104t121.5 65t135.5 34.5t148.5 9.5q130 0 241.5 -39t186.5 -102.5t128 -144.5t77.5 -163t24.5 -161q0 -237 -156 -390q18 -14 52.5 -39.5t48.5 -37t38 -34t33.5 -40.5t22 -46.5t16.5 -62.5t4 -77q0 -140 -92.5 -216.5 t-233.5 -76.5q-218 0 -350 190q-37 -97 -108.5 -143.5t-190.5 -46.5q-183 0 -287 201t-104 606zM57 709q0 -355 78 -532t215 -177q75 0 126.5 34t79 99t39 143.5t11.5 184.5h6q40 -212 137.5 -336.5t249.5 -124.5q99 0 163.5 51t64.5 144q0 63 -16 105t-44.5 67.5 t-59.5 45.5t-71 53.5t-69 76.5q92 59 146 154.5t54 224.5q0 66 -20.5 135t-66 137t-109 121t-158 86t-205.5 33q-69 0 -126.5 -8.5t-115 -30.5t-103 -57.5t-85 -91.5t-65.5 -130.5t-41 -177.5t-15 -229zM508 909q0 44 26.5 75.5t77.5 31.5q49 0 78 -33.5t29 -77.5 q0 -43 -29.5 -74.5t-83.5 -31.5q-45 0 -71.5 33t-26.5 77zM606 907q0 -8 8 -8q9 0 9 8t-9 8q-8 0 -8 -8z" />
<glyph unicode="S" horiz-adv-x="1087" d="M-41 289q0 71 21 126t55.5 87t75.5 48.5t84 16.5q-222 140 -222 426q0 115 40.5 214t116 173t191 116t257.5 42q230 0 376 -106t146 -281q0 -89 -45 -170t-123 -109q196 -170 196 -485q0 -117 -51 -213.5t-135.5 -158t-191 -95t-220.5 -33.5q-138 0 -250.5 37.5 t-180.5 97t-104 129t-36 138.5zM57 289q0 -52 30 -104.5t86 -97.5t149.5 -73t207.5 -28q96 0 185 27t159.5 76.5t113 127t42.5 170.5q0 85 -15.5 156t-41 120.5t-59 89.5t-70.5 66.5t-74 47.5t-70.5 36.5t-59 29t-41 29.5t-15.5 35q0 20 17 31.5t46 11.5q27 0 49 -13 t37.5 -28t48 -28t78.5 -13q65 0 103 60t38 133q0 131 -118 210t-305 79q-236 0 -371 -126.5t-135 -320.5q0 -75 19 -137t49.5 -102.5t70 -74.5t80.5 -54.5t80.5 -39t70 -31.5t49.5 -29.5t19 -35.5q0 -30 -19.5 -46.5t-52.5 -16.5q-84 0 -147.5 21.5t-100.5 21.5 q-52 0 -92.5 -46t-40.5 -134z" />
<glyph unicode="T" horiz-adv-x="1122" d="M-55 1192q0 338 618 338q149 0 261.5 -15.5t181.5 -41t111.5 -63.5t58.5 -77.5t16 -87.5q0 -36 -7.5 -70.5t-29 -74.5t-55 -73t-90 -61.5t-129.5 -43.5q41 -249 41 -461q0 -121 -17 -218t-55 -176t-106 -122t-162 -43q-78 0 -139 33.5t-101.5 91.5t-67 139.5t-38 172.5 t-11.5 196q0 161 27 358q-158 23 -232.5 95.5t-74.5 203.5zM43 1192q0 -101 79.5 -152t246.5 -59q-25 -127 -37 -257q-8 -88 -7 -178q-1 -42 1 -84q6 -132 31.5 -233.5t83 -165t141.5 -63.5q65 0 112.5 34.5t74 92t39.5 139.5q14 84 16 170v26q0 76 -8 164 q-8 104 -20.5 193.5t-29.5 186.5q79 5 139.5 23.5t95.5 43t57 56.5t29 59.5t7 56.5q0 31 -13.5 57t-49.5 51t-94 41.5t-153 27t-221 10.5q-520 0 -520 -240z" />
<glyph unicode="U" horiz-adv-x="1284" d="M-41 856q0 314 94 487t256 173q268 0 332 -271q29 133 109.5 208t234.5 75q95 0 162 -42.5t105.5 -126t55.5 -193t17 -257.5q0 -102 -10.5 -201t-34.5 -200t-60 -189t-91 -165.5t-124.5 -132.5t-163 -87t-202.5 -32q-112 0 -206 30t-163 82t-123 125.5t-89 156t-57.5 179 t-32 189.5t-9.5 192zM57 856q0 -88 8 -172t27.5 -170.5t49.5 -160.5t76.5 -140t105 -112.5t139.5 -73.5t176 -27q109 0 199 38t153 105.5t110 154.5t74 191t39.5 207.5t12.5 212.5q0 124 -12 216.5t-39.5 162.5t-75 106t-115.5 36q-44 0 -80.5 -10.5t-63 -29t-47.5 -45.5 t-34 -59.5t-22.5 -70t-13.5 -78.5t-7 -85q-2 -33 -2 -65v-22q0 -22 0.5 -44t-0.5 -44v-43v-109q0 -136 -14 -202t-60 -66q-50 0 -69 50.5t-19 147.5q0 49 6 168.5t6 182.5q0 70 -5.5 125.5t-22 111t-44.5 92t-74.5 59.5t-109.5 23q-117 0 -184.5 -147t-67.5 -414z" />
<glyph unicode="V" d="M-49 1016q0 248 81 384t238 136q62 0 119 -36.5t102.5 -103t82 -147.5t67.5 -182q31 99 68 179t83 145t103.5 101t120.5 36q159 0 232 -107t73 -325q0 -117 -24 -251.5t-67 -268t-107.5 -257t-140.5 -218t-170.5 -151t-193.5 -56.5q-103 0 -197.5 51t-166 137.5t-130 199 t-96 238t-57.5 252.5t-20 244zM49 1016q0 -129 23.5 -268.5t72 -274.5t115 -242t160 -173t198.5 -66q101 0 197 73.5t168 192.5t127.5 264t84 295t28.5 279q0 167 -50 250.5t-157 83.5q-62 0 -118 -56.5t-96.5 -145.5t-74 -207t-54.5 -231.5t-34 -228.5q-15 147 -44 291 t-73.5 280.5t-110 221t-141.5 84.5q-109 0 -165 -110.5t-56 -311.5z" />
<glyph unicode="W" horiz-adv-x="1703" d="M-41 936q0 121 21.5 226t65 189t116 132.5t166.5 48.5q185 0 270 -268q46 117 103 176t133 59q174 0 274 -278q101 270 283 270q93 0 163 -44.5t110.5 -121.5t60.5 -172t20 -205q0 -164 -44 -347.5t-114 -333.5t-166.5 -248.5t-193.5 -98.5q-226 0 -359 260 q-122 -278 -354 -278q-94 0 -181.5 63.5t-154 169.5t-117 239.5t-76.5 279t-26 282.5zM57 936q0 -156 34.5 -321t93.5 -302t146 -225t183 -88q266 0 342 524q17 -80 39 -149t54.5 -136.5t71.5 -115t92 -76.5t114 -29q78 0 156.5 89t135.5 225t92.5 301.5t35.5 314.5 q0 122 -24.5 219t-84 161.5t-147.5 64.5q-62 0 -112 -55.5t-82.5 -153.5t-53 -205t-33.5 -234q-79 656 -276 656q-48 0 -90 -55.5t-74.5 -153.5t-56.5 -208.5t-44 -244.5q-3 139 -16 254t-39.5 219t-73.5 163t-112 59q-91 0 -154 -71.5t-90 -180.5t-27 -246z" />
<glyph unicode="X" horiz-adv-x="1208" d="M-41 188q0 122 71.5 275.5t178.5 281.5q-93 111 -158 245.5t-65 242.5q0 73 31.5 140t96.5 113t150 46q95 0 189.5 -73.5t171.5 -188.5q71 113 160.5 184.5t179.5 71.5q71 0 128.5 -31.5t89.5 -80t49 -101t17 -101.5q0 -120 -66.5 -254.5t-166.5 -240.5 q92 -108 152.5 -245.5t60.5 -254.5q0 -58 -18.5 -114t-53 -101.5t-88.5 -73.5t-119 -28q-92 0 -184 67t-166 174q-84 -107 -179.5 -174t-189.5 -67q-125 0 -198.5 81t-73.5 207zM57 188q0 -84 47 -137t127 -53q66 0 139 51t131 123t105 158q63 -135 157.5 -233.5 t186.5 -98.5q83 0 131.5 67t48.5 152q0 121 -74 263.5t-179 236.5q106 91 190 233t84 262q0 33 -11 69t-32.5 69.5t-58.5 55t-84 21.5q-93 0 -186.5 -111.5t-149.5 -260.5q-28 68 -67 133t-86.5 121t-103 90.5t-108.5 34.5q-81 0 -130.5 -62t-49.5 -139q0 -112 77 -250 t181 -238q-116 -116 -200.5 -275.5t-84.5 -281.5z" />
<glyph unicode="Y" horiz-adv-x="1134" d="M-72 1198q0 47 11 94.5t35 93.5t58.5 81.5t86.5 57t114 21.5q100 0 186 -84.5t148 -218.5q73 129 167 210t192 81q138 0 208 -83t70 -218q0 -144 -101.5 -326.5t-234.5 -310.5q39 -137 39 -268q0 -71 -12 -132.5t-40 -116.5t-71 -93.5t-108.5 -61t-149.5 -22.5 q-77 0 -139 25t-101.5 66t-66.5 98.5t-38 119.5t-11 131q0 123 37 242q-111 115 -195 290t-84 324zM27 1198q0 -148 93.5 -323.5t203.5 -262.5q-27 -58 -42 -136q-13 -61 -13 -126q0 -17 1 -34q4 -84 28 -154.5t82.5 -116t145.5 -45.5q70 0 123 21.5t84.5 58.5t50 87.5 t22.5 106.5q3 25 3 52q0 32 -3 66q-6 63 -18.5 121t-31.5 114q130 107 240 287t110 319q0 91 -45 147t-135 56q-59 0 -120 -46.5t-109.5 -119.5t-86 -155.5t-57.5 -160.5q-14 84 -42.5 169t-69 159t-95.5 120t-113 46q-68 0 -117 -41t-69 -95.5t-20 -113.5z" />
<glyph unicode="Z" horiz-adv-x="1110" d="M-41 256q0 131 86 302t221 345q-274 51 -274 320q0 77 52.5 137.5t140.5 97t193.5 55.5t219.5 19q252 0 399.5 -73.5t147.5 -207.5q0 -148 -94.5 -345t-233.5 -380q73 -12 132 -36t105 -61.5t71.5 -93.5t25.5 -126q0 -107 -89 -191t-225.5 -126t-289.5 -42 q-97 0 -186.5 18t-167.5 53.5t-135.5 94t-82.5 134.5l2 -3q-18 53 -18 109zM57 256q0 -39 13 -76q38 -115 171 -173t306 -58q128 0 242.5 30.5t189 91t74.5 138.5q0 62 -31 107.5t-86 72t-122.5 39t-147.5 12.5h-48q164 178 296.5 412t132.5 399q0 88 -121 135.5t-328 47.5 q-130 0 -242 -21.5t-189 -71t-77 -118.5q0 -64 25 -111t69 -72.5t96.5 -37t116.5 -11.5q24 0 74 4q-170 -189 -292 -392t-122 -347z" />
<glyph unicode="[" horiz-adv-x="684" d="M-41 754q0 187 10.5 319t38.5 222t61 142t94 79.5t120 35t155 7.5q137 0 212 -65t75 -194q0 -98 -53 -158t-133 -85q16 -170 16 -395q0 -246 -18 -410q76 -29 127 -90t51 -148q0 -129 -77.5 -194.5t-242.5 -65.5q-122 0 -204 53.5t-134.5 175.5t-75 308.5t-22.5 462.5z M57 754q0 -332 32.5 -526t106 -284.5t199.5 -90.5q221 0 221 161q0 53 -33.5 91.5t-75 54.5t-81.5 16q31 146 31 486q0 342 -31 481q80 0 140.5 38t60.5 119q0 80 -49.5 120t-139.5 40q-50 0 -85 -2.5t-72.5 -11t-62.5 -24t-50.5 -41t-41.5 -63.5t-30.5 -90t-22 -121 t-12 -156t-4.5 -197z" />
<glyph unicode="\" horiz-adv-x="843" d="M-61 1317q0 106 49.5 161.5t148.5 55.5q126 0 240 -179t285 -636q147 -393 197 -545.5t50 -239.5q0 -95 -51.5 -152.5t-148.5 -57.5q-135 0 -260.5 200t-286.5 633q-119 322 -171 491t-52 269zM37 1317q0 -89 50 -249t167 -476q145 -397 251 -583.5t204 -186.5 q50 0 76 30.5t26 81.5q0 107 -205 651q-8 21 -12.5 33t-11.5 31t-13 35q-160 424 -253 588t-179 164q-100 0 -100 -119z" />
<glyph unicode="]" horiz-adv-x="684" d="M-41 1300q0 129 75 194t212 65q96 0 155 -7.5t120 -35t94 -79.5t61 -142t38.5 -222t10.5 -319q0 -276 -22.5 -462.5t-75 -308.5t-134.5 -175.5t-204 -53.5q-165 0 -242.5 65.5t-77.5 194.5q0 87 50.5 148t125.5 90q-16 145 -16 410q0 254 16 395q-80 25 -133 85t-53 158z M57 1300q0 -79 58 -119t125 -40q3 0 9 1t9 1q-31 -139 -31 -481q0 -340 31 -486q-40 0 -81.5 -16t-75 -54.5t-33.5 -91.5q0 -161 221 -161q126 0 199.5 90.5t106 284.5t32.5 526q0 110 -4.5 197t-12 156t-22 121t-30.5 90t-41.5 63.5t-50.5 41t-62.5 24t-72.5 11t-85 2.5 q-90 0 -139.5 -40t-49.5 -120z" />
<glyph unicode="^" horiz-adv-x="806" d="M-41 938q0 67 24.5 151t68 166t98.5 150.5t122 111t131 42.5q106 0 212.5 -108t169.5 -252t63 -259q0 -108 -48.5 -170.5t-148.5 -62.5q-162 0 -254 161q-102 -157 -245 -157q-96 0 -144.5 61.5t-48.5 165.5zM57 938q0 -60 23.5 -94.5t71.5 -34.5q62 0 115 52t86 127 t53 167q11 -69 29.5 -128t47.5 -111t72 -81.5t96 -29.5q99 0 99 135q0 96 -49 217.5t-132 212t-166 90.5q-62 0 -127 -55t-112 -135t-77 -170.5t-30 -161.5z" />
<glyph unicode="_" horiz-adv-x="751" d="M-102 -246q0 167 112.5 239.5t349.5 72.5q78 0 146.5 -8.5t134.5 -30t113 -55t75.5 -88t28.5 -124.5q0 -78 -36.5 -137t-101 -94.5t-148 -53.5t-183.5 -18q-258 0 -374.5 72t-116.5 225zM-4 -246q0 -102 94 -150t299 -48q164 0 267.5 51t103.5 153q0 59 -34 101 t-93.5 64.5t-126 32t-146.5 9.5q-187 0 -275.5 -49t-88.5 -164z" />
<glyph unicode="`" horiz-adv-x="684" d="M-41 1286q0 89 57.5 150t153.5 61q55 0 146.5 -24.5t183.5 -64t158.5 -97t66.5 -115.5q0 -82 -59 -120t-189 -38q-113 0 -203.5 13t-163 41.5t-112 77.5t-39.5 116zM57 1286q0 -78 114.5 -113.5t305.5 -35.5q150 0 150 59q0 51 -91 100.5t-196.5 76t-169.5 26.5 q-51 0 -82 -33t-31 -80z" />
<glyph unicode="a" horiz-adv-x="1167" d="M-41 510q0 273 144 437.5t393 164.5q141 0 243 -63q69 63 160 63q54 0 96 -13t82.5 -51t67.5 -100t43 -165.5t16 -243.5q0 -181 -23 -308t-67 -197.5t-99 -101t-128 -30.5q-84 0 -152 55q-105 -55 -266 -55q-106 0 -197.5 39t-162 113t-110.5 191.5t-40 264.5zM57 510 q0 -123 32.5 -221.5t89 -161t131 -95t159.5 -32.5q110 0 182.5 26t102.5 66q15 -39 53 -65.5t80 -26.5q50 0 88 26t68.5 85.5t46.5 167t16 260.5q0 116 -11 201.5t-29 137.5t-45.5 83t-56 42t-65.5 11q-48 0 -87 -32.5t-56 -88.5q-75 121 -260 121q-203 0 -321 -138 t-118 -366zM442 532q0 43 30 75t85 32q44 0 72 -36.5t28 -82.5q0 -42 -26 -71t-78 -29q-51 0 -81 33.5t-30 78.5zM541 530q0 -12 12 -12q10 0 10 10q0 13 -12 13q-10 0 -10 -11z" />
<glyph unicode="b" horiz-adv-x="1187" d="M-39 719q0 204 16 350.5t43.5 234.5t72.5 139t93.5 68t116.5 17q58 0 102.5 -20t74 -55.5t50 -90t31.5 -116t17 -142.5q82 20 149 20q105 0 194 -37.5t158 -110t108.5 -191.5t39.5 -271q0 -290 -132.5 -452t-355.5 -162q-144 0 -260 69q-74 -71 -190 -71q-78 0 -137 43.5 t-102.5 139t-66 255.5t-22.5 383zM59 719q0 -261 29 -424.5t78.5 -231t122.5 -67.5q122 0 172 117q38 -49 114.5 -82t163.5 -33q178 0 283.5 136t105.5 380q0 128 -31.5 227t-86.5 160.5t-127 93t-156 31.5q-66 0 -131 -17.5t-109 -47.5q-3 78 -7.5 133t-12.5 112.5t-21 95 t-32.5 68.5t-47 45.5t-63.5 14.5q-49 0 -83.5 -15t-66.5 -59.5t-51.5 -122.5t-31 -206t-11.5 -308zM520 518q0 42 32.5 73.5t84.5 31.5q44 0 70 -37t26 -84q0 -41 -27 -68.5t-81 -27.5q-48 0 -76.5 34t-28.5 78zM618 516q0 -10 11 -10q10 0 10 10t-10 10q-4 0 -7.5 -3.5 t-3.5 -6.5z" />
<glyph unicode="c" horiz-adv-x="958" d="M-41 508q0 148 49.5 268t133.5 195t190.5 115t224.5 40q109 0 203 -33t155.5 -102t61.5 -162q0 -69 -21.5 -122.5t-53 -84t-74 -49.5t-78.5 -25.5t-72 -6.5q-12 0 -47 7.5t-54.5 5t-19.5 -23.5q0 -19 9.5 -27.5t25.5 -7.5t32.5 3.5t36.5 7t31 4.5q307 0 307 -293 q0 -153 -122.5 -234t-331.5 -81q-283 0 -434.5 160t-151.5 446zM57 508q0 -239 126.5 -373.5t361.5 -134.5q164 0 260 56t96 161q0 195 -209 195q-20 0 -63 -7.5t-62 -7.5q-51 0 -79.5 29.5t-28.5 103.5q0 125 96 126q24 0 63 -8.5t60 -8.5q32 0 62.5 8t64 26.5t54 59 t20.5 96.5q0 92 -95.5 145.5t-226.5 53.5q-99 0 -188 -34t-159 -97t-111.5 -164t-41.5 -225z" />
<glyph unicode="d" horiz-adv-x="1224" d="M-41 502q0 271 154.5 440.5t392.5 169.5q82 0 137 -14q3 94 11 162t27 130t49.5 100.5t79.5 60.5t116 22q185 0 262.5 -222t77.5 -696q0 -226 -18.5 -373t-60.5 -231t-100 -116.5t-147 -32.5q-61 0 -100.5 17t-71.5 52q-109 -69 -268 -69q-262 0 -401.5 162t-139.5 438z M57 502q0 -230 114 -366t329 -136q202 0 284 121q39 -66 70 -93.5t86 -27.5q83 0 130 53.5t72 197.5t25 404q0 423 -55 621.5t-186 198.5q-37 0 -65.5 -13t-48.5 -33.5t-33.5 -59t-21.5 -76.5t-12 -100t-5 -115.5t-1 -135.5q-84 72 -233 72q-195 0 -322 -142.5t-127 -369.5z M471 512q0 43 30 76t81 33q50 0 79 -33.5t29 -77.5q0 -43 -28 -73.5t-80 -30.5t-81.5 31.5t-29.5 74.5zM569 512q0 -10 13 -10q10 0 10 8q0 12 -10 12q-13 0 -13 -10z" />
<glyph unicode="e" horiz-adv-x="989" d="M-45 504q0 123 32 226t85 173.5t123 120t145 72t152 22.5q137 0 242 -34.5t169.5 -97.5t96.5 -147t32 -186q0 -125 -82 -204q82 -67 82 -191q0 -72 -30.5 -137t-89.5 -118t-157.5 -84.5t-224.5 -31.5q-271 0 -423 167t-152 450zM53 504q0 -238 126 -378t351 -140 q102 0 181.5 23t126.5 62t71.5 86.5t24.5 100.5q0 62 -34 99.5t-95 37.5q-45 0 -111 -35.5t-108 -35.5q-70 0 -111 34q-28 24 -28 61q0 17 6 38q67 -15 133 -17h25q54 0 105 9q63 11 111.5 35t77.5 67.5t29 101.5q0 167 -110.5 267t-331.5 100q-80 0 -155.5 -31.5t-140 -92 t-104 -162.5t-39.5 -230zM479 682q0 31 19 53.5t53 22.5q37 0 57.5 -22.5t20.5 -55.5q0 -31 -19 -53.5t-53 -22.5q-37 0 -57.5 23t-20.5 55zM539 680q0 -14 14 -14t14 14t-14 14t-14 -14z" />
<glyph unicode="f" horiz-adv-x="772" d="M-59 885q0 70 31.5 130t93.5 91q19 219 124.5 341t288.5 122q184 0 283.5 -94t99.5 -222q0 -135 -84 -198q64 -64 64 -197q0 -111 -43 -166.5t-129 -73.5q5 -69 5 -134q0 -123 -18 -228q-27 -160 -99 -257t-181 -97q-55 0 -98 9.5t-76.5 33t-57.5 54t-41 82t-27 106 t-16 136.5t-8 164.5t-2 198.5q-110 66 -110 199zM39 885q0 -94 111 -135q0 -114 0.5 -189t4 -156.5t10 -131.5t18 -101t28 -79t40 -51.5t54.5 -32.5t72 -9q195 0 195 497q0 96 -7 210q95 3 136.5 34t41.5 117q0 87 -45.5 129.5t-152.5 46.5q0 2 -1 13.5t-2 21.5t-3.5 23.5 t-6.5 27t-10 25.5q15 -18 52 -26.5t67 -8.5q60 0 91.5 40.5t31.5 102.5q0 88 -74 152.5t-211 64.5q-151 0 -233.5 -117.5t-85.5 -324.5q-63 -7 -92 -46.5t-29 -96.5z" />
<glyph unicode="g" horiz-adv-x="1212" d="M-41 510q0 148 43 264.5t118.5 189.5t173 110.5t210.5 37.5q123 0 231 -53q33 36 78.5 49.5t114.5 13.5q40 0 70 -5t63 -18.5t56 -40t46.5 -68.5t38.5 -105.5t27.5 -148t18 -199t5.5 -256.5q0 -124 -14 -228.5t-37.5 -184t-60 -143.5t-76 -108.5t-90.5 -78t-100 -53 t-107.5 -31t-108.5 -15.5t-108 -4q-128 0 -235 35.5t-176 94t-106.5 132.5t-37.5 153q0 70 31.5 129.5t87.5 96.5q-156 147 -156 434zM57 510q0 -225 117 -346t344 -121q88 0 157 29.5t109 74.5q0 -233 -252 -233q-39 0 -66.5 10.5t-45 26t-36 31t-49.5 26t-75 10.5 q-73 0 -119.5 -49t-46.5 -119q0 -128 124.5 -222.5t332.5 -94.5q50 0 93 3.5t93.5 14t92 27.5t85.5 46.5t78.5 69t65.5 96t51.5 126.5t32.5 163t12 202q0 143 -6 254.5t-15.5 189.5t-26 133t-33.5 87t-42.5 50t-48.5 23.5t-55 5.5q-126 0 -164 -102q-100 92 -260 92 q-93 0 -173 -31.5t-141.5 -92.5t-97 -158.5t-35.5 -221.5zM496 489q0 45 29 77t81 32q42 0 69 -34.5t27 -78.5q0 -42 -25.5 -71t-76.5 -29q-49 0 -76.5 31t-27.5 73zM594 492q0 -9 8 -9t8 9q0 8 -8 8t-8 -8z" />
<glyph unicode="h" horiz-adv-x="1148" d="M-41 668q0 480 80.5 689.5t269.5 209.5q141 0 213 -121t78 -346q44 12 96 12q73 0 138 -16.5t132 -63t115 -119t78.5 -193.5t30.5 -278q0 -200 -32 -319.5t-94 -170t-163 -50.5q-73 0 -128.5 18.5t-89.5 48.5t-57 75t-33 90t-15 102q-5 -59 -14.5 -104t-29.5 -90.5 t-49.5 -75t-77.5 -48t-112 -18.5q-123 0 -193.5 64t-106.5 232t-36 472zM57 668q0 -265 26 -412t75.5 -202.5t136.5 -55.5q65 0 106 35.5t57 92t23 124.5t9.5 136.5t10 125t32 92t69.5 35.5q36 0 52 -35q16 -36 18 -92q1 -28 1 -59q-1 -31 -1 -65v-26q0 -54 6 -110 q6 -68 25 -125t69 -92t129 -35q66 0 107 41.5t62.5 139.5t21.5 261q0 134 -24.5 237.5t-63 165.5t-92.5 101t-106 53.5t-110 14.5q-120 0 -198 -78q5 70 5 131q0 159 -34 261q-47 140 -160 140q-136 0 -194 -187t-58 -613z" />
<glyph unicode="i" horiz-adv-x="577" d="M-37 543q0 362 117 473q-90 93 -90 223q0 122 78.5 209.5t220.5 87.5q78 0 139 -25t97.5 -67.5t55.5 -94.5t19 -110q0 -150 -104 -238q118 -127 118 -436q0 -252 -33.5 -397.5t-101 -205.5t-182.5 -60q-167 0 -250.5 153.5t-83.5 487.5zM61 543q0 -283 59 -413t177 -130 q79 0 126 51.5t70 175.5t23 338q0 424 -227 424q-82 0 -131 -42t-73 -139.5t-24 -264.5zM88 1239q0 -83 56.5 -147t148.5 -64q98 0 153.5 63t55.5 148q0 82 -54.5 140.5t-158.5 58.5q-96 0 -148.5 -59t-52.5 -140z" />
<glyph unicode="j" horiz-adv-x="600" d="M-309 -244q0 85 46.5 149t116.5 93q61 25 126 25h18q-25 193 -25 448q0 415 115 545q-86 83 -86 213q0 99 43.5 169t108 101t141.5 31q79 0 148.5 -33.5t115 -104t45.5 -163.5q0 -143 -90 -223q127 -148 127 -578q0 -213 -14 -369t-48 -283t-91 -204.5t-142.5 -118.5 t-202.5 -41q-196 0 -324 92.5t-128 251.5zM-211 -244q0 -114 100 -179.5t254 -65.5q94 0 162.5 37t114.5 107t73 184t38.5 255.5t11.5 333.5q0 151 -16 259.5t-39 166.5t-60.5 90.5t-68.5 40.5t-74 8q-115 0 -164 -116t-49 -406q0 -140 11.5 -304.5t35.5 -275.5 q-78 33 -146 33t-126 -55t-58 -113zM100 1229q0 -94 65.5 -146.5t147.5 -52.5t137.5 53t55.5 146t-63.5 148t-147.5 55q-80 0 -137.5 -52.5t-57.5 -150.5z" />
<glyph unicode="k" horiz-adv-x="1026" d="M-43 698q0 266 17 435t57.5 267.5t98.5 135.5t149 37q144 0 215.5 -126.5t83.5 -399.5q118 73 239 73q113 0 186.5 -63.5t73.5 -184.5q0 -95 -56.5 -172.5t-158.5 -148.5q97 -82 162.5 -189.5t65.5 -203.5q0 -107 -85.5 -181.5t-199.5 -74.5q-150 0 -289 157 q-38 -77 -101.5 -117t-142.5 -40q-78 0 -133 36t-97.5 123.5t-63.5 245.5t-21 391zM55 698q0 -204 14.5 -342.5t44 -215.5t67.5 -108.5t91 -31.5q84 0 138.5 76t60.5 217q35 -59 67.5 -104t75.5 -91.5t92 -72t99 -25.5q75 0 130.5 46t55.5 112q0 108 -96.5 224t-212.5 171 q297 172 297 319q0 73 -46 111.5t-116 38.5q-93 0 -187.5 -58t-148.5 -149q1 51 1 98q0 273 -40 406q-46 156 -163 156q-85 0 -131.5 -63.5t-69.5 -232t-23 -481.5z" />
<glyph unicode="l" horiz-adv-x="616" d="M-33 737q0 135 6 240.5t20 202.5t39 165.5t62 120t89 76.5t120 25q95 0 161.5 -63t102 -179t51 -253.5t15.5 -313.5q0 -211 -13.5 -362t-37 -246.5t-63.5 -151t-86 -76t-111 -20.5q-85 0 -148.5 42.5t-111 137.5t-71.5 259t-24 396zM66 737q0 -205 17.5 -349.5 t51.5 -228.5t80 -121.5t107 -37.5q56 0 92.5 30.5t65.5 112t42 232.5t13 383q0 710 -232 710q-58 0 -99.5 -33.5t-68 -92.5t-42 -153t-21.5 -201t-6 -251z" />
<glyph unicode="m" horiz-adv-x="1497" d="M-41 508q0 320 65.5 462t202.5 142q99 0 152 -53q79 53 196 53q153 0 254 -98q105 98 261 98q97 0 177.5 -38.5t141.5 -116.5t95 -206t34 -296q0 -139 -13.5 -239t-35.5 -160t-57.5 -95t-73 -47t-88.5 -12q-180 0 -248 137q-63 -137 -231 -137q-178 0 -248 161 q-67 -161 -258 -161q-151 0 -238.5 158.5t-87.5 447.5zM57 508q0 -243 61 -375.5t167 -132.5q65 0 107.5 32.5t60.5 84.5t26 115t8 126t2 115t14 84.5t38 32.5q17 0 25 -32.5t11.5 -84.5t6.5 -115t14.5 -126t31.5 -115t61.5 -84.5t99.5 -32.5q60 0 98.5 33t54.5 85 t23.5 115.5t8.5 127t4.5 115.5t18 85t43.5 33q35 0 34 -107q0 -22 -1.5 -75.5t-1.5 -83.5q0 -54 3.5 -95.5t16 -87.5t33 -76t57.5 -49.5t87 -19.5q40 0 68.5 17t53 63.5t36.5 140t12 234.5q0 280 -96 419.5t-254 139.5q-98 0 -165 -49t-96 -121q-31 73 -95.5 121.5 t-158.5 48.5q-88 0 -142.5 -38.5t-74.5 -94.5q-27 133 -131 133q-87 0 -128.5 -119t-41.5 -387z" />
<glyph unicode="n" horiz-adv-x="1107" d="M-35 471q0 160 14 275.5t37 184.5t60.5 109t76 53t91.5 13q103 0 168 -62q115 68 233 68q168 0 282.5 -83t168 -227.5t53.5 -342.5q0 -299 -76.5 -428t-247.5 -129q-67 0 -116 19t-78 55t-44.5 78.5t-21.5 99.5q-9 -55 -27 -97.5t-49.5 -79t-83 -56t-120.5 -19.5 q-62 0 -110 17.5t-88.5 59t-66.5 106.5t-40.5 162t-14.5 224zM63 471q0 -131 15 -223.5t45 -146t69.5 -77.5t92.5 -24q70 0 113 32.5t58.5 85t20 115.5t4.5 126t5 115.5t28 85t68 32.5q39 0 58 -32q18 -34 20 -86q1 -21 1 -43q0 -34 -2 -72t-2 -76q0 -25 1 -50 q2 -63 14.5 -115.5t50.5 -85t102 -32.5q119 0 172.5 106.5t53.5 352.5q0 256 -102.5 405.5t-303.5 149.5q-87 0 -161 -39t-99 -96q-10 65 -47.5 97t-93.5 32q-43 0 -73 -19.5t-56 -74t-39 -165t-13 -278.5z" />
<glyph unicode="o" horiz-adv-x="1073" d="M-43 520q0 147 44 263.5t123 190t183 112t228 38.5q273 0 428 -150.5t155 -455.5q0 -292 -152.5 -460.5t-418.5 -168.5q-275 0 -432.5 163.5t-157.5 467.5zM55 520q0 -257 131 -394.5t361 -137.5q221 0 347 142t126 388q0 256 -129 382t-356 126q-102 0 -189 -32 t-152 -93.5t-102 -159t-37 -221.5zM444 561q0 43 27 75t74 32q50 0 75 -33t25 -78q0 -43 -25.5 -74.5t-72.5 -31.5q-48 0 -75.5 32.5t-27.5 77.5zM535 559q0 -10 10 -10q12 0 12 10q0 5 -3.5 8.5t-8.5 3.5q-10 0 -10 -12z" />
<glyph unicode="p" horiz-adv-x="1181" d="M-41 401q0 259 39 418.5t109.5 226t179.5 66.5q100 0 170 -59q105 59 227 59q109 0 209.5 -41t179 -116.5t125.5 -192.5t47 -258q0 -126 -32 -229t-85 -171t-123.5 -114.5t-144.5 -67t-151 -20.5q-45 0 -86 6v-6q0 -78 -6.5 -141.5t-25.5 -127.5t-50.5 -107t-84 -70 t-122.5 -27q-198 0 -286.5 233t-88.5 739zM57 401q0 -455 65 -664.5t212 -209.5q43 0 75.5 18.5t53 46.5t33.5 74.5t19 88t7 102.5q1 31 1 56.5t-1 46.5q-1 41 -4 101q56 -61 191 -61q80 0 155 29t139.5 86.5t104 158t39.5 230.5q0 118 -38.5 216.5t-103.5 161.5t-148 97.5 t-173 34.5q-54 0 -104.5 -15.5t-78 -32t-65.5 -44.5q-52 92 -149 92q-76 0 -125.5 -57.5t-77 -195t-27.5 -360.5zM543 528q0 40 25.5 69.5t72.5 29.5q41 0 63.5 -27t22.5 -65q0 -40 -25.5 -70.5t-68.5 -30.5q-42 0 -66 28t-24 66zM621 530q0 -4 3.5 -8t8.5 -4t8.5 4t3.5 8 q0 5 -4 9t-8 4t-8 -4t-4 -9z" />
<glyph unicode="q" horiz-adv-x="1261" d="M-41 489q0 152 46.5 272.5t127 196t184.5 115t224 39.5q167 0 282 -74q74 74 178 74q152 0 225.5 -187.5t73.5 -584.5q0 -120 -1 -192.5t-8 -182t-19.5 -177t-37 -146t-59.5 -122.5t-88.5 -74t-121.5 -30q-57 0 -107 15.5t-96.5 51.5t-79.5 91t-52.5 139.5t-19.5 190.5v2 q-46 -4 -71 -4q-267 0 -423.5 153.5t-156.5 433.5zM57 489q0 -233 130 -361t352 -128q97 0 176 27q-7 -66 -7 -124q0 -64 8 -118q16 -103 54.5 -160t87 -83.5t107.5 -26.5q43 0 78 18t59 60t42 83t28.5 115.5t17 126.5t9 147t3 146.5t0.5 154.5v33q0 615 -201 615 q-104 0 -161 -121q-41 53 -116 87t-183 34q-100 0 -186.5 -33.5t-153.5 -97t-105.5 -165t-38.5 -229.5zM498 508q0 43 28.5 75.5t79.5 32.5q42 0 67 -30.5t25 -71.5q0 -42 -26 -74t-70 -32q-51 0 -77.5 29t-26.5 71zM590 512q0 -4 4 -8t8 -4t8 4t4 8t-4 8t-8 4t-8 -4t-4 -8z " />
<glyph unicode="r" horiz-adv-x="960" d="M-41 567q0 145 28.5 253.5t79 170.5t111.5 91.5t133 29.5q118 0 195 -74q95 68 213 68q122 0 202 -72.5t80 -224.5q1 -161 -91 -259q-77 -82 -210 -82q-26 0 -53 3v-45q0 -42 -1 -80q-2 -56 -9.5 -117t-22 -107t-39 -89t-58 -70.5t-81.5 -44t-108 -16.5q-120 0 -204 86 t-124.5 233.5t-40.5 345.5zM57 567q0 -257 70 -412t201 -155q66 0 111 31t68 91t32.5 129.5t9.5 164.5q0 123 -14 200q7 -3 26.5 -13.5t28.5 -14.5t26 -10t34.5 -8.5t37.5 -2.5q110 0 162.5 67.5t52.5 174.5q0 102 -52.5 150.5t-131.5 48.5q-146 0 -232 -140 q-11 65 -57.5 105.5t-118.5 40.5q-111 0 -182.5 -108t-71.5 -339z" />
<glyph unicode="s" horiz-adv-x="880" d="M-51 266q0 71 29.5 131.5t80.5 94.5q-73 93 -73 235q0 81 28.5 151t85.5 126.5t152.5 89t220.5 32.5q103 0 197 -36.5t154.5 -105.5t60.5 -153q0 -122 -74 -196q115 -99 115 -316q0 -213 -128 -321.5t-347 -108.5q-140 0 -252 41t-181 128t-69 208zM47 266 q0 -89 55.5 -153t145.5 -94.5t203 -30.5q173 0 274.5 83.5t101.5 247.5q0 75 -17.5 131t-46 87.5t-63 53t-68.5 32t-62.5 19t-46 20.5t-17.5 30q0 14 10.5 25.5t26.5 12.5q21 0 63.5 -26t79.5 -26q43 0 71.5 45.5t28.5 107.5q0 56 -46 102t-117 70.5t-150 24.5 q-99 0 -175.5 -24.5t-122 -67t-68.5 -95.5t-23 -114q0 -70 26 -123t65 -81.5t84 -50t84 -32t65 -24.5t26 -31q0 -39 -53 -39q-34 0 -63 13t-45.5 29t-40.5 29t-50 13q-60 0 -97.5 -48t-37.5 -116z" />
<glyph unicode="t" horiz-adv-x="854" d="M-63 864q0 94 37.5 149.5t117.5 73.5q13 203 96 294.5t218 91.5t211 -89t79 -276q117 -17 160 -78.5t43 -167.5q0 -100 -50.5 -171t-154.5 -95q0 -65 -4 -147q91 -12 149 -81t58 -171q0 -61 -19 -112t-62 -95.5t-124 -70t-194 -25.5q-79 0 -141 20.5t-116.5 71.5 t-91 133.5t-57 212t-20.5 301.5q-62 29 -98.5 89t-36.5 142zM35 864q0 -69 39.5 -111t97.5 -42q-2 -54 -2 -103q0 -102 8 -188q12 -126 39.5 -206.5t71 -131t94 -70.5t115.5 -20q85 0 146 17t93.5 47.5t47 65t14.5 75.5q0 69 -41.5 112t-102.5 43q-44 0 -86 -22 q18 36 24 137q3 55 3 115q0 50 -2 102q106 0 156.5 49t50.5 129q0 38 -8 64t-29.5 48t-64 33t-105.5 11q4 44 4 82q0 122 -39 188q-51 86 -153 86q-101 0 -159.5 -89t-58.5 -284q-72 0 -112.5 -35.5t-40.5 -101.5z" />
<glyph unicode="u" horiz-adv-x="1083" d="M-43 506q0 322 84 464t266 142q223 0 254 -229q21 107 82 168t188 61q74 0 125 -25t84 -72t51.5 -130t25.5 -182.5t7 -245.5q0 -214 -29 -338t-80 -170.5t-134 -46.5q-120 0 -179 65q-100 -65 -256 -65q-105 0 -192.5 36t-154.5 108t-104.5 189.5t-37.5 270.5zM55 506 q0 -252 108.5 -379t282.5 -127q193 0 283 129q26 -129 152 -129q50 0 80 38.5t47.5 140.5t17.5 278q0 103 -3 177t-11 140t-22 108t-35.5 73.5t-52 45t-71.5 13.5q-68 0 -109 -33t-55 -85.5t-18.5 -116.5t-5.5 -128t-10 -116.5t-38 -85.5t-81 -33q-40 0 -58 27 q-18 26 -18 71t8 96q6 47 14.5 104.5t8.5 88.5q0 211 -162 211q-131 0 -191.5 -119t-60.5 -389z" />
<glyph unicode="v" horiz-adv-x="1079" d="M-49 756q0 169 70.5 268.5t214.5 99.5q229 0 329 -295q151 271 291 271q86 0 150 -47.5t95.5 -122t31.5 -162.5q0 -83 -24.5 -181t-66 -193t-100 -184.5t-123 -157.5t-139.5 -109t-145 -41q-80 0 -157.5 39.5t-140.5 105.5t-117.5 153t-91 181.5t-57 191.5t-20.5 183z M49 756q0 -115 38 -247t101.5 -245.5t156 -188.5t190.5 -75q88 0 180.5 78.5t161 194t113 250.5t44.5 245q0 96 -48 164.5t-130 68.5q-45 0 -95 -50t-93 -130t-77.5 -164.5t-60.5 -167.5q-4 50 -10 97.5t-17.5 102.5t-26.5 102t-38 91t-51.5 75t-67 50t-83.5 19 q-94 0 -140.5 -73.5t-46.5 -196.5z" />
<glyph unicode="w" horiz-adv-x="1437" d="M-47 731q0 77 17 143t52.5 120.5t97.5 86t144 31.5t138.5 -41.5t101.5 -124.5q76 146 215 146q145 0 227 -158q98 182 250 182q76 0 133 -31t90.5 -85.5t49.5 -122.5t16 -148q0 -124 -42 -269.5t-107 -266t-151.5 -201t-166.5 -80.5q-177 0 -299 160q-104 -164 -285 -164 q-102 0 -216 130.5t-189.5 325t-75.5 367.5zM51 731q0 -152 60 -323.5t151 -286.5t172 -115q58 0 105 25t80 70t55 97.5t37 116.5q20 -63 46 -114.5t63 -96t87.5 -69.5t110.5 -25q84 0 171.5 117.5t142 286t54.5 315.5q0 81 -18 144t-62 104t-110 41q-50 0 -95 -38 t-77.5 -103.5t-56 -136.5t-41.5 -152q-12 191 -65 298t-142 107q-162 0 -201 -405q-15 80 -35 149t-50 135t-73.5 104t-95.5 38q-56 0 -98.5 -23.5t-67 -64t-36 -89.5t-11.5 -106z" />
<glyph unicode="x" horiz-adv-x="1003" d="M-43 174q0 85 46.5 187.5t111.5 181.5q-131 161 -131 301q0 120 82.5 202t199.5 82q67 0 132 -36.5t116 -98.5q105 131 240 131q101 0 188.5 -82.5t87.5 -183.5q0 -71 -37 -154.5t-98 -156.5q158 -178 158 -350q0 -67 -35.5 -135.5t-105 -117t-152.5 -48.5 q-145 0 -258 159q-123 -153 -264 -153q-108 0 -194.5 85t-86.5 187zM55 174q0 -65 56.5 -119.5t126.5 -54.5q44 0 87 23.5t77.5 63t59.5 79.5t46 84q118 -256 252 -256q82 0 138 65.5t56 137.5q0 170 -196 350q76 68 125 153t49 158q0 64 -56.5 116t-121.5 52 q-128 0 -246 -223q-33 96 -100.5 161.5t-141.5 65.5q-76 0 -130 -53.5t-54 -132.5q0 -129 166 -303q-60 -51 -126.5 -165.5t-66.5 -201.5z" />
<glyph unicode="y" horiz-adv-x="1136" d="M-41 514q0 311 83 454.5t253 143.5q96 0 163.5 -44.5t100.5 -121.5q57 166 275 166q120 0 192.5 -66.5t110 -229.5t37.5 -443q0 -231 -30.5 -395.5t-101 -283.5t-189 -177t-290.5 -58q-135 0 -242 31t-174 84.5t-102 122t-35 147.5q0 58 25.5 117t73.5 98 q-150 153 -150 455zM57 514q0 -127 31 -223t85 -151.5t121.5 -83t147.5 -27.5q100 0 157 32.5t103 92.5q0 -58 -6.5 -92t-26 -61.5t-56.5 -38.5t-97 -11q-53 0 -91.5 9t-57.5 19.5t-50 19.5t-71 9q-65 0 -101 -52.5t-36 -111.5q0 -123 118 -204.5t336 -81.5 q144 0 243.5 51.5t158.5 157.5t84.5 253t25.5 353q0 243 -26.5 384t-77.5 199t-137 58q-50 0 -87 -14t-58.5 -36t-34.5 -55t-17 -66t-4 -75q0 -20 2.5 -65.5t4.5 -80.5v-24q0 -26 -2 -56q-3 -44 -12.5 -73t-31.5 -49.5t-55 -20.5q-44 0 -64.5 29.5t-20.5 79.5t7 100 t16.5 108.5t9.5 88.5q0 92 -50.5 150.5t-141.5 58.5q-120 0 -179 -120.5t-59 -379.5z" />
<glyph unicode="z" horiz-adv-x="927" d="M-47 184q0 196 170 391q-76 36 -121 104.5t-45 156.5q0 76 39 134.5t106 93t149.5 52t176.5 17.5q131 0 224.5 -14.5t150 -39t89 -65t43.5 -85.5t11 -108q0 -174 -180 -366q95 -33 149 -102.5t54 -166.5q0 -98 -76.5 -169.5t-192 -104.5t-251.5 -33q-140 0 -250 32.5 t-178 103t-68 169.5zM51 184q0 -100 112.5 -153.5t285.5 -53.5q110 0 203.5 22.5t155.5 71t62 115.5q0 106 -98 158q-70 38 -164 37q-37 0 -78 -6q141 107 229.5 223t88.5 223q0 43 -9 73.5t-35.5 58.5t-72.5 44.5t-121.5 26.5t-181.5 10q-100 0 -181.5 -19.5t-136.5 -66 t-55 -112.5q-1 -98 79 -152q73 -50 178 -49h20q-132 -103 -206.5 -219t-74.5 -232z" />
<glyph unicode="{" horiz-adv-x="593" d="M-41 664q0 84 92 165q-57 159 -57 312q0 201 107.5 317.5t281.5 116.5q114 0 180 -75t66 -163q0 -49 -19.5 -93.5t-39 -85t-19.5 -79.5q0 -60 27 -143l-3 2q29 -82 29 -152q0 -75 -57 -135q47 -53 47 -114q0 -41 -24.5 -121.5t-24.5 -128.5q0 -28 6.5 -52.5t12 -35.5 t18.5 -31q18 -28 27.5 -46.5t17.5 -50t8 -69.5q0 -119 -79 -187.5t-200 -68.5q-60 0 -123 31t-117 86.5t-88 142.5t-34 189q0 167 61 303q-96 81 -96 166zM57 664q0 -38 42.5 -76t88.5 -56q-36 -43 -66 -137t-30 -200q0 -79 25 -147.5t64 -111.5t85 -67.5t90 -24.5 q78 0 129.5 42.5t51.5 115.5q0 38 -14 70.5t-31.5 53.5t-31.5 63t-14 98q0 77 25 145t25 105q0 63 -125 118q59 22 97 56.5t38 74.5q0 49 -26.5 129t-26.5 164q0 43 12 79.5t26.5 58t26.5 53.5t12 67q0 52 -39.5 96t-107.5 44q-131 0 -211 -90t-80 -246q0 -87 24 -184.5 t56 -165.5q-41 -15 -78 -53t-37 -74z" />
<glyph unicode="|" horiz-adv-x="604" d="M-20 700q0 161 10 288t30.5 217.5t48.5 154t65.5 100.5t80 53.5t94.5 16.5q81 0 137 -36.5t97 -127.5t60.5 -251.5t19.5 -401.5q0 -225 -16.5 -393.5t-44.5 -273.5t-70 -170t-88 -89.5t-105 -24.5t-106 27.5t-87.5 94t-67.5 172t-42.5 268t-15.5 376.5zM78 700 q0 -238 15.5 -404.5t46 -260t69 -134t90.5 -40.5t90.5 37.5t70 129t48 263.5t16.5 422q0 280 -25.5 440.5t-70.5 219.5t-119 59q-44 0 -78.5 -20.5t-63.5 -71.5t-48.5 -133.5t-30 -209.5t-10.5 -297z" />
<glyph unicode="}" horiz-adv-x="593" d="M-41 2q0 48 14 85.5t31 59t31 58t14 82.5q0 61 -25.5 126t-25.5 124q0 66 47 116q-57 57 -57 133q0 56 27.5 138.5t27.5 154.5q0 44 -39 125.5t-39 132.5q0 40 15.5 81t44.5 76.5t77 58t107 22.5q177 0 283 -116t106 -318q0 -154 -55 -314q92 -81 92 -163 q0 -85 -100 -166q65 -149 65 -303q0 -101 -34.5 -188.5t-88.5 -143t-117.5 -86.5t-123.5 -31q-121 0 -199 68t-78 188zM57 2q0 -73 51 -115.5t128 -42.5q44 0 90 24.5t86 67.5t65 111.5t25 147.5q0 106 -31 200.5t-68 136.5q47 18 90.5 56t43.5 76q0 36 -37 74t-78 53 q31 69 54.5 166.5t23.5 183.5q0 156 -79.5 246t-211.5 90q-68 0 -107 -44t-39 -96q0 -44 19.5 -81.5t39 -80t19.5 -96.5q0 -84 -27.5 -164t-27.5 -129q0 -40 38.5 -74.5t96.5 -56.5q-125 -55 -125 -118q0 -37 25.5 -105t25.5 -145q0 -56 -14 -98t-31 -63t-31 -53.5 t-14 -70.5z" />
<glyph unicode="~" horiz-adv-x="1069" d="M-41 766q0 96 58 182.5t148 136.5t183 50q54 0 102 -11.5t72.5 -22.5t61.5 -32q45 -25 69 -25q1 0 31 15q96 55 197 55q117 0 173 -72.5t56 -177.5q0 -46 -26.5 -102.5t-74.5 -111t-128.5 -91.5t-175.5 -37q-54 0 -101 11.5t-70 22.5t-59 32h2q-54 28 -74 28 q-19 0 -51 -24q-2 -1 -12 -8.5t-13 -9.5t-12.5 -8t-14 -8.5t-14.5 -7.5t-16.5 -7t-17 -5t-20 -4.5t-21.5 -2.5t-25 -1q-99 0 -163 68t-64 168zM57 766q0 -58 36.5 -97.5t92.5 -39.5q34 0 62.5 13.5t45.5 29.5t45.5 29.5t63.5 13.5q37 0 72 -14.5t60 -32.5t70 -32.5 t100 -14.5q72 0 133 26t97.5 65t56.5 79t20 73q0 64 -32 108t-99 44q-50 0 -94 -17.5t-77 -35t-57 -17.5q-35 0 -69.5 14t-60.5 31t-72.5 31t-102.5 14q-108 0 -199.5 -82t-91.5 -188z" />
<glyph unicode="&#xa1;" horiz-adv-x="641" d="M-41 422q0 371 158 516q-55 48 -84 118t-29 146q0 64 21.5 123t62.5 106.5t107.5 76t148.5 28.5q81 0 146 -28.5t105 -76t61.5 -106.5t21.5 -123q0 -80 -32.5 -153t-92.5 -121q129 -135 129 -498q0 -151 -25 -254.5t-75.5 -161.5t-115.5 -82t-155 -24q-73 0 -126.5 14 t-97.5 49t-71.5 93t-42 147t-14.5 211zM57 422q0 -123 15.5 -205t49 -128t78.5 -64.5t111 -18.5t114 19.5t85 66.5t55.5 131t18.5 207q0 139 -18.5 236t-54.5 151t-81 77.5t-106 23.5q-121 0 -194 -124t-73 -372zM102 1202q0 -98 65 -171t177 -73q111 0 173.5 73t62.5 171 q0 97 -62 166.5t-174 69.5q-115 0 -178.5 -69.5t-63.5 -166.5z" />
<glyph unicode="&#xa2;" horiz-adv-x="958" d="M-41 721q0 200 101.5 351t263.5 220q10 136 67 190t162 54q104 0 156.5 -51t62.5 -182q94 -37 149.5 -104t55.5 -157q0 -69 -21.5 -122.5t-53.5 -84.5t-74.5 -50.5t-79 -26t-72.5 -6.5q-17 0 -52.5 5t-51 2.5t-15.5 -18.5q0 -18 25 -21t61 1t47 2q309 0 309 -295 q0 -100 -57.5 -170t-161.5 -108q-15 -126 -74 -190t-147 -64q-94 0 -150.5 56t-70.5 191q-185 55 -282 204.5t-97 373.5zM57 721q0 -209 96 -339.5t279 -160.5q1 -125 34 -176t93 -51q57 0 92.5 58t36.5 173q100 22 156.5 74t56.5 129q0 197 -211 197q-20 0 -57 -2t-53 -2 q-60 0 -90.5 28t-30.5 92q0 119 102 119q10 0 49.5 -5t65.5 -5q32 0 63 8t64.5 27.5t54.5 60t21 96.5q0 69 -56 117.5t-147 69.5q0 121 -29 165t-94 44q-67 0 -100 -46.5t-33 -168.5q-157 -46 -260 -180.5t-103 -321.5z" />
<glyph unicode="&#xa3;" horiz-adv-x="1101" d="M-41 166q0 155 129 244q-11 47 -22 137q-107 52 -107 170q0 117 90 180q3 109 21 198.5t47 155t71 115t90 81.5t108 51.5t121.5 27.5t133.5 8q189 0 306.5 -97.5t117.5 -224.5q0 -93 -50 -175.5t-134 -121.5q104 -59 104 -178q0 -72 -22.5 -118t-77.5 -74q72 -16 126 -52 t84 -86t44 -104.5t14 -114.5q0 -70 -26 -125.5t-65.5 -87t-81.5 -47.5t-81 -16q-44 0 -119 14q-98 15 -131 15q-48 0 -172 -21q-16 -2 -51 -7.5t-55 -8.5t-48 -5.5t-49 -2.5q-134 0 -224.5 71.5t-90.5 198.5zM57 166q0 -81 62 -126.5t155 -45.5q58 0 186.5 22.5t188.5 22.5 q54 0 137 -14.5t113 -14.5q54 0 105 46t51 132q0 51 -14.5 97t-45.5 86.5t-87 64t-132 23.5q-38 0 -103 -7t-108 -22q4 47 4 162q184 4 251 36t67 109q0 148 -320 135q0 84 -6 158q81 -43 191 -43q94 0 154.5 68t60.5 157q0 88 -90.5 156t-235.5 68q-73 0 -133 -11 t-117.5 -36.5t-100.5 -70.5t-76 -110t-50 -158.5t-17 -211.5q-90 -38 -90 -121q0 -72 101 -99q12 -144 45 -260q-52 -13 -99 -63.5t-47 -128.5z" />
<glyph unicode="&#xa7;" horiz-adv-x="825" d="M-76 694q0 150 107 246q-64 82 -64 193q0 80 28 150.5t83 128.5t149.5 92t216.5 34q100 0 193 -39.5t152 -110.5t59 -153q0 -51 -24 -99t-64 -79q129 -106 129 -322q0 -169 -94 -266q51 -76 51 -172q0 -80 -28 -150.5t-83 -129t-149.5 -92.5t-216.5 -34q-100 0 -193 40 t-152 111t-59 153q0 49 23 96t61 78q-125 105 -125 325zM23 694q0 -84 24.5 -146t61.5 -93t80.5 -53.5t80.5 -32.5t61.5 -25t24.5 -35q0 -14 -9.5 -24.5t-24.5 -10.5q-23 0 -68 19.5t-88 19.5q-42 0 -72.5 -36.5t-30.5 -81.5q0 -84 94.5 -144.5t211.5 -60.5q78 0 142 17 t107.5 46t73 68.5t43 83.5t13.5 92q0 52 -26 103t-81 75q80 45 115 108t35 152q0 73 -18.5 129t-48 88.5t-65 55.5t-71 35.5t-65 23t-48 23t-18.5 30.5q0 14 10 24.5t25 10.5q23 0 67.5 -19.5t87.5 -19.5q42 0 72.5 37t30.5 82q0 84 -94.5 144.5t-211.5 60.5 q-97 0 -171.5 -25.5t-118.5 -69.5t-66 -97.5t-22 -114.5q0 -66 35 -120.5t96 -78.5q-174 -89 -174 -240zM350 719q0 28 18.5 47.5t55.5 19.5t53.5 -19.5t16.5 -47.5q0 -29 -18 -49.5t-54 -20.5q-32 0 -52 21t-20 49zM408 717q0 -12 14 -12q12 0 12 12q0 14 -12 14 q-14 0 -14 -14z" />
<glyph unicode="&#xa8;" horiz-adv-x="811" d="M-41 1274q0 103 68 177.5t190 74.5q117 0 189 -72q72 72 186 72q123 0 191.5 -74t68.5 -176q0 -103 -69 -179.5t-191 -76.5q-118 0 -189 74q-71 -74 -186 -74q-119 0 -188.5 76t-69.5 178zM57 1274q0 -63 43 -109.5t117 -46.5t117 47.5t43 110.5q0 62 -41.5 106.5 t-118.5 44.5q-75 0 -117.5 -45t-42.5 -108zM434 1274q0 -63 42 -109.5t116 -46.5q75 0 118.5 47.5t43.5 110.5q0 62 -42.5 106.5t-119.5 44.5q-75 0 -116.5 -45t-41.5 -108z" />
<glyph unicode="&#xa9;" horiz-adv-x="1591" d="M-20 715q0 193 50.5 344.5t152.5 261t265 167.5t379 58q175 0 312.5 -47t225 -125t144.5 -188.5t80 -228t23 -252.5q0 -146 -27.5 -265.5t-88.5 -218t-155.5 -165.5t-232.5 -103.5t-315 -36.5q-170 0 -307 41.5t-230.5 114.5t-156 174.5t-91 218.5t-28.5 250zM78 715 q0 -117 25 -219.5t80.5 -191.5t137.5 -153t202.5 -100.5t269.5 -36.5q194 0 334.5 48.5t224 141t122.5 216.5t39 285q0 119 -20 223t-70 201.5t-126 166.5t-196.5 110.5t-273.5 41.5q-191 0 -335 -51t-234.5 -147.5t-135 -230t-44.5 -304.5zM319 723q0 232 133 366t388 134 q107 0 194.5 -42t143 -113.5t85 -162.5t29.5 -192q0 -226 -119 -340.5t-366 -114.5q-238 0 -363 119.5t-125 345.5zM453 723q0 -170 89 -265.5t255 -95.5q115 0 184.5 40t69.5 112q0 143 -150 143q-15 0 -44 -5t-40 -5q-82 0 -82 90q0 44 21 66t53 22q15 0 40.5 -7t43.5 -7 q21 0 43 6t45.5 20t38 43t14.5 70q0 64 -67.5 103t-159.5 39q-145 0 -249.5 -103.5t-104.5 -265.5zM1012 737q137 -50 137 -223v-6q45 80 45 205q0 139 -61 243v-6q0 -153 -121 -213z" />
<glyph unicode="&#xab;" horiz-adv-x="1597" d="M-41 528q0 59 76.5 163.5t182 203t227.5 171.5t204 73q249 0 271 -254q116 109 237 181.5t205 72.5q272 0 272 -305q0 -87 -64.5 -167.5t-164.5 -142.5q101 -70 167 -155t66 -170q0 -71 -12.5 -119.5t-45.5 -87.5t-94.5 -57.5t-154.5 -18.5q-73 0 -184.5 70t-222.5 176 q-6 -126 -72 -186t-234 -60q-59 0 -146.5 47.5t-174.5 122t-164.5 156.5t-125.5 160.5t-48 125.5zM57 528q0 -66 103 -190t239.5 -224t218.5 -100q121 0 165 45.5t44 139.5q0 49 -37 103.5t-93 99t-114.5 79t-109.5 54.5q51 14 109 42.5t113 67t91.5 89t36.5 100.5 q0 206 -174 206q-70 0 -175 -61.5t-195.5 -144t-156 -170t-65.5 -136.5zM770 528q0 -66 103 -190t239.5 -224t218.5 -100q121 0 165 45.5t44 139.5q0 49 -37 103.5t-93 99t-114.5 79t-109.5 54.5q51 14 109 42.5t113 67t91.5 89t36.5 100.5q0 206 -174 206q-70 0 -175 -61.5 t-195.5 -144t-156 -170t-65.5 -136.5z" />
<glyph unicode="&#xad;" horiz-adv-x="886" d="M-41 621q0 167 113 239t350 72q100 0 183 -14.5t157 -47t116 -94.5t42 -149q0 -78 -36.5 -137t-101 -94.5t-148 -53.5t-183.5 -18q-258 0 -375 72t-117 225zM57 621q0 -102 94.5 -150.5t299.5 -48.5q164 0 267 51.5t103 153.5q0 59 -33.5 101t-93 64.5t-126 32 t-146.5 9.5q-188 0 -276.5 -49.5t-88.5 -163.5z" />
<glyph unicode="&#xae;" horiz-adv-x="1591" d="M-29 715q0 193 50.5 344.5t153 261t265.5 167.5t379 58q175 0 314 -47t229 -125.5t150 -188t85 -228t25 -252.5q0 -183 -47.5 -325.5t-146.5 -247.5t-261.5 -160.5t-382.5 -55.5q-170 0 -307 41.5t-230.5 114.5t-156 174.5t-91 218.5t-28.5 250zM70 715q0 -117 25 -219.5 t80 -191.5t137 -153t202.5 -100.5t269.5 -36.5q194 0 337.5 48.5t231 140.5t129.5 217t42 285q0 118 -22 223t-74.5 202t-131.5 166t-201 110.5t-276 41.5q-191 0 -335 -51t-234.5 -147.5t-135 -230t-44.5 -304.5zM311 723q0 232 132.5 366t387.5 134q107 0 195.5 -42 t145 -113.5t87.5 -162.5t31 -192q0 -455 -491 -455q-238 0 -363 119.5t-125 345.5zM477 772q0 -145 35.5 -245t89.5 -138q32 -13 62 -18q112 3 112 143q0 6 -1 20t-1 21q36 -71 100.5 -126.5t122.5 -55.5q48 0 78.5 38t30.5 74q0 45 -38 90t-95 76q94 64 94 193q0 35 -9 68 t-33 67t-61 58.5t-98.5 40.5t-140.5 16q-248 0 -248 -322zM743 827q0 28 17 48t49 20t51 -21t19 -49t-19.5 -48.5t-54.5 -20.5q-28 0 -45 21.5t-17 49.5zM795 825q0 -16 14 -16q18 0 18 18q0 15 -18 15q-14 0 -14 -17zM1118 664q39 -42 60 -78q14 52 14 127q0 83 -29 168 q2 -12 2 -37q0 -106 -47 -180z" />
<glyph unicode="&#xaf;" horiz-adv-x="708" d="M-41 1266q0 105 89.5 152.5t299.5 47.5q402 0 402 -211q0 -98 -107 -152t-289 -54q-187 0 -291 53t-104 164zM57 1266q0 -119 297 -119q136 0 216.5 28t80.5 80q0 113 -303 113q-157 0 -224 -24.5t-67 -77.5z" />
<glyph unicode="&#xb4;" horiz-adv-x="684" d="M-41 1196q0 58 66.5 115.5t158.5 97t183.5 64t146.5 24.5q98 0 154.5 -60.5t56.5 -150.5q0 -67 -39.5 -116t-111.5 -77.5t-163 -41.5t-204 -13q-128 0 -188 38t-60 120zM57 1196q0 -59 150 -59q420 0 420 149q0 48 -30.5 80.5t-82.5 32.5q-64 0 -169.5 -26.5t-196.5 -76 t-91 -100.5z" />
<glyph unicode="&#xb6;" horiz-adv-x="1429" d="M-53 922q0 91 13.5 171t51.5 163.5t98.5 142t163 96t236.5 37.5q158 0 258 -41t158 -143q70 182 223 182q75 0 128.5 -34t95.5 -117t62.5 -233t20.5 -370q0 -207 -15 -362t-41 -251.5t-66 -156t-83.5 -82t-99.5 -22.5q-77 0 -134 42t-95 144q-40 -95 -102.5 -140.5 t-153.5 -45.5q-182 0 -265.5 114.5t-83.5 384.5v11q-164 36 -267 175.5t-103 334.5zM45 922q0 -183 107.5 -302.5t265.5 -119.5q-13 -273 45.5 -386.5t202.5 -113.5q127 0 182.5 166t66.5 543q5 181 -7 306t-39.5 208t-79.5 129t-117.5 64t-161.5 18q-93 0 -167.5 -21.5 t-124 -60t-84.5 -86.5t-54 -108t-27 -116.5t-8 -119.5zM950 719q0 -174 10 -302.5t26.5 -207.5t42.5 -126.5t55 -65t67 -17.5t67.5 20t56.5 73t44.5 139t28 223t10.5 321q0 192 -14 322t-42.5 202t-65 102t-87.5 30q-66 0 -109 -68t-66.5 -227.5t-23.5 -417.5z" />
<glyph unicode="&#xb8;" horiz-adv-x="421" d="M-41 -334q0 97 49 139q-33 37 -33 97q0 63 29.5 136.5t80 127t103.5 53.5q79 0 138 -44.5t59 -127.5q0 -33 -12 -76q90 -71 90 -221q0 -64 -29 -115.5t-75 -82t-98.5 -46.5t-104.5 -16q-49 0 -89 17.5t-62.5 44.5t-34 56.5t-11.5 57.5zM57 -334q0 -28 25.5 -53t73.5 -25 t94 16.5t80.5 55t34.5 90.5q0 136 -119 176q41 71 41 121q0 36 -30 55t-69 19q-30 0 -72 -78t-42 -141q0 -22 14.5 -36t32.5 -19.5t32.5 -19t14.5 -34.5t-17.5 -31.5t-38 -13.5t-38 -23t-17.5 -59z" />
<glyph unicode="&#xbb;" horiz-adv-x="1568" d="M-41 199q0 85 66.5 170t167.5 155q-100 62 -165 142.5t-65 167.5q0 305 273 305q78 0 190 -65t225 -167q29 232 269 232q82 0 204 -73t227.5 -171.5t182 -203t76.5 -163.5q0 -47 -48.5 -125.5t-126 -160.5t-164.5 -156.5t-175 -122t-146 -47.5q-159 0 -226.5 54.5 t-78.5 164.5q-106 -96 -209 -157.5t-170 -61.5q-93 0 -154.5 18.5t-94.5 57.5t-45.5 87.5t-12.5 119.5zM57 199q0 -94 44 -139.5t165 -45.5q82 0 218 100t239.5 224t103.5 190q0 49 -65.5 136.5t-155.5 170t-195 144t-175 61.5q-175 0 -175 -206q0 -50 36.5 -100.5t92 -89 t113.5 -67t109 -42.5q-51 -20 -109.5 -54.5t-115 -79t-93.5 -99t-37 -103.5zM741 199q0 -94 44 -139.5t165 -45.5q82 0 218 100t239.5 224t103.5 190q0 49 -65.5 136.5t-155.5 170t-195 144t-175 61.5q-175 0 -175 -206q0 -50 36.5 -100.5t92 -89t113.5 -67t109 -42.5 q-51 -20 -109.5 -54.5t-115 -79t-93.5 -99t-37 -103.5z" />
<glyph unicode="&#xbf;" horiz-adv-x="899" d="M-76 383q0 68 12 124t28 91.5t46.5 70t52 52t60.5 45.5q36 26 60 49t33.5 35t30 43.5t32.5 48.5q-60 49 -92.5 120.5t-32.5 149.5q0 64 21.5 123t62.5 106.5t107.5 76t148.5 28.5q107 0 184.5 -49.5t113 -123.5t35.5 -161q0 -77 -29 -147.5t-85 -118.5q94 -84 94 -223 q0 -104 -51 -168q90 -28 147.5 -109t57.5 -184q0 -106 -75 -191.5t-189.5 -130t-241.5 -44.5q-531 0 -531 487zM23 383q0 -389 432 -389q102 0 194.5 32.5t152.5 95t60 140.5q0 86 -53.5 146.5t-130.5 60.5q-43 0 -74 -13.5t-45.5 -29.5t-35 -29.5t-44.5 -13.5 q-16 0 -27.5 13.5t-11.5 29.5q0 31 20 54t50 35t64.5 29.5t64.5 36t50 55.5t20 87q0 92 -61 145.5t-154 53.5q-44 0 -76.5 -8.5t-52.5 -25.5t-31 -31.5t-24 -38.5t-21 -34q-23 -32 -61.5 -63t-71.5 -55.5t-64.5 -59t-50 -90.5t-18.5 -133zM252 1212q0 -98 65 -170.5 t177 -72.5q111 0 173 72.5t62 170.5q0 97 -61.5 166.5t-173.5 69.5q-115 0 -178.5 -69.5t-63.5 -166.5z" />
<glyph unicode="&#xc0;" d="M-41 449q0 150 33 309t92.5 303t153.5 259t206 167q-190 60 -190 209q0 89 57.5 150t153.5 61q55 0 146.5 -24.5t183.5 -64t158.5 -97t66.5 -115.5q0 -64 -34.5 -100.5t-108.5 -49.5q136 -86 239 -262.5t152 -374t49 -385.5q0 -154 -33.5 -270.5t-107.5 -187t-181 -70.5 q-123 0 -209 87t-129 216q-6 -2 -18 -2q-34 -152 -118 -245t-208 -93q-118 0 -199.5 79t-118 207t-36.5 294zM57 449q0 -137 26.5 -243.5t85.5 -172.5t144 -66q100 0 163 95t79 241q93 -3 174 19q9 -45 24 -87.5t38.5 -85t52.5 -74.5t68 -51.5t83 -19.5q75 0 126 57.5 t74.5 152.5t23.5 220q0 128 -24.5 265t-75 268t-119 234.5t-165 167t-204.5 63.5q-105 0 -199 -61t-161 -162.5t-116.5 -229.5t-73.5 -264.5t-24 -265.5zM352 1696q0 -78 115 -114t305 -36q150 0 150 60q0 39 -54.5 78t-130.5 65t-151 42.5t-121 16.5q-51 0 -82 -32.5 t-31 -79.5zM512 772q0 42 28.5 72t80.5 30q50 0 79 -32.5t29 -75.5q0 -41 -29.5 -70.5t-83.5 -29.5q-48 0 -76 31.5t-28 74.5zM610 768q0 -8 8 -8q11 0 11 10q0 8 -11 8q-8 0 -8 -10z" />
<glyph unicode="&#xc1;" d="M-41 449q0 190 48.5 385.5t149 367t232.5 254.5q-135 29 -135 150q0 58 66.5 115.5t158.5 97t183.5 64t146.5 24.5q98 0 154.5 -60.5t56.5 -150.5q0 -150 -199 -211q115 -54 211.5 -172t157 -264.5t94 -306.5t33.5 -308q0 -154 -33.5 -270.5t-107.5 -187t-181 -70.5 q-123 0 -209 87t-129 216q-6 -2 -18 -2q-34 -152 -118 -245t-208 -93q-118 0 -199.5 79t-118 207t-36.5 294zM57 449q0 -137 26.5 -243.5t85.5 -172.5t144 -66q100 0 163 95t79 241q93 -3 174 19q9 -45 24 -87.5t38.5 -85t52.5 -74.5t68 -51.5t83 -19.5q75 0 126 57.5 t74.5 152.5t23.5 220q0 128 -24.5 265t-75 268t-119 234.5t-165 167t-204.5 63.5q-105 0 -199 -61t-161 -162.5t-116.5 -229.5t-73.5 -264.5t-24 -265.5zM352 1606q0 -60 150 -60q92 0 166 8t132 25t90 47t32 70q0 48 -30.5 80t-82.5 32q-46 0 -121 -16.5t-151 -42.5 t-130.5 -65t-54.5 -78zM512 772q0 42 28.5 72t80.5 30q50 0 79 -32.5t29 -75.5q0 -41 -29.5 -70.5t-83.5 -29.5q-48 0 -76 31.5t-28 74.5zM610 768q0 -8 8 -8q11 0 11 10q0 8 -11 8q-8 0 -8 -10z" />
<glyph unicode="&#xc2;" d="M-41 449q0 137 27.5 283.5t78 282t130.5 250.5t176 181q-52 46 -52 137q0 70 47.5 160t124 157.5t148.5 67.5q73 0 149 -70t122 -162.5t46 -162.5q0 -93 -51 -135q96 -71 176 -189t130.5 -254t78 -281.5t27.5 -279.5q0 -154 -33.5 -270.5t-107.5 -187t-181 -70.5 q-123 0 -209 87t-129 216q-6 -2 -18 -2q-34 -152 -118 -245t-208 -93q-118 0 -199.5 79t-118 207t-36.5 294zM57 449q0 -137 26.5 -243.5t85.5 -172.5t144 -66q100 0 163 95t79 241q93 -3 174 19q9 -45 24 -87.5t38.5 -85t52.5 -74.5t68 -51.5t83 -19.5q75 0 126 57.5 t74.5 152.5t23.5 220q0 128 -24.5 265t-75 268t-119 234.5t-165 167t-204.5 63.5q-105 0 -199 -61t-161 -162.5t-116.5 -229.5t-73.5 -264.5t-24 -265.5zM418 1583q0 -74 67 -74q63 0 100.5 47.5t51.5 116.5q28 -70 71.5 -119t94.5 -49q55 0 55 68q0 52 -32 122t-84.5 122.5 t-102.5 52.5q-74 0 -147.5 -102t-73.5 -185zM512 772q0 42 28.5 72t80.5 30q50 0 79 -32.5t29 -75.5q0 -41 -29.5 -70.5t-83.5 -29.5q-48 0 -76 31.5t-28 74.5zM610 768q0 -8 8 -8q11 0 11 10q0 8 -11 8q-8 0 -8 -10z" />
<glyph unicode="&#xc3;" d="M-41 449q0 187 47 379.5t143.5 363t225.5 256.5q-60 15 -95.5 63.5t-35.5 114.5q0 105 87 185.5t191 80.5q42 0 80.5 -14t65.5 -27.5t41 -13.5q8 0 52.5 21.5t90.5 21.5q91 0 135.5 -55.5t44.5 -136.5q0 -54 -45.5 -122.5t-122.5 -103.5q139 -83 245 -260t157 -377 t51 -391q0 -154 -33.5 -270.5t-107.5 -187t-181 -70.5q-123 0 -209 87t-129 216q-6 -2 -18 -2q-34 -152 -118 -245t-208 -93q-118 0 -199.5 79t-118 207t-36.5 294zM57 449q0 -137 26.5 -243.5t85.5 -172.5t144 -66q100 0 163 95t79 241q93 -3 174 19q9 -45 24 -87.5 t38.5 -85t52.5 -74.5t68 -51.5t83 -19.5q75 0 126 57.5t74.5 152.5t23.5 220q0 128 -24.5 265t-75 268t-119 234.5t-165 167t-204.5 63.5q-105 0 -199 -61t-161 -162.5t-116.5 -229.5t-73.5 -264.5t-24 -265.5zM342 1626q0 -36 22.5 -60t57.5 -24q31 0 66.5 26.5t68.5 26.5 q28 0 53.5 -14.5t57.5 -29.5t75 -15q85 0 138 52.5t53 99.5q0 39 -20.5 66.5t-61.5 27.5q-40 0 -83 -21.5t-58 -21.5q-29 0 -81 27.5t-108 27.5q-67 0 -123.5 -51t-56.5 -117zM512 772q0 42 28.5 72t80.5 30q50 0 79 -32.5t29 -75.5q0 -41 -29.5 -70.5t-83.5 -29.5 q-48 0 -76 31.5t-28 74.5zM610 768q0 -8 8 -8q11 0 11 10q0 8 -11 8q-8 0 -8 -10z" />
<glyph unicode="&#xc4;" d="M-41 449q0 184 46 374.5t140.5 360t219.5 258.5q-83 24 -129 91.5t-46 149.5q0 103 68.5 177.5t190.5 74.5q117 0 188 -71q68 71 186 71q123 0 191.5 -73.5t68.5 -175.5q0 -84 -47.5 -153t-134.5 -93q128 -92 225 -266t144 -366t47 -374q0 -154 -33.5 -270.5t-107.5 -187 t-181 -70.5q-123 0 -209 87t-129 216q-6 -2 -18 -2q-34 -152 -118 -245t-208 -93q-118 0 -199.5 79t-118 207t-36.5 294zM57 449q0 -137 26.5 -243.5t85.5 -172.5t144 -66q100 0 163 95t79 241h20q83 0 154 19q9 -45 24 -87.5t38.5 -85t52.5 -74.5t68 -51.5t83 -19.5 q75 0 126 57.5t74.5 152.5t23.5 220q0 128 -24.5 265t-75 268t-119 234.5t-165 167t-204.5 63.5q-105 0 -199 -61t-161 -162.5t-116.5 -229.5t-73.5 -264.5t-24 -265.5zM289 1683q0 -63 43 -109t117 -46t116.5 47.5t42.5 110.5q0 62 -41 106.5t-118 44.5q-75 0 -117.5 -45.5 t-42.5 -108.5zM512 772q0 42 28.5 72t80.5 30q50 0 79 -32.5t29 -75.5q0 -41 -29.5 -70.5t-83.5 -29.5q-48 0 -76 31.5t-28 74.5zM610 772q0 -8 6 -8q15 0 15 2q0 10 -10 10q-11 0 -11 -4zM666 1683q0 -63 41.5 -109t115.5 -46q75 0 118.5 47.5t43.5 110.5q0 62 -42.5 106.5 t-119.5 44.5q-75 0 -116 -45.5t-41 -108.5z" />
<glyph unicode="&#xc5;" d="M-41 449q0 185 45.5 375t140 359t220.5 257q-33 62 -33 137q0 116 78.5 200.5t220.5 84.5q148 0 230.5 -85.5t82.5 -201.5q0 -75 -37 -139q96 -69 175.5 -186.5t130 -254t77.5 -281.5t27 -280q0 -154 -33.5 -270.5t-107.5 -187t-181 -70.5q-123 0 -209 87t-129 216 q-3 0 -9 -1t-9 -1q-34 -152 -118 -245t-208 -93q-118 0 -199.5 79t-118 207t-36.5 294zM57 449q0 -137 26.5 -243.5t85.5 -172.5t144 -66q100 0 163 95t79 241h20q83 0 154 19q9 -45 24 -87.5t38.5 -85t52.5 -74.5t68 -51.5t83 -19.5q75 0 126 57.5t74.5 152.5t23.5 220 q0 143 -32.5 297.5t-90.5 294t-150.5 245t-202.5 142.5q50 25 76.5 69t26.5 93q0 76 -57 132t-158 56q-96 0 -148.5 -55t-52.5 -131q0 -49 23.5 -94t66.5 -70q-107 -36 -197 -138.5t-146.5 -238.5t-88 -289t-31.5 -298zM512 772q0 42 28.5 72t80.5 30q50 0 79 -32.5 t29 -75.5q0 -41 -29.5 -70.5t-83.5 -29.5q-48 0 -76 31.5t-28 74.5zM608 766q0 -4 4 -8t9 -4t8.5 4t3.5 8t-3.5 8t-8.5 4t-9 -4t-4 -8z" />
<glyph unicode="&#xc6;" horiz-adv-x="1775" d="M-41 440q0 153 28 306t85.5 292.5t136.5 247.5t188.5 172t233.5 64q121 0 227 -80q44 51 108.5 69.5t161.5 18.5q156 0 276.5 -20t195 -52.5t121.5 -79t65 -94.5t18 -104q0 -181 -186 -256q131 -81 131 -232q0 -161 -129 -233q197 -75 197 -264q0 -75 -20 -130t-67 -89 t-95 -54t-135 -29t-153 -11.5t-182 -2.5q-231 0 -352 70.5t-172 251.5h-2q-36 -147 -121 -242.5t-205 -95.5q-118 0 -199.5 78.5t-118 205.5t-36.5 293zM57 440q0 -137 26.5 -242.5t85.5 -171t144 -65.5q99 0 162.5 95t79.5 241q105 0 162 14q16 -101 48 -165.5t88 -102 t129 -52t183 -14.5q64 0 104.5 0.5t94.5 2.5t88 6.5t75.5 12t66.5 18.5t51.5 27.5t40.5 38t23 49.5t9 63q0 97 -91 150.5t-263 53.5q-81 0 -180 -12q12 53 16 88q134 5 224.5 22t139 46.5t68 65t19.5 83.5t-23 86t-72 68.5t-136 45.5t-206 11l-6 101q113 -17 199 -17 q80 0 145 18.5t109.5 63.5t44.5 111q0 51 -26.5 93.5t-88.5 79.5t-179.5 58t-283.5 21q-104 0 -163 -33.5t-91 -126.5q-92 151 -243 151q-89 0 -169 -41t-142 -112t-112.5 -166.5t-83 -205t-50 -226.5t-17.5 -232zM532 764q0 43 28.5 73.5t80.5 30.5q50 0 79.5 -33t29.5 -77 q0 -41 -29.5 -71t-83.5 -30q-48 0 -76.5 32t-28.5 75zM629 760q0 -4 3.5 -8t8.5 -4t8.5 4t3.5 8t-3.5 8t-8.5 4t-8.5 -4t-3.5 -8z" />
<glyph unicode="&#xc7;" horiz-adv-x="1138" d="M-41 727q0 173 38.5 312.5t102.5 231t150.5 153t177.5 88t188 26.5q137 0 245 -33t171 -89.5t88 -130.5t4 -155q-10 -41 -24 -73.5t-32.5 -56t-35 -40.5t-42 -28.5t-43 -18.5t-48 -11t-47 -5.5t-49.5 -3.5q-27 -2 -41 -4t-35 -11t-31.5 -26t-19 -49.5t-8.5 -79.5 q0 -26 4.5 -45.5t10.5 -32.5t20 -20.5t23.5 -11.5t32 -4t34.5 1t41 4t43 4q55 0 97 -9t84.5 -34t74 -76t49.5 -128q19 -82 -16.5 -171t-127.5 -165.5t-221 -108.5q45 -62 45 -176q0 -64 -29 -115.5t-75 -82t-98.5 -46.5t-104.5 -16q-49 0 -89 17.5t-62.5 44.5t-34 56.5 t-11.5 57.5q0 96 50 139q-33 33 -33 97q0 21 4 53q-208 77 -314 276.5t-106 495.5zM57 727q0 -293 113.5 -477.5t333.5 -229.5q-31 -67 -31 -118q0 -22 14.5 -36t32.5 -19.5t32.5 -19t14.5 -34.5t-17 -31.5t-38 -13.5t-38 -23t-17 -59q0 -28 25 -53t73 -25t94 16.5t80.5 55 t34.5 90.5q0 136 -119 176q27 49 35 80q104 4 189 39t134.5 86t71.5 108.5t10 108.5q-14 61 -41 99.5t-60.5 53t-72.5 18t-78.5 0t-78 -6t-72 4.5t-59 26.5t-40 64.5t-14.5 115q0 96 21 154t56 79.5t78 28.5t89.5 9t88 11.5t76.5 46t52 103.5q30 118 -83 201.5t-331 83.5 q-82 0 -159.5 -23t-151 -77.5t-128 -134.5t-87.5 -203t-33 -275z" />
<glyph unicode="&#xc8;" horiz-adv-x="1101" d="M-41 711q0 268 37.5 436.5t109.5 253t189 112.5q-127 62 -127 183q0 89 57.5 150t153.5 61q55 0 146.5 -24.5t183.5 -64t158.5 -97t66.5 -115.5q0 -94 -78 -131q132 -47 192 -124t60 -171q0 -198 -180 -256q123 -83 123 -232q0 -78 -24.5 -132t-84.5 -89 q178 -76 178 -258q0 -65 -14 -114t-34.5 -82.5t-64.5 -56t-82.5 -35t-111.5 -18.5t-128.5 -7.5t-154.5 -1.5q-101 0 -177.5 15t-143 50.5t-111.5 95.5t-77 150t-47 214.5t-15 287.5zM57 711q0 -214 27.5 -354t89 -219.5t145.5 -110.5t211 -31q96 0 148.5 1.5t119 8t100 20 t66.5 37.5t45.5 61t12.5 89q0 68 -42 115t-109.5 65.5t-151.5 22.5t-168 -15q3 14 7 46t7 47q118 5 194.5 19t118.5 40t58 58.5t16 80.5q0 99 -91 158.5t-283 52.5q0 63 -7 121q45 -9 87 -14t95.5 -7.5t96.5 6.5t80.5 27t58.5 55t21 89q0 40 -16 75t-56 68.5t-102 57 t-160 37.5t-223 14q-84 0 -144.5 -20t-110 -68.5t-79.5 -130.5t-46 -206t-16 -296zM266 1696q0 -78 115 -114t305 -36q150 0 150 60q0 39 -54.5 78t-130.5 65t-151 42.5t-121 16.5q-51 0 -82 -32.5t-31 -79.5z" />
<glyph unicode="&#xc9;" horiz-adv-x="1101" d="M-41 711q0 238 29 396.5t86 249t149 132.5q-55 35 -55 117q0 58 66.5 115.5t158.5 97t183.5 64t146.5 24.5q98 0 154.5 -60.5t56.5 -150.5q0 -133 -160 -197q91 -21 158 -55t104 -77t54.5 -89t17.5 -98q0 -198 -180 -256q123 -83 123 -232q0 -78 -24.5 -132t-84.5 -89 q178 -76 178 -258q0 -65 -14 -114t-34.5 -82.5t-64.5 -56t-82.5 -35t-111.5 -18.5t-128.5 -7.5t-154.5 -1.5q-101 0 -177.5 15t-143 50.5t-111.5 95.5t-77 150t-47 214.5t-15 287.5zM57 711q0 -214 27.5 -354t89 -219.5t145.5 -110.5t211 -31q96 0 148.5 1.5t119 8t100 20 t66.5 37.5t45.5 61t12.5 89q0 68 -42 115t-109.5 65.5t-151.5 22.5t-168 -15q3 14 7 46t7 47q118 5 194.5 19t118.5 40t58 58.5t16 80.5q0 99 -91 158.5t-283 52.5q0 63 -7 121q45 -9 87 -14t95.5 -7.5t96.5 6.5t80.5 27t58.5 55t21 89q0 40 -16 75t-56 68.5t-102 57 t-160 37.5t-223 14q-84 0 -144.5 -20t-110 -68.5t-79.5 -130.5t-46 -206t-16 -296zM266 1606q0 -60 150 -60q92 0 166 8t132 25t90 47t32 70q0 48 -30.5 80t-82.5 32q-46 0 -121 -16.5t-151 -42.5t-130.5 -65t-54.5 -78z" />
<glyph unicode="&#xca;" horiz-adv-x="1101" d="M-41 711q0 369 68.5 550t218.5 238q-15 37 -15 84q0 70 47.5 160t124 157.5t148.5 67.5q73 0 149 -70t122 -162.5t46 -162.5q0 -58 -20 -94q260 -88 260 -299q0 -198 -180 -256q123 -83 123 -232q0 -78 -24.5 -132t-84.5 -89q178 -76 178 -258q0 -65 -14 -114 t-34.5 -82.5t-64.5 -56t-82.5 -35t-111.5 -18.5t-128.5 -7.5t-154.5 -1.5q-101 0 -177.5 15t-143 50.5t-111.5 95.5t-77 150t-47 214.5t-15 287.5zM57 711q0 -214 27.5 -354t89 -219.5t145.5 -110.5t211 -31q96 0 148.5 1.5t119 8t100 20t66.5 37.5t45.5 61t12.5 89 q0 68 -42 115t-109.5 65.5t-151.5 22.5t-168 -15q3 14 7 46t7 47q118 5 194.5 19t118.5 40t58 58.5t16 80.5q0 99 -91 158.5t-283 52.5q0 63 -7 121q45 -9 87 -14t95.5 -7.5t96.5 6.5t80.5 27t58.5 55t21 89q0 40 -16 75t-56 68.5t-102 57t-160 37.5t-223 14 q-84 0 -144.5 -20t-110 -68.5t-79.5 -130.5t-46 -206t-16 -296zM330 1583q0 -74 67 -74q63 0 100.5 47.5t51.5 116.5q28 -70 71.5 -119t94.5 -49q55 0 55 68q0 52 -32 122t-84.5 122.5t-102.5 52.5q-74 0 -147.5 -102t-73.5 -185z" />
<glyph unicode="&#xcb;" horiz-adv-x="1101" d="M-41 711q0 341 59 521t185 247q-48 36 -73.5 90t-25.5 114q0 103 68 177.5t190 74.5q118 0 189 -71q71 71 186 71q123 0 191.5 -73.5t68.5 -175.5q0 -68 -30 -127t-88 -93q229 -92 229 -286q0 -198 -180 -256q123 -83 123 -232q0 -78 -24.5 -132t-84.5 -89 q178 -76 178 -258q0 -65 -14 -114t-34.5 -82.5t-64.5 -56t-82.5 -35t-111.5 -18.5t-128.5 -7.5t-154.5 -1.5q-101 0 -177.5 15t-143 50.5t-111.5 95.5t-77 150t-47 214.5t-15 287.5zM57 711q0 -214 27.5 -354t89 -219.5t145.5 -110.5t211 -31q96 0 148.5 1.5t119 8t100 20 t66.5 37.5t45.5 61t12.5 89q0 68 -42 115t-109.5 65.5t-151.5 22.5t-168 -15q3 14 7 46t7 47q118 5 194.5 19t118.5 40t58 58.5t16 80.5q0 99 -91 158.5t-283 52.5q0 63 -7 121q45 -9 87 -14t95.5 -7.5t96.5 6.5t80.5 27t58.5 55t21 89q0 40 -16 75t-56 68.5t-102 57 t-160 37.5t-223 14q-84 0 -144.5 -20t-110 -68.5t-79.5 -130.5t-46 -206t-16 -296zM203 1683q0 -63 42.5 -109t116.5 -46t117 47.5t43 110.5q0 62 -41.5 106.5t-118.5 44.5q-75 0 -117 -45.5t-42 -108.5zM580 1683q0 -63 41.5 -109t115.5 -46q75 0 118.5 47.5t43.5 110.5 q0 62 -42.5 106.5t-119.5 44.5q-75 0 -116 -45.5t-41 -108.5z" />
<glyph unicode="&#xcc;" horiz-adv-x="655" d="M-55 1696q0 89 57.5 150t153.5 61q55 0 146.5 -24.5t183.5 -64t158.5 -97t66.5 -115.5q0 -71 -43.5 -109t-135.5 -47q77 -71 114.5 -234t37.5 -450q0 -437 -99.5 -656t-265.5 -219q-66 0 -118.5 25.5t-98.5 86.5t-76 158.5t-47.5 247t-17.5 345.5q0 319 53 490.5 t156 232.5q-225 57 -225 219zM43 1696q0 -78 115 -114t305 -36q149 0 149 60q0 39 -54.5 78t-130 65t-150.5 42.5t-121 16.5q-51 0 -82 -32.5t-31 -79.5zM59 754q0 -216 18.5 -368t54 -237t81 -122t106.5 -37q122 0 194.5 194t72.5 582q0 193 -15.5 321t-49 200.5t-78.5 102 t-111 29.5t-113.5 -31t-84.5 -104.5t-56 -205.5t-19 -324z" />
<glyph unicode="&#xcd;" horiz-adv-x="655" d="M-55 1606q0 58 66.5 115.5t158.5 97t183.5 64t146.5 24.5q98 0 154.5 -60.5t56.5 -150.5q0 -156 -219 -217q98 -57 145 -224t47 -489q0 -437 -99.5 -656t-265.5 -219q-66 0 -118.5 25.5t-98.5 86.5t-76 158.5t-47.5 247t-17.5 345.5q0 545 170 696q-95 7 -140.5 45.5 t-45.5 110.5zM43 1606q0 -60 150 -60q92 0 165.5 8t132 25t90 47t31.5 70q0 48 -30 80t-82 32q-46 0 -121 -16.5t-151 -42.5t-130.5 -65t-54.5 -78zM59 754q0 -216 18.5 -368t54 -237t81 -122t106.5 -37q122 0 194.5 194t72.5 582q0 193 -15.5 321t-49 200.5t-78.5 102 t-111 29.5t-113.5 -31t-84.5 -104.5t-56 -205.5t-19 -324z" />
<glyph unicode="&#xce;" horiz-adv-x="655" d="M-39 754q0 502 143 667q-96 35 -96 162q0 70 47.5 160t124 157.5t148.5 67.5q73 0 149 -70t122 -162.5t46 -162.5q0 -120 -84 -154q123 -156 123 -653q0 -437 -99.5 -656t-265.5 -219q-66 0 -118.5 25.5t-98.5 86.5t-76 158.5t-47.5 247t-17.5 345.5zM59 754 q0 -216 18.5 -368t54 -237t81 -122t106.5 -37q122 0 194.5 194t72.5 582q0 193 -15.5 321t-49 200.5t-78.5 102t-111 29.5t-113.5 -31t-84.5 -104.5t-56 -205.5t-19 -324zM106 1583q0 -34 17 -54t51 -20q63 0 100.5 47.5t51.5 116.5q28 -70 71.5 -119t94.5 -49q55 0 55 68 q0 52 -32 122t-84.5 122.5t-102.5 52.5q-74 0 -148 -102t-74 -185z" />
<glyph unicode="&#xcf;" horiz-adv-x="655" d="M-119 1683q0 103 68 177.5t190 74.5q118 0 189 -71q71 71 186 71q123 0 191.5 -73.5t68.5 -175.5q0 -95 -59 -169t-164 -85q67 -77 100 -236.5t33 -429.5q0 -437 -99.5 -656t-265.5 -219q-66 0 -118.5 25.5t-98.5 86.5t-76 158.5t-47.5 247t-17.5 345.5q0 518 152 676 q-107 9 -169.5 83t-62.5 170zM-20 1683q0 -63 42.5 -109t116.5 -46t117 47.5t43 110.5q0 62 -41.5 106.5t-118.5 44.5q-75 0 -117 -45.5t-42 -108.5zM59 754q0 -216 18.5 -368t54 -237t81 -122t106.5 -37q122 0 194.5 194t72.5 582q0 193 -15.5 321t-49 200.5t-78.5 102 t-111 29.5t-113.5 -31t-84.5 -104.5t-56 -205.5t-19 -324zM356 1683q0 -63 42 -109t116 -46q75 0 118.5 47.5t43.5 110.5q0 62 -42.5 106.5t-119.5 44.5q-75 0 -116.5 -45.5t-41.5 -108.5z" />
<glyph unicode="&#xd1;" horiz-adv-x="1386" d="M-41 645q0 224 16 383t52.5 274t99.5 170.5t154 55.5q23 0 47 -6q-29 47 -29 104q0 105 87.5 185.5t191.5 80.5q12 0 23.5 -1t20 -2t19 -3.5t17 -3.5t16.5 -5t14 -5.5t14 -6t12.5 -6t13 -6.5t11.5 -6q13 -10 25 -10l4 4q72 39 139 39q91 0 135.5 -55.5t44.5 -136.5 q0 -36 -22.5 -83t-63.5 -85q41 12 82 12q67 0 120.5 -28.5t90.5 -81t63.5 -120t41.5 -153.5t21.5 -172t6.5 -184q0 -416 -84.5 -629.5t-238.5 -235.5l4 2q-20 -4 -49 -4q-211 0 -445 234q-39 -127 -119 -195.5t-184 -73.5q-95 0 -159 35.5t-108.5 122t-64.5 231.5t-20 365z M57 645q0 -253 27 -397t80.5 -201t144.5 -57q103 5 169 104.5t69 282.5q67 -77 120 -130.5t121 -109t136 -84t135 -28.5q21 0 31 2q114 16 176.5 204.5t62.5 561.5q0 641 -246 641q-66 0 -118.5 -46.5t-83 -121.5t-47 -155.5t-19.5 -162.5q-13 15 -57 68t-62.5 74.5 t-60.5 70t-65.5 71.5t-61 61t-63.5 57.5t-57 40.5t-57.5 30t-49.5 9q-123 0 -173.5 -191.5t-50.5 -593.5zM397 1626q0 -36 22.5 -60t57.5 -24q31 0 66.5 26.5t68.5 26.5q28 0 54 -14.5t58 -29.5t75 -15q85 0 137.5 52.5t52.5 99.5q0 39 -20.5 66.5t-61.5 27.5 q-40 0 -83 -21.5t-58 -21.5q-26 0 -52 13.5t-59.5 27.5t-76.5 14q-68 0 -124.5 -51t-56.5 -117zM479 1444q107 -79 271 -266q51 188 143 274q-51 -14 -94 -14q-42 0 -81.5 15t-67 29.5t-38.5 14.5q-6 0 -19.5 -10.5t-28 -22.5t-38 -19t-47.5 -1z" />
<glyph unicode="&#xd2;" horiz-adv-x="1292" d="M-41 727q0 161 36.5 294.5t102 226.5t147.5 154.5t181 94.5q-164 64 -164 199q0 89 57.5 150t153.5 61q55 0 146.5 -24.5t183.5 -64t158.5 -97t66.5 -115.5q0 -96 -84 -133q85 -37 153.5 -98.5t122.5 -152.5t83.5 -219.5t29.5 -285.5q0 -181 -35.5 -323t-97.5 -236.5 t-151 -156t-190.5 -88t-221.5 -26.5q-146 0 -268.5 53t-214.5 155t-143.5 264t-51.5 368zM57 727q0 -182 44 -325t122.5 -233t183.5 -136.5t230 -46.5q130 0 234.5 38.5t188 121.5t129.5 228t46 343q0 133 -23 242t-65 186.5t-97 134t-122.5 90t-137 49t-145.5 15.5 q-89 0 -172 -25t-159.5 -80.5t-133 -136t-90 -200.5t-33.5 -265zM360 1696q0 -78 115 -114t305 -36q150 0 150 60q0 39 -54.5 78t-130.5 65t-151 42.5t-121 16.5q-51 0 -82 -32.5t-31 -79.5zM512 793q0 58 36.5 101.5t100.5 43.5q61 0 95 -41t34 -98q0 -58 -36.5 -102 t-98.5 -44q-61 0 -96 41.5t-35 98.5zM610 793q0 -16 9.5 -27.5t25.5 -11.5q35 0 35 45q0 15 -10 26t-25 11q-35 0 -35 -43z" />
<glyph unicode="&#xd3;" horiz-adv-x="1292" d="M-41 727q0 147 30 270.5t85 213.5t125.5 154t156.5 103q-94 36 -94 138q0 58 66.5 115.5t158.5 97t183.5 64t146.5 24.5q98 0 154.5 -60.5t56.5 -150.5q0 -133 -158 -197q99 -30 180 -88t146 -150.5t101 -231t36 -312.5q0 -181 -35.5 -323t-97.5 -236.5t-151 -156 t-190.5 -88t-221.5 -26.5q-146 0 -268.5 53t-214.5 155t-143.5 264t-51.5 368zM57 727q0 -182 44 -325t122.5 -233t183.5 -136.5t230 -46.5q130 0 234.5 38.5t188 121.5t129.5 228t46 343q0 133 -23 242t-65 186.5t-97 134t-122.5 90t-137 49t-145.5 15.5q-89 0 -172 -25 t-159.5 -80.5t-133 -136t-90 -200.5t-33.5 -265zM360 1606q0 -60 150 -60q92 0 166 8t132 25t90 47t32 70q0 48 -30.5 80t-82.5 32q-46 0 -121 -16.5t-151 -42.5t-130.5 -65t-54.5 -78zM512 793q0 58 36.5 101.5t100.5 43.5q61 0 95 -41t34 -98q0 -58 -36.5 -102t-98.5 -44 q-61 0 -96 41.5t-35 98.5zM610 793q0 -16 9.5 -27.5t25.5 -11.5q35 0 35 45q0 15 -10 26t-25 11q-35 0 -35 -43z" />
<glyph unicode="&#xd4;" horiz-adv-x="1292" d="M-41 727q0 288 109.5 474.5t289.5 268.5q-30 47 -30 113q0 70 47 160t123.5 157.5t148.5 67.5q73 0 149 -70t122.5 -162.5t46.5 -162.5q0 -61 -23 -100q86 -37 155 -98.5t123 -152t83.5 -219t29.5 -286.5q0 -181 -35.5 -323t-97.5 -236.5t-151 -156t-190.5 -88 t-221.5 -26.5q-146 0 -268.5 53t-214.5 155t-143.5 264t-51.5 368zM57 727q0 -182 44 -325t122.5 -233t183.5 -136.5t230 -46.5q130 0 234.5 38.5t188 121.5t129.5 228t46 343q0 133 -23 242t-65 186.5t-97 134t-122.5 90t-137 49t-145.5 15.5q-89 0 -172 -25t-159.5 -80.5 t-133 -136t-90 -200.5t-33.5 -265zM426 1583q0 -34 17 -54t51 -20q63 0 100 47t51 117q28 -70 71.5 -119t94.5 -49q55 0 55 68q0 52 -32 122t-84.5 122.5t-102.5 52.5q-74 0 -147.5 -102t-73.5 -185zM512 793q0 58 36.5 101.5t100.5 43.5q61 0 95 -41t34 -98 q0 -58 -36.5 -102t-98.5 -44q-61 0 -96 41.5t-35 98.5zM610 793q0 -16 9.5 -27.5t25.5 -11.5q35 0 35 45q0 15 -10 26t-25 11q-35 0 -35 -43z" />
<glyph unicode="&#xd5;" horiz-adv-x="1292" d="M-41 727q0 144 29 266t82.5 212t121.5 154t152 105q-43 22 -67.5 65t-24.5 97q0 105 87 185.5t191 80.5q42 0 80.5 -14t65.5 -27.5t41 -13.5q8 0 52.5 21.5t90.5 21.5q91 0 135.5 -55.5t44.5 -136.5q0 -46 -34 -105t-93 -98q91 -34 164.5 -94.5t132 -151.5t91 -224 t32.5 -298q0 -181 -35.5 -323t-97.5 -236.5t-151 -156t-190.5 -88t-221.5 -26.5q-146 0 -268.5 53t-214.5 155t-143.5 264t-51.5 368zM57 727q0 -182 44 -325t122.5 -233t183.5 -136.5t230 -46.5q130 0 234.5 38.5t188 121.5t129.5 228t46 343q0 133 -23 242t-65 186.5 t-97 134t-122.5 90t-137 49t-145.5 15.5q-89 0 -172 -25t-159.5 -80.5t-133 -136t-90 -200.5t-33.5 -265zM350 1626q0 -36 22.5 -60t57.5 -24q31 0 66.5 26.5t68.5 26.5q28 0 54 -14.5t58 -29.5t75 -15q85 0 137.5 52.5t52.5 99.5q0 39 -20.5 66.5t-61.5 27.5 q-40 0 -83 -21.5t-58 -21.5q-29 0 -81 27.5t-108 27.5q-67 0 -123.5 -51t-56.5 -117zM512 793q0 58 36.5 101.5t100.5 43.5q61 0 95 -41t34 -98q0 -58 -36.5 -102t-98.5 -44q-61 0 -96 41.5t-35 98.5zM610 793q0 -16 9.5 -27.5t25.5 -11.5q35 0 35 45q0 15 -10 26t-25 11 q-35 0 -35 -43z" />
<glyph unicode="&#xd6;" horiz-adv-x="1292" d="M-41 727q0 276 101.5 458.5t271.5 270.5q-64 33 -98.5 94.5t-34.5 132.5q0 103 68 177.5t190 74.5q117 0 188 -71q71 71 186 71q123 0 192 -74t69 -175q0 -68 -32.5 -129t-92.5 -95q81 -40 145 -102t115 -151t78.5 -214.5t27.5 -277.5q0 -181 -35.5 -323t-97.5 -236.5 t-151 -156t-190.5 -88t-221.5 -26.5q-146 0 -268.5 53t-214.5 155t-143.5 264t-51.5 368zM57 727q0 -182 44 -325t122.5 -233t183.5 -136.5t230 -46.5q130 0 234.5 38.5t188 121.5t129.5 228t46 343q0 133 -23 242t-65 186.5t-97 134t-122.5 90t-137 49t-145.5 15.5 q-89 0 -172 -25t-159.5 -80.5t-133 -136t-90 -200.5t-33.5 -265zM297 1683q0 -63 43 -109t117 -46t116.5 47.5t42.5 110.5q0 62 -41 106.5t-118 44.5q-75 0 -117.5 -45.5t-42.5 -108.5zM512 793q0 58 36.5 101.5t100.5 43.5q61 0 95 -41t34 -98q0 -58 -36.5 -102t-98.5 -44 q-61 0 -96 41.5t-35 98.5zM610 793q0 -16 9.5 -27.5t25.5 -11.5q35 0 35 45q0 15 -10 26t-25 11q-35 0 -35 -43zM674 1683q0 -63 41.5 -109t115.5 -46q75 0 118.5 47.5t43.5 110.5q0 62 -42.5 106.5t-119.5 44.5q-75 0 -116 -45.5t-41 -108.5z" />
<glyph unicode="&#xd8;" horiz-adv-x="1265" d="M-57 727q0 165 39 301.5t105 228.5t155 155t186 91.5t201 28.5q111 0 217 -33q68 66 174 66q89 0 151 -61t62 -171q0 -39 -29 -121q113 -195 113 -495q0 -181 -35.5 -323t-97.5 -236.5t-151 -156t-190.5 -88t-221.5 -26.5q-118 0 -213 33q-92 -76 -195 -76 q-107 0 -172.5 75t-65.5 169q0 102 58 176q-90 205 -90 463zM41 727q0 -292 111 -481q-78 -63 -78 -158q0 -56 38 -100.5t101 -44.5q93 0 170 92q107 -49 238 -49q130 0 234.5 38.5t188 121.5t129.5 228t46 343q0 305 -123 485q5 13 14 38.5t13 37t8 27.5t4 28q0 63 -34 98 t-81 35q-89 0 -141 -82q-121 50 -250 50q-89 0 -172 -25t-159.5 -80.5t-133 -136t-90 -200.5t-33.5 -265zM496 793q0 58 36.5 101.5t100.5 43.5q61 0 95 -41t34 -98q0 -58 -36.5 -102t-98.5 -44q-61 0 -96 41.5t-35 98.5zM594 793q0 -17 8.5 -29t24.5 -12q18 0 27.5 14 t9.5 33q0 16 -8.5 28.5t-22.5 12.5q-18 0 -28.5 -14t-10.5 -33z" />
<glyph unicode="&#xd9;" horiz-adv-x="1284" d="M-41 856q0 314 94 487t256 173q27 0 88 -9q-139 63 -139 189q0 89 57.5 150t153.5 61q55 0 146.5 -24.5t183.5 -64t158.5 -97t66.5 -115.5q0 -48 -18 -78q174 -9 246.5 -166.5t72.5 -452.5q0 -102 -10.5 -201t-34.5 -200t-60 -189t-91 -165.5t-124.5 -132.5t-163 -87 t-202.5 -32q-112 0 -206 30t-163 82t-123 125.5t-89 156t-57.5 179t-32 189.5t-9.5 192zM57 856q0 -88 8 -172t27.5 -170.5t49.5 -160.5t76.5 -140t105 -112.5t139.5 -73.5t176 -27q109 0 199 38t153 105.5t110 154.5t74 191t39.5 207.5t12.5 212.5q0 124 -12 216.5 t-39.5 162.5t-75 106t-115.5 36q-44 0 -80.5 -10.5t-63 -29t-47.5 -45.5t-34 -59.5t-22.5 -70t-13.5 -78.5t-7 -84.5t-2 -87.5t0 -88v-43v-109q0 -136 -14 -202t-60 -66q-50 0 -69 50.5t-19 147.5q0 49 6 168.5t6 182.5q0 70 -5.5 125.5t-22 111t-44.5 92t-74.5 59.5 t-109.5 23q-117 0 -184.5 -147t-67.5 -414zM356 1696q0 -78 115 -114t305 -36q150 0 150 60q0 39 -54.5 78t-130.5 65t-151 42.5t-121 16.5q-51 0 -82 -32.5t-31 -79.5zM479 1479q120 -63 162 -234q25 130 104 203q-161 3 -266 31z" />
<glyph unicode="&#xda;" horiz-adv-x="1284" d="M-41 856q0 302 87.5 473.5t240.5 183.5q-29 36 -29 93q0 58 66.5 115.5t158.5 97t183.5 64t146.5 24.5q98 0 154.5 -60.5t56.5 -150.5q0 -111 -106 -172q40 4 67 4q95 0 162 -42.5t105.5 -126t55.5 -193t17 -257.5q0 -102 -10.5 -201t-34.5 -200t-60 -189t-91 -165.5 t-124.5 -132.5t-163 -87t-202.5 -32q-112 0 -206 30t-163 82t-123 125.5t-89 156t-57.5 179t-32 189.5t-9.5 192zM57 856q0 -88 8 -172t27.5 -170.5t49.5 -160.5t76.5 -140t105 -112.5t139.5 -73.5t176 -27q109 0 199 38t153 105.5t110 154.5t74 191t39.5 207.5t12.5 212.5 q0 124 -12 216.5t-39.5 162.5t-75 106t-115.5 36q-44 0 -80.5 -10.5t-63 -29t-47.5 -45.5t-34 -59.5t-22.5 -70t-13.5 -78.5t-7 -84.5t-2 -87.5t0 -88v-43v-109q0 -136 -14 -202t-60 -66q-50 0 -69 50.5t-19 147.5q0 49 6 168.5t6 182.5q0 70 -5.5 125.5t-22 111t-44.5 92 t-74.5 59.5t-109.5 23q-117 0 -184.5 -147t-67.5 -414zM356 1606q0 -60 150 -60q92 0 166 8t132 25t90 47t32 70q0 48 -30.5 80t-82.5 32q-46 0 -121 -16.5t-151 -42.5t-130.5 -65t-54.5 -78zM526 1448q82 -68 115 -203q34 160 135 228q-116 -25 -250 -25z" />
<glyph unicode="&#xdb;" horiz-adv-x="1284" d="M-41 856q0 314 94 487t256 173q4 0 12.5 -1.5t12.5 -1.5q-10 33 -10 70q0 70 47 160t123.5 157.5t148.5 67.5q73 0 149 -70t122.5 -162.5t46.5 -162.5q0 -12 -5 -47q5 0 14.5 1t14.5 1q95 0 162 -42.5t105.5 -126t55.5 -193t17 -257.5q0 -102 -10.5 -201t-34.5 -200 t-60 -189t-91 -165.5t-124.5 -132.5t-163 -87t-202.5 -32q-112 0 -206 30t-163 82t-123 125.5t-89 156t-57.5 179t-32 189.5t-9.5 192zM57 856q0 -88 8 -172t27.5 -170.5t49.5 -160.5t76.5 -140t105 -112.5t139.5 -73.5t176 -27q109 0 199 38t153 105.5t110 154.5t74 191 t39.5 207.5t12.5 212.5q0 124 -12 216.5t-39.5 162.5t-75 106t-115.5 36q-44 0 -80.5 -10.5t-63 -29t-47.5 -45.5t-34 -59.5t-22.5 -70t-13.5 -78.5t-7 -84.5t-2 -87.5t0 -88v-43v-109q0 -136 -14 -202t-60 -66q-50 0 -69 50.5t-19 147.5q0 49 6 168.5t6 182.5 q0 70 -5.5 125.5t-22 111t-44.5 92t-74.5 59.5t-109.5 23q-117 0 -184.5 -147t-67.5 -414zM422 1583q0 -74 67 -74q63 0 100.5 47.5t51.5 116.5q28 -70 71.5 -119t94.5 -49q55 0 55 68q0 52 -32 122t-84.5 122.5t-102.5 52.5q-74 0 -147.5 -102t-73.5 -185zM555 1419 q60 -63 86 -174q22 112 82 180q-36 16 -72 52q-41 -41 -96 -58z" />
<glyph unicode="&#xdc;" horiz-adv-x="1284" d="M-41 856q0 288 79.5 457t219.5 196q-63 69 -63 174q0 103 68 177.5t190 74.5q117 0 188 -71q71 71 186 71q123 0 191.5 -73.5t68.5 -175.5q0 -91 -53 -162q158 -21 224.5 -177t66.5 -438q0 -102 -10.5 -201t-34.5 -200t-60 -189t-91 -165.5t-124.5 -132.5t-163 -87 t-202.5 -32q-112 0 -206 30t-163 82t-123 125.5t-89 156t-57.5 179t-32 189.5t-9.5 192zM57 856q0 -88 8 -172t27.5 -170.5t49.5 -160.5t76.5 -140t105 -112.5t139.5 -73.5t176 -27q109 0 199 38t153 105.5t110 154.5t74 191t39.5 207.5t12.5 212.5q0 124 -12 216.5 t-39.5 162.5t-75 106t-115.5 36q-44 0 -80.5 -10.5t-63 -29t-47.5 -45.5t-34 -59.5t-22.5 -70t-13.5 -78.5t-7 -84.5t-2 -87.5t0 -88v-43v-109q0 -136 -14 -202t-60 -66q-50 0 -69 50.5t-19 147.5q0 49 6 168.5t6 182.5q0 70 -5.5 125.5t-22 111t-44.5 92t-74.5 59.5 t-109.5 23q-117 0 -184.5 -147t-67.5 -414zM293 1683q0 -63 43 -109t117 -46t116.5 47.5t42.5 110.5q0 62 -41 106.5t-118 44.5q-75 0 -117.5 -45.5t-42.5 -108.5zM537 1440q74 -66 104 -195q26 125 98 197q-63 19 -100 61q-42 -46 -102 -63zM670 1683q0 -63 41.5 -109 t115.5 -46q75 0 118.5 47.5t43.5 110.5q0 62 -42.5 106.5t-119.5 44.5q-75 0 -116 -45.5t-41 -108.5z" />
<glyph unicode="&#xdd;" horiz-adv-x="1134" d="M-72 1198q0 47 11 94.5t35 93.5t58.5 81.5t86.5 57t114 21.5q100 0 186 -84.5t148 -218.5q73 129 167 210t192 81q138 0 208 -83t70 -218q0 -144 -101.5 -326.5t-234.5 -310.5q39 -137 39 -268q0 -71 -12 -132.5t-40 -116.5t-71 -93.5t-108.5 -61t-149.5 -22.5 q-77 0 -139 25t-101.5 66t-66.5 98.5t-38 119.5t-11 131q0 123 37 242q-111 115 -195 290t-84 324zM27 1198q0 -148 93.5 -323.5t203.5 -262.5q-27 -58 -42.5 -135.5t-11.5 -161t28 -154t82.5 -116t145.5 -45.5q70 0 123 21.5t84.5 58.5t50 87.5t23 106.5t-1 118.5 t-18 120.5t-31.5 114q130 107 240 287t110 319q0 91 -45 147t-135 56q-59 0 -120 -46.5t-109.5 -119.5t-86 -155.5t-57.5 -160.5q-14 84 -42.5 169t-69 159t-95.5 120t-113 46q-68 0 -117 -41t-69 -95.5t-20 -113.5zM184 1606q0 58 66.5 115.5t158.5 97t183.5 64t146.5 24.5 q98 0 154.5 -60.5t56.5 -150.5q0 -67 -39.5 -116t-111.5 -77.5t-163 -41.5t-204 -13q-128 0 -188 38t-60 120zM283 1606q0 -60 149 -60q92 0 166 8t132 25t90 47t32 70q0 48 -30.5 80t-82.5 32q-46 0 -121 -16.5t-150.5 -42.5t-130 -65t-54.5 -78z" />
<glyph unicode="&#xdf;" horiz-adv-x="1114" d="M-31 680q0 234 35.5 398t109.5 264.5t179 146t252 45.5q153 0 270.5 -48.5t187.5 -148.5t70 -241q0 -138 -82 -248q164 -145 164 -412q0 -123 -44.5 -226.5t-115 -168.5t-153 -101t-162.5 -36q-136 0 -213 80q-65 -85 -193 -82q-45 0 -76.5 4.5t-64 18.5t-53.5 38t-41 64 t-32 96.5t-21 137t-13 183.5t-4 236zM68 680q0 -155 4.5 -264.5t16 -185.5t26 -121t40.5 -69t52.5 -31.5t68.5 -8.5q75 -1 115.5 55t58 185.5t17.5 367.5q0 138 4 230.5t10 144t18.5 77t24 31t31.5 5.5q24 0 39.5 -18.5t15.5 -47.5q0 -24 -11.5 -42.5t-28.5 -34t-34 -35.5 t-28.5 -57t-11.5 -89q0 -40 12.5 -68.5t32 -43t41.5 -31t41.5 -31t32 -43t12.5 -68.5q0 -36 -18.5 -64t-45 -47.5t-52.5 -40t-44.5 -53.5t-18.5 -77q0 -97 50 -150t141 -53q64 0 129.5 29.5t121 82.5t91 137.5t35.5 184.5q0 292 -221 400q139 98 139 260t-119.5 251 t-310.5 89q-121 0 -208.5 -40.5t-148.5 -129.5t-90.5 -234t-29.5 -352zM563 473q10 7 10 14q0 14 -10 21v-35z" />
<glyph unicode="&#xe0;" horiz-adv-x="1167" d="M-41 510q0 229 102 384t287 200q-147 62 -147 192q0 89 57.5 150t153.5 61q55 0 146.5 -24.5t183.5 -64t158.5 -97t66.5 -115.5q0 -49 -25 -88q46 -5 83 -23t71.5 -59t57.5 -103t36.5 -159.5t13.5 -224.5q0 -181 -23 -308t-67 -197.5t-99 -101t-128 -30.5q-84 0 -152 55 q-105 -55 -266 -55q-106 0 -197.5 39t-162 113t-110.5 191.5t-40 264.5zM57 510q0 -123 32.5 -221.5t89 -161t131 -95t159.5 -32.5q110 0 182.5 26t102.5 66q15 -39 53 -65.5t80 -26.5q50 0 88 26t68.5 85.5t46.5 167t16 260.5q0 116 -11 201.5t-29 137.5t-45.5 83t-56 42 t-65.5 11q-48 0 -87 -32.5t-56 -88.5q-75 121 -260 121q-203 0 -321 -138t-118 -366zM299 1286q0 -78 114.5 -113.5t305.5 -35.5q78 0 113.5 14t35.5 45q0 51 -91 100.5t-196 76t-169 26.5q-51 0 -82 -33t-31 -80zM442 532q0 43 30 75t85 32q44 0 72 -36.5t28 -82.5 q0 -42 -26 -71t-78 -29q-51 0 -81 33.5t-30 78.5zM541 530q0 -12 12 -12q10 0 10 10q0 13 -12 13q-10 0 -10 -11z" />
<glyph unicode="&#xe1;" horiz-adv-x="1167" d="M-41 510q0 203 81.5 349.5t231.5 209.5q-71 39 -71 127q0 58 66.5 115.5t158.5 97t183.5 64t146.5 24.5q98 0 154.5 -60.5t56.5 -150.5q0 -120 -125 -182q24 8 57 8q54 0 96 -13t82.5 -51t67.5 -100t43 -165.5t16 -243.5q0 -181 -23 -308t-67 -197.5t-99 -101t-128 -30.5 q-84 0 -152 55q-105 -55 -266 -55q-106 0 -197.5 39t-162 113t-110.5 191.5t-40 264.5zM57 510q0 -123 32.5 -221.5t89 -161t131 -95t159.5 -32.5q110 0 182.5 26t102.5 66q15 -39 53 -65.5t80 -26.5q50 0 88 26t68.5 85.5t46.5 167t16 260.5q0 116 -11 201.5t-29 137.5 t-45.5 83t-56 42t-65.5 11q-48 0 -87 -32.5t-56 -88.5q-75 121 -260 121q-203 0 -321 -138t-118 -366zM299 1196q0 -59 150 -59q419 0 419 149q0 48 -30 80.5t-82 32.5q-64 0 -169.5 -26.5t-196.5 -76t-91 -100.5zM442 532q0 43 30 75t85 32q44 0 72 -36.5t28 -82.5 q0 -42 -26 -71t-78 -29q-51 0 -81 33.5t-30 78.5zM541 530q0 -12 12 -12q10 0 10 10q0 13 -12 13q-10 0 -10 -11zM715 1061l24 -12q9 8 43 32q-25 -10 -67 -20z" />
<glyph unicode="&#xe2;" horiz-adv-x="1167" d="M-41 510q0 208 86 355.5t242 207.5q-23 42 -23 101q0 70 47.5 160t124 157.5t148.5 67.5q55 0 114 -42.5t102.5 -103.5t72 -129.5t28.5 -120.5q0 -23 -4 -51h2q54 0 96 -13t82.5 -51t67.5 -100t43 -165.5t16 -243.5q0 -181 -23 -308t-67 -197.5t-99 -101t-128 -30.5 q-84 0 -152 55q-105 -55 -266 -55q-106 0 -197.5 39t-162 113t-110.5 191.5t-40 264.5zM57 510q0 -123 32.5 -221.5t89 -161t131 -95t159.5 -32.5q110 0 182.5 26t102.5 66q15 -39 53 -65.5t80 -26.5q50 0 88 26t68.5 85.5t46.5 167t16 260.5q0 116 -11 201.5t-29 137.5 t-45.5 83t-56 42t-65.5 11q-48 0 -87 -32.5t-56 -88.5q-75 121 -260 121q-203 0 -321 -138t-118 -366zM362 1174q0 -34 17 -54t51 -20q63 0 100.5 47.5t51.5 116.5q28 -70 71.5 -119t94.5 -49q55 0 55 67q0 52 -32 122t-84.5 122.5t-102.5 52.5q-74 0 -148 -101.5 t-74 -184.5zM442 532q0 43 30 75t85 32q44 0 72 -36.5t28 -82.5q0 -42 -26 -71t-78 -29q-51 0 -81 33.5t-30 78.5zM541 530q0 -12 12 -12q10 0 10 10q0 13 -12 13q-10 0 -10 -11z" />
<glyph unicode="&#xe3;" horiz-adv-x="1167" d="M-41 510q0 200 79 345.5t224 209.5q-34 25 -54 65t-20 87q0 105 87.5 185.5t191.5 80.5q42 0 80 -14t65 -28t41 -14q8 0 53 21.5t91 21.5q91 0 135.5 -55.5t44.5 -136.5q0 -36 -22.5 -82t-61.5 -84h6q54 0 96 -13t82.5 -51t67.5 -100t43 -165.5t16 -243.5 q0 -181 -23 -308t-67 -197.5t-99 -101t-128 -30.5q-84 0 -152 55q-105 -55 -266 -55q-106 0 -197.5 39t-162 113t-110.5 191.5t-40 264.5zM57 510q0 -123 32.5 -221.5t89 -161t131 -95t159.5 -32.5q110 0 182.5 26t102.5 66q15 -39 53 -65.5t80 -26.5q50 0 88 26t68.5 85.5 t46.5 167t16 260.5q0 116 -11 201.5t-29 137.5t-45.5 83t-56 42t-65.5 11q-48 0 -87 -32.5t-56 -88.5q-75 121 -260 121q-203 0 -321 -138t-118 -366zM287 1217q0 -36 22.5 -60t57.5 -24q31 0 66.5 26.5t68.5 26.5q28 0 53.5 -15t57.5 -30t75 -15q85 0 138 52.5t53 99.5 q0 39 -20.5 66.5t-61.5 27.5q-40 0 -83.5 -21.5t-58.5 -21.5q-29 0 -81 27.5t-107 27.5q-68 0 -124 -50.5t-56 -116.5zM442 532q0 43 30 75t85 32q44 0 72 -36.5t28 -82.5q0 -42 -26 -71t-78 -29q-51 0 -81 33.5t-30 78.5zM541 530q0 -12 12 -12q10 0 10 10q0 13 -12 13 q-10 0 -10 -11z" />
<glyph unicode="&#xe4;" horiz-adv-x="1167" d="M-41 510q0 195 76 338.5t215 210.5q-54 34 -83.5 92t-29.5 123q0 103 68 177.5t190 74.5q117 0 189 -72q72 72 186 72q123 0 191.5 -74t68.5 -176q0 -100 -61 -170q53 -12 93.5 -44.5t73.5 -95.5t50.5 -170.5t17.5 -256.5q0 -181 -23 -308t-67 -197.5t-99 -101 t-128 -30.5q-84 0 -152 55q-105 -55 -266 -55q-106 0 -197.5 39t-162 113t-110.5 191.5t-40 264.5zM57 510q0 -123 32.5 -221.5t89 -161t131 -95t159.5 -32.5q110 0 182.5 26t102.5 66q15 -39 53 -65.5t80 -26.5q50 0 88 26t68.5 85.5t46.5 167t16 260.5q0 116 -11 201.5 t-29 137.5t-45.5 83t-56 42t-65.5 11q-48 0 -87 -32.5t-56 -88.5q-75 121 -260 121q-203 0 -321 -138t-118 -366zM236 1274q0 -63 42.5 -109.5t116.5 -46.5t117 47.5t43 110.5q0 62 -41.5 106.5t-118.5 44.5q-75 0 -117 -45t-42 -108zM442 532q0 43 30 75t85 32 q44 0 72 -36.5t28 -82.5q0 -42 -26 -71t-78 -29q-51 0 -81 33.5t-30 78.5zM541 530q0 -12 12 -12q10 0 10 10q0 13 -12 13q-10 0 -10 -11zM612 1274q0 -63 42 -109.5t116 -46.5q75 0 118.5 47.5t43.5 110.5q0 62 -42.5 106.5t-119.5 44.5q-75 0 -116.5 -45t-41.5 -108z" />
<glyph unicode="&#xe5;" horiz-adv-x="1167" d="M-41 510q0 225 99 379t278 203q-60 78 -60 182q0 116 78.5 200.5t220.5 84.5q148 0 231 -85.5t83 -201.5q0 -97 -55 -170q33 10 65 10q54 0 96 -13t82.5 -51t67.5 -100t43 -165.5t16 -243.5q0 -181 -23 -308t-67 -197.5t-99 -101t-128 -30.5q-84 0 -152 55 q-105 -55 -266 -55q-106 0 -197.5 39t-162 113t-110.5 191.5t-40 264.5zM57 510q0 -123 32.5 -221.5t89 -161t131 -95t159.5 -32.5q110 0 182.5 26t102.5 66q15 -39 53 -65.5t80 -26.5q50 0 88 26t68.5 85.5t46.5 167t16 260.5q0 116 -11 201.5t-29 137.5t-45.5 83t-56 42 t-65.5 11q-48 0 -87 -32.5t-56 -88.5q-75 121 -260 121q-203 0 -321 -138t-118 -366zM375 1274q0 -76 52.5 -133.5t143.5 -57.5q103 0 161.5 56.5t58.5 132.5t-57.5 132t-158.5 56q-96 0 -148 -55t-52 -131zM442 532q0 43 30 75t85 32q44 0 72 -36.5t28 -82.5q0 -42 -26 -71 t-78 -29q-51 0 -81 33.5t-30 78.5zM518 1288q0 -24 17.5 -42.5t44.5 -18.5q29 0 44 18t15 43t-16 43.5t-45 18.5t-44.5 -18.5t-15.5 -43.5zM541 530q0 -12 12 -12q10 0 10 10q0 13 -12 13q-10 0 -10 -11zM567 1288q0 3 3.5 6.5t7.5 3.5q10 0 10 -10t-10 -10q-11 0 -11 10z " />
<glyph unicode="&#xe6;" horiz-adv-x="1775" d="M-41 510q0 275 157.5 438.5t444.5 163.5q137 0 248 -72q75 72 172 72q84 0 137 -37q81 37 178 37q110 0 198.5 -25.5t147 -69t97.5 -103.5t56 -126.5t17 -140.5q0 -140 -73 -213q78 -65 78 -172q0 -62 -30.5 -123.5t-88.5 -115.5t-156.5 -87.5t-220.5 -33.5 q-121 0 -229 43q-54 -43 -138 -43q-82 0 -143 55q-117 -55 -281 -55q-160 0 -290.5 78.5t-205.5 218t-75 311.5zM57 510q0 -219 135.5 -364.5t337.5 -145.5q214 0 306 92q16 -41 47 -66.5t71 -25.5q73 0 119 63q101 -63 248 -63q98 0 177 24.5t125 63.5t70.5 84t24.5 90 q0 52 -29.5 85.5t-72.5 33.5q-31 0 -114.5 -21.5t-133.5 -21.5q-171 0 -190 125q80 -25 219 -25q171 0 244 51t73 158q0 74 -23 137.5t-70.5 116t-130.5 83t-194 30.5q-103 0 -198 -64q-38 64 -117 64q-47 0 -88.5 -31t-69.5 -84q-104 115 -262 115q-240 0 -372 -137 t-132 -367zM483 532q0 43 30 75t85 32q44 0 72 -36.5t28 -82.5q0 -42 -26 -71t-78 -29q-51 0 -81 33.5t-30 78.5zM578 526q0 -6 5 -11t11 -5t11 5t5 11t-5 11.5t-11 5.5t-11 -5.5t-5 -11.5zM1286 676q0 33 19.5 57.5t52.5 24.5q36 0 56 -24.5t20 -57.5q0 -32 -18.5 -55 t-51.5 -23q-37 0 -57.5 23t-20.5 55zM1346 678q0 -6 5 -11t11 -5t11 5t5 11t-5 11t-11 5t-11 -5t-5 -11z" />
<glyph unicode="&#xe7;" horiz-adv-x="958" d="M-41 508q0 148 49.5 268t133.5 195t190.5 115t224.5 40q109 0 203 -33t155.5 -102t61.5 -162q0 -69 -21.5 -122.5t-53 -84t-74 -49.5t-78.5 -25.5t-72 -6.5q-12 0 -47 7.5t-54.5 5t-19.5 -23.5q0 -18 9.5 -26.5t26 -8t33 3.5t36.5 7t30 4q307 0 307 -293 q0 -114 -71 -188.5t-199 -106.5q43 -64 43 -172q0 -64 -29 -115.5t-75 -82t-98.5 -46.5t-104.5 -16q-49 0 -89 17.5t-62.5 44.5t-34 56.5t-11.5 57.5q0 97 49 139q-32 32 -32 97q0 29 2 43q-158 64 -243 210t-85 353zM57 508q0 -203 90.5 -332t262.5 -164q-27 -62 -27 -110 q0 -22 14.5 -36t32.5 -19.5t32.5 -19t14.5 -34.5t-17 -31.5t-38 -13.5t-38 -23t-17 -59q0 -28 25 -53t73 -25t94 16.5t80.5 55t34.5 90.5q0 136 -119 176q26 49 33 74q145 8 229 64t84 153q0 195 -209 195q-20 0 -63 -7.5t-62 -7.5q-51 0 -79.5 29.5t-28.5 103.5 q0 125 96 125q24 0 63 -8t60 -8q32 0 62.5 8t64 26.5t54 59t20.5 96.5q0 92 -95.5 145.5t-226.5 53.5q-99 0 -188 -34t-159 -97t-111.5 -164t-41.5 -225z" />
<glyph unicode="&#xe8;" horiz-adv-x="989" d="M-45 504q0 223 96 369t246 206q-186 63 -186 207q0 89 57.5 150t153.5 61q55 0 146.5 -24.5t183.5 -64t158.5 -97t66.5 -115.5q0 -97 -89 -135q122 -56 183 -162t61 -246q0 -125 -82 -204q82 -67 82 -191q0 -72 -30.5 -137t-89.5 -118t-157.5 -84.5t-224.5 -31.5 q-271 0 -423 167t-152 450zM53 504q0 -238 126 -378t351 -140q102 0 181.5 23t126.5 62t71.5 86.5t24.5 100.5q0 62 -34 99.5t-95 37.5q-45 0 -111 -35.5t-108 -35.5q-70 0 -111 34.5t-22 98.5q67 -14 133.5 -16.5t129.5 8.5t111.5 35t77.5 67.5t29 101.5q0 167 -110.5 267 t-331.5 100q-80 0 -155.5 -31.5t-140 -92t-104 -162.5t-39.5 -230zM209 1286q0 -78 114.5 -113.5t305.5 -35.5q78 0 113.5 14t35.5 45q0 51 -91 100.5t-196 76t-169 26.5q-51 0 -82 -33t-31 -80zM479 682q0 31 19 53.5t53 22.5q37 0 57.5 -22.5t20.5 -55.5q0 -31 -19 -53.5 t-53 -22.5q-37 0 -57.5 23t-20.5 55zM539 680q0 -14 14 -14t14 14t-14 14t-14 -14z" />
<glyph unicode="&#xe9;" horiz-adv-x="989" d="M-45 504q0 198 77.5 336t203.5 211q-125 29 -125 145q0 58 66.5 115.5t158.5 97t183.5 64t146.5 24.5q98 0 154.5 -60.5t56.5 -150.5q0 -136 -162 -199q159 -46 238 -159.5t79 -274.5q0 -125 -82 -204q82 -67 82 -191q0 -72 -30.5 -137t-89.5 -118t-157.5 -84.5 t-224.5 -31.5q-271 0 -423 167t-152 450zM53 504q0 -238 126 -378t351 -140q102 0 181.5 23t126.5 62t71.5 86.5t24.5 100.5q0 62 -34 99.5t-95 37.5q-45 0 -111 -35.5t-108 -35.5q-70 0 -111 34.5t-22 98.5q67 -14 133.5 -16.5t129.5 8.5t111.5 35t77.5 67.5t29 101.5 q0 167 -110.5 267t-331.5 100q-80 0 -155.5 -31.5t-140 -92t-104 -162.5t-39.5 -230zM209 1196q0 -59 149 -59q420 0 420 149q0 48 -30 80.5t-82 32.5q-64 0 -169.5 -26.5t-196.5 -76t-91 -100.5zM479 682q0 31 19 53.5t53 22.5q37 0 57.5 -22.5t20.5 -55.5q0 -31 -19 -53.5 t-53 -22.5q-37 0 -57.5 23t-20.5 55zM539 680q0 -14 14 -14t14 14t-14 14t-14 -14z" />
<glyph unicode="&#xea;" horiz-adv-x="989" d="M-45 504q0 196 74.5 333.5t197.5 209.5q-51 39 -51 127q0 70 47.5 160t124 157.5t148.5 67.5q55 0 114 -42.5t102.5 -103.5t72 -129.5t28.5 -120.5q0 -63 -29 -100q123 -57 185.5 -163.5t62.5 -246.5q0 -125 -82 -204q82 -67 82 -191q0 -72 -30.5 -137t-89.5 -118 t-157.5 -84.5t-224.5 -31.5q-271 0 -423 167t-152 450zM53 504q0 -238 126 -378t351 -140q102 0 181.5 23t126.5 62t71.5 86.5t24.5 100.5q0 62 -34 99.5t-95 37.5q-45 0 -111 -35.5t-108 -35.5q-70 0 -111 34.5t-22 98.5q67 -14 133.5 -16.5t129.5 8.5t111.5 35t77.5 67.5 t29 101.5q0 167 -110.5 267t-331.5 100q-80 0 -155.5 -31.5t-140 -92t-104 -162.5t-39.5 -230zM274 1174q0 -34 17 -54t51 -20q63 0 100.5 47.5t51.5 116.5q28 -71 71 -119.5t94 -48.5q56 0 56 67q0 52 -32 122t-84.5 122.5t-102.5 52.5q-74 0 -148 -101.5t-74 -184.5z M479 682q0 31 19 53.5t53 22.5q37 0 57.5 -22.5t20.5 -55.5q0 -31 -19 -53.5t-53 -22.5q-37 0 -57.5 23t-20.5 55zM539 680q0 -14 14 -14t14 14t-14 14t-14 -14z" />
<glyph unicode="&#xeb;" horiz-adv-x="989" d="M-45 504q0 188 70 322t186 208q-77 27 -120.5 94t-43.5 146q0 103 68 177.5t190 74.5q117 0 189 -72q72 72 186 72q123 0 191.5 -74t68.5 -176q0 -70 -33.5 -131t-95.5 -94q111 -59 166 -161.5t55 -236.5q0 -125 -82 -204q82 -67 82 -191q0 -72 -30.5 -137t-89.5 -118 t-157.5 -84.5t-224.5 -31.5q-271 0 -423 167t-152 450zM53 504q0 -238 126 -378t351 -140q102 0 181.5 23t126.5 62t71.5 86.5t24.5 100.5q0 62 -34 99.5t-95 37.5q-45 0 -111 -35.5t-108 -35.5q-70 0 -111 34.5t-22 98.5q67 -14 133.5 -16.5t129.5 8.5t111.5 35t77.5 67.5 t29 101.5q0 167 -110.5 267t-331.5 100q-80 0 -155.5 -31.5t-140 -92t-104 -162.5t-39.5 -230zM145 1274q0 -63 43 -109.5t117 -46.5t117 47.5t43 110.5q0 62 -41.5 106.5t-118.5 44.5q-75 0 -117.5 -45t-42.5 -108zM479 682q0 31 19 53.5t53 22.5q37 0 57.5 -22.5 t20.5 -55.5q0 -31 -19 -53.5t-53 -22.5q-37 0 -57.5 23t-20.5 55zM522 1274q0 -63 42 -109.5t116 -46.5q75 0 118.5 47.5t43.5 110.5q0 62 -42.5 106.5t-119.5 44.5q-75 0 -116.5 -45t-41.5 -108zM539 680q0 -14 14 -14t14 14t-14 14t-14 -14z" />
<glyph unicode="&#xec;" horiz-adv-x="577" d="M-94 1286q0 89 57.5 150t153.5 61q55 0 146.5 -24.5t183.5 -64t158.5 -97t66.5 -115.5q0 -77 -52 -115.5t-165 -42.5q159 -114 159 -473q0 -252 -33.5 -397.5t-101 -205.5t-182.5 -60q-167 0 -250.5 153.5t-83.5 487.5q0 234 44.5 357t142.5 163q-244 58 -244 223z M4 1286q0 -78 114.5 -113.5t305.5 -35.5q78 0 113.5 14t35.5 45q0 51 -91 100.5t-196 76t-169 26.5q-51 0 -82 -33t-31 -80zM61 543q0 -283 59 -413t177 -130q79 0 126 51.5t70 175.5t23 338q0 424 -227 424q-82 0 -131 -42t-73 -139.5t-24 -264.5z" />
<glyph unicode="&#xed;" horiz-adv-x="577" d="M-94 1196q0 58 66.5 115.5t158.5 97t183.5 64t146.5 24.5q98 0 154.5 -60.5t56.5 -150.5q0 -170 -256 -225q198 -94 198 -496q0 -252 -33.5 -397.5t-101 -205.5t-182.5 -60q-167 0 -250.5 153.5t-83.5 487.5q0 206 34 324.5t109 170.5q-103 7 -151.5 45.5t-48.5 112.5z M4 1196q0 -59 150 -59q419 0 419 149q0 48 -30 80.5t-82 32.5q-64 0 -169.5 -26.5t-196.5 -76t-91 -100.5zM61 543q0 -283 59 -413t177 -130q79 0 126 51.5t70 175.5t23 338q0 424 -227 424q-82 0 -131 -42t-73 -139.5t-24 -264.5z" />
<glyph unicode="&#xee;" horiz-adv-x="577" d="M-37 543q0 349 109 467q-103 29 -103 164q0 70 47.5 160t124 157.5t148.5 67.5q55 0 114 -42.5t102.5 -103.5t72 -129.5t28.5 -120.5q0 -142 -110 -162q118 -127 118 -436q0 -252 -33.5 -397.5t-101 -205.5t-182.5 -60q-167 0 -250.5 153.5t-83.5 487.5zM61 543 q0 -283 59 -413t177 -130q79 0 126 51.5t70 175.5t23 338q0 424 -227 424q-82 0 -131 -42t-73 -139.5t-24 -264.5zM68 1174q0 -74 67 -74q63 0 100.5 47.5t51.5 116.5q28 -70 71.5 -119t94.5 -49q55 0 55 67q0 52 -32 122t-84.5 122.5t-102.5 52.5q-74 0 -147.5 -101.5 t-73.5 -184.5z" />
<glyph unicode="&#xef;" horiz-adv-x="577" d="M-158 1274q0 103 68 177.5t190 74.5q117 0 189 -72q72 72 186 72q123 0 191.5 -74t68.5 -176q0 -103 -68.5 -179t-187.5 -77q135 -123 135 -455q0 -252 -33.5 -397.5t-101 -205.5t-182.5 -60q-167 0 -250.5 153.5t-83.5 487.5q0 189 28.5 303.5t90.5 173.5 q-111 6 -175.5 80.5t-64.5 173.5zM-59 1274q0 -63 42.5 -109.5t116.5 -46.5t117 47.5t43 110.5q0 62 -41.5 106.5t-118.5 44.5q-75 0 -117 -45t-42 -108zM61 543q0 -283 59 -413t177 -130q79 0 126 51.5t70 175.5t23 338q0 424 -227 424q-82 0 -131 -42t-73 -139.5 t-24 -264.5zM317 1274q0 -63 42 -109.5t116 -46.5q75 0 118.5 47.5t43.5 110.5q0 62 -42.5 106.5t-119.5 44.5q-75 0 -116.5 -45t-41.5 -108z" />
<glyph unicode="&#xf1;" horiz-adv-x="1107" d="M-35 471q0 144 11.5 252.5t30.5 177.5t49.5 113t63.5 63t77 25q-37 46 -37 115q0 105 87 185.5t191 80.5q42 0 80.5 -14t65.5 -28t41 -14q8 0 52.5 21.5t90.5 21.5q91 0 135.5 -55.5t44.5 -136.5q0 -44 -32.5 -101t-88.5 -96q161 -59 241.5 -221t80.5 -401 q0 -299 -76.5 -428t-247.5 -129q-67 0 -116 19t-78 55t-44.5 78.5t-21.5 99.5q-9 -55 -27 -97.5t-49.5 -79t-83 -56t-120.5 -19.5q-62 0 -110 17.5t-88.5 59t-66.5 106.5t-40.5 162t-14.5 224zM63 471q0 -131 15 -223.5t45 -146t69.5 -77.5t92.5 -24q70 0 113 32.5t58.5 85 t20 115.5t4.5 126t5 115.5t28 85t68 32.5q39 0 57.5 -32.5t20.5 -85t-1 -115.5t-1 -126t14.5 -115.5t50.5 -85t102 -32.5q119 0 172.5 106.5t53.5 352.5q0 256 -102.5 405.5t-303.5 149.5q-87 0 -161 -39t-99 -96q-10 65 -47.5 97t-93.5 32q-43 0 -73 -19.5t-56 -74 t-39 -165t-13 -278.5zM258 1217q0 -36 22.5 -60t57.5 -24q31 0 66.5 26.5t68.5 26.5q28 0 53.5 -15t57.5 -30t75 -15q85 0 138 52.5t53 99.5q0 39 -20.5 66.5t-61.5 27.5q-40 0 -83 -21.5t-58 -21.5q-29 0 -81 27.5t-108 27.5q-68 0 -124 -50.5t-56 -116.5zM408 1049 q0 -5 4 -5q53 30 80 39q-12 4 -19 4q-8 0 -27.5 -15.5t-37.5 -22.5z" />
<glyph unicode="&#xf2;" horiz-adv-x="1073" d="M-59 520q0 221 95.5 366.5t260.5 203.5q-160 64 -160 196q0 89 57.5 150t153.5 61q55 0 146.5 -24.5t183.5 -64t158.5 -97t66.5 -115.5q0 -96 -84 -133q283 -138 283 -545q0 -292 -152.5 -460.5t-419.5 -168.5q-275 0 -432 163.5t-157 467.5zM39 520q0 -257 131 -394.5 t360 -137.5q221 0 347.5 142t126.5 388q0 255 -129.5 381.5t-356.5 126.5q-212 0 -345.5 -131t-133.5 -375zM236 1286q0 -78 114 -113.5t305 -35.5q150 0 150 59q0 51 -91 100.5t-196.5 76t-169.5 26.5q-51 0 -81.5 -33t-30.5 -80zM428 561q0 43 26.5 75t73.5 32 q50 0 75.5 -33t25.5 -78q0 -43 -26 -74.5t-73 -31.5q-48 0 -75 32.5t-27 77.5zM518 559q0 -10 10 -10q13 0 13 10q0 4 -4 8t-9 4q-10 0 -10 -12z" />
<glyph unicode="&#xf3;" horiz-adv-x="1073" d="M-59 520q0 198 76.5 335.5t211.5 205.5q-92 37 -92 135q0 58 66.5 115.5t158.5 97t183.5 64t146.5 24.5q98 0 154.5 -60.5t56.5 -150.5q0 -131 -155 -194q169 -54 261.5 -198t92.5 -376q0 -292 -152.5 -460.5t-419.5 -168.5q-275 0 -432 163.5t-157 467.5zM39 520 q0 -257 131 -394.5t360 -137.5q221 0 347.5 142t126.5 388q0 255 -129.5 381.5t-356.5 126.5q-212 0 -345.5 -131t-133.5 -375zM236 1196q0 -59 149 -59q420 0 420 149q0 48 -30.5 80.5t-82.5 32.5q-64 0 -169 -26.5t-196 -76t-91 -100.5zM428 561q0 43 26.5 75t73.5 32 q50 0 75.5 -33t25.5 -78q0 -43 -26 -74.5t-73 -31.5q-48 0 -75 32.5t-27 77.5zM518 559q0 -10 10 -10q13 0 13 10q0 4 -4 8t-9 4q-10 0 -10 -12z" />
<glyph unicode="&#xf4;" horiz-adv-x="1073" d="M-59 520q0 198 77 335.5t213 205.5q-30 38 -30 113q0 70 47 160t123.5 157.5t148.5 67.5q73 0 149 -70t122.5 -163t46.5 -163q0 -56 -23 -100q138 -65 212.5 -201t74.5 -344q0 -292 -152.5 -460.5t-419.5 -168.5q-275 0 -432 163.5t-157 467.5zM39 520q0 -257 131 -394.5 t360 -137.5q221 0 347.5 142t126.5 388q0 255 -129.5 381.5t-356.5 126.5q-212 0 -345.5 -131t-133.5 -375zM299 1174q0 -34 17 -54t51 -20q63 0 100 47t51 117q29 -71 71 -119.5t93 -48.5h2q55 0 55 67q0 52 -32 122t-84.5 122.5t-102.5 52.5q-74 0 -147.5 -101.5 t-73.5 -184.5zM428 561q0 43 26.5 75t73.5 32q50 0 75.5 -33t25.5 -78q0 -43 -26 -74.5t-73 -31.5q-48 0 -75 32.5t-27 77.5zM518 559q0 -10 10 -10q13 0 13 10q0 4 -4 8t-9 4q-10 0 -10 -12z" />
<glyph unicode="&#xf5;" horiz-adv-x="1073" d="M-59 520q0 194 73 329.5t203 205.5q-43 22 -67.5 65t-24.5 97q0 105 87 185.5t191 80.5q42 0 80.5 -14t65.5 -28t41 -14q8 0 52.5 21.5t90.5 21.5q91 0 135.5 -55.5t44.5 -136.5q0 -45 -33.5 -103.5t-91.5 -97.5q314 -129 314 -559q0 -292 -152.5 -460.5t-419.5 -168.5 q-275 0 -432 163.5t-157 467.5zM39 520q0 -257 131 -394.5t360 -137.5q221 0 347.5 142t126.5 388q0 255 -129.5 381.5t-356.5 126.5q-212 0 -345.5 -131t-133.5 -375zM223 1217q0 -36 22.5 -60t57.5 -24q31 0 66.5 26.5t68.5 26.5q28 0 54 -15t58 -30t75 -15 q85 0 137.5 52.5t52.5 99.5q0 39 -20.5 66.5t-61.5 27.5q-40 0 -83 -21.5t-58 -21.5q-26 0 -52.5 13.5t-60 27.5t-76.5 14q-68 0 -124 -50.5t-56 -116.5zM428 561q0 43 26.5 75t73.5 32q50 0 75.5 -33t25.5 -78q0 -43 -26 -74.5t-73 -31.5q-48 0 -75 32.5t-27 77.5zM518 559 q0 -10 10 -10q13 0 13 10q0 4 -4 8t-9 4q-10 0 -10 -12z" />
<glyph unicode="&#xf6;" horiz-adv-x="1073" d="M-59 520q0 190 70.5 324t195.5 205q-64 31 -98.5 93t-34.5 132q0 103 68 177.5t190 74.5q116 0 188 -72q72 72 187 72q123 0 191.5 -74t68.5 -176q0 -69 -33 -129.5t-94 -93.5q262 -144 262 -535q0 -292 -152.5 -460.5t-419.5 -168.5q-275 0 -432 163.5t-157 467.5z M39 520q0 -257 131 -394.5t360 -137.5q221 0 347.5 142t126.5 388q0 255 -129.5 381.5t-356.5 126.5q-212 0 -345.5 -131t-133.5 -375zM172 1274q0 -63 43 -109.5t117 -46.5t117 47.5t43 110.5q0 62 -41.5 106.5t-118.5 44.5q-75 0 -117.5 -45t-42.5 -108zM428 561 q0 43 26.5 75t73.5 32q50 0 75.5 -33t25.5 -78q0 -43 -26 -74.5t-73 -31.5q-48 0 -75 32.5t-27 77.5zM518 559q0 -10 10 -10q13 0 13 10q0 4 -4 8t-9 4q-10 0 -10 -12zM549 1274q0 -63 42 -109.5t116 -46.5q75 0 118 47.5t43 110.5q0 62 -42 106.5t-119 44.5 q-75 0 -116.5 -45t-41.5 -108z" />
<glyph unicode="&#xf8;" horiz-adv-x="1040" d="M-59 528q0 148 44 264t122.5 190t182.5 112.5t228 38.5q90 0 174 -19q64 53 154 53q94 0 163.5 -61t69.5 -156q0 -68 -28 -135q51 -124 51 -289q0 -307 -150.5 -467.5t-421.5 -160.5q-71 0 -139 12q-87 -78 -201 -78q-54 0 -101.5 21t-82.5 72t-35 124q0 75 41 133 q-71 139 -71 346zM39 528q0 -223 96 -358q-65 -47 -65 -121q0 -58 36.5 -88.5t83.5 -30.5q104 0 170 88q67 -22 170 -22q225 0 349.5 135.5t124.5 394.5q0 172 -64 291q41 71 41 133q0 52 -40 85.5t-95 33.5q-77 0 -125 -65q-92 30 -203 30q-212 0 -345.5 -131t-133.5 -375z M428 569q0 43 26.5 75t73.5 32q50 0 75.5 -33t25.5 -78q0 -43 -26 -74.5t-73 -31.5q-48 0 -75 32.5t-27 77.5zM510 569q0 -20 20 -20q21 0 21 20q0 9 -6 15t-15 6q-20 0 -20 -21z" />
<glyph unicode="&#xf9;" horiz-adv-x="1083" d="M-43 506q0 307 75 449.5t238 154.5q-112 62 -112 176q0 89 57.5 150t153.5 61q55 0 146.5 -24.5t183.5 -64t158.5 -97t66.5 -115.5q0 -56 -27 -90q70 -13 114.5 -56.5t69.5 -127.5t34 -192t9 -273q0 -214 -29 -338t-80 -170.5t-134 -46.5q-120 0 -179 65 q-100 -65 -256 -65q-105 0 -192.5 36t-154.5 108t-104.5 189.5t-37.5 270.5zM55 506q0 -252 108.5 -379t282.5 -127q193 0 283 129q26 -129 152 -129q50 0 80 38.5t47.5 140.5t17.5 278q0 103 -3 177t-11 140t-22 108t-35.5 73.5t-52 45t-71.5 13.5q-68 0 -109 -33 t-55 -85.5t-18.5 -116.5t-6 -128t-10 -116.5t-37.5 -85.5t-81 -33q-39 0 -57.5 27t-18 73.5t7 93.5t15 104.5t8.5 88.5q0 211 -162 211q-131 0 -191.5 -119t-60.5 -389zM256 1286q0 -78 114.5 -113.5t305.5 -35.5q78 0 113.5 14t35.5 45q0 51 -91 100.5t-196 76t-169 26.5 q-51 0 -82 -33t-31 -80zM487 1049q57 -54 74 -166q17 99 70 155q-61 0 -144 11z" />
<glyph unicode="&#xfa;" horiz-adv-x="1083" d="M-43 506q0 266 57.5 408t178.5 182q-35 35 -35 100q0 58 66.5 115.5t158.5 97t183.5 64t146.5 24.5q98 0 154.5 -60.5t56.5 -150.5q0 -112 -111 -174q79 0 133.5 -25t89.5 -72t54.5 -130.5t26.5 -182t7 -245.5q0 -214 -29 -338t-80 -170.5t-134 -46.5q-120 0 -179 65 q-100 -65 -256 -65q-105 0 -192.5 36t-154.5 108t-104.5 189.5t-37.5 270.5zM55 506q0 -252 108.5 -379t282.5 -127q193 0 283 129q26 -129 152 -129q50 0 80 38.5t47.5 140.5t17.5 278q0 103 -3 177t-11 140t-22 108t-35.5 73.5t-52 45t-71.5 13.5q-68 0 -109 -33 t-55 -85.5t-18.5 -116.5t-6 -128t-10 -116.5t-37.5 -85.5t-81 -33q-39 0 -57.5 27t-18 73.5t7 93.5t15 104.5t8.5 88.5q0 211 -162 211q-131 0 -191.5 -119t-60.5 -389zM256 1196q0 -59 150 -59q419 0 419 149q0 48 -30 80.5t-82 32.5q-64 0 -169.5 -26.5t-196.5 -76 t-91 -100.5zM496 1040q48 -53 65 -157q20 118 90 174q-85 -14 -155 -17z" />
<glyph unicode="&#xfb;" horiz-adv-x="1083" d="M-43 506q0 288 67 431t209 169q-10 33 -10 68q0 70 47.5 160t124 157.5t148.5 67.5q55 0 114 -42.5t102.5 -103.5t72 -129.5t28.5 -120.5q0 -23 -4 -51q56 -3 97.5 -22t71 -56.5t49 -88t30.5 -126t15.5 -161t4.5 -201.5q0 -214 -29 -338t-80 -170.5t-134 -46.5 q-120 0 -179 65q-100 -65 -256 -65q-105 0 -192.5 36t-154.5 108t-104.5 189.5t-37.5 270.5zM55 506q0 -252 108.5 -379t282.5 -127q193 0 283 129q26 -129 152 -129q50 0 80 38.5t47.5 140.5t17.5 278q0 103 -3 177t-11 140t-22 108t-35.5 73.5t-52 45t-71.5 13.5 q-68 0 -109 -33t-55 -85.5t-18.5 -116.5t-6 -128t-10 -116.5t-37.5 -85.5t-81 -33q-39 0 -57.5 27t-18 73.5t7 93.5t15 104.5t8.5 88.5q0 211 -162 211q-131 0 -191.5 -119t-60.5 -389zM322 1174q0 -74 67 -74q63 0 100.5 47.5t51.5 116.5q28 -70 71.5 -119t94.5 -49 q55 0 55 67q0 52 -32 122t-84.5 122.5t-102.5 52.5q-74 0 -147.5 -101.5t-73.5 -184.5zM504 1032q43 -51 57 -149q17 86 55 137q-30 12 -65 47q-15 -15 -47 -35z" />
<glyph unicode="&#xfc;" horiz-adv-x="1083" d="M-43 506q0 255 52 395t163 186q-78 72 -78 187q0 103 68 177.5t190 74.5q117 0 189 -72q72 72 186 72q123 0 191.5 -74t68.5 -176t-65 -176q119 -34 160.5 -181t41.5 -462q0 -214 -29 -338t-80 -170.5t-134 -46.5q-120 0 -179 65q-100 -65 -256 -65q-105 0 -192.5 36 t-154.5 108t-104.5 189.5t-37.5 270.5zM55 506q0 -252 108.5 -379t282.5 -127q193 0 283 129q26 -129 152 -129q50 0 80 38.5t47.5 140.5t17.5 278q0 103 -3 177t-11 140t-22 108t-35.5 73.5t-52 45t-71.5 13.5q-68 0 -109 -33t-55 -85.5t-18.5 -116.5t-6 -128t-10 -116.5 t-37.5 -85.5t-81 -33q-39 0 -57.5 27t-18 73.5t7 93.5t15 104.5t8.5 88.5q0 211 -162 211q-131 0 -191.5 -119t-60.5 -389zM193 1274q0 -63 42.5 -109.5t116.5 -46.5t117 47.5t43 110.5q0 62 -41.5 106.5t-118.5 44.5q-75 0 -117 -45t-42 -108zM485 1051q60 -57 76 -168 q16 96 68 153q-52 17 -90 58q-27 -26 -54 -43zM569 1274q0 -63 42 -109.5t116 -46.5q75 0 118.5 47.5t43.5 110.5q0 62 -42.5 106.5t-119.5 44.5q-75 0 -116.5 -45t-41.5 -108z" />
<glyph unicode="&#xfd;" horiz-adv-x="1136" d="M-41 514q0 311 83 454.5t253 143.5q96 0 163.5 -44.5t100.5 -121.5q57 166 275 166q120 0 192.5 -66.5t110 -229.5t37.5 -443q0 -231 -30.5 -395.5t-101 -283.5t-189 -177t-290.5 -58q-135 0 -242 31t-174 84.5t-102 122t-35 147.5q0 58 25.5 117t73.5 98 q-150 153 -150 455zM57 514q0 -127 31 -223t85 -151.5t121.5 -83t147.5 -27.5q100 0 157 32.5t103 92.5q0 -58 -6.5 -92t-26 -61.5t-56.5 -38.5t-97 -11q-53 0 -91.5 9t-57.5 19.5t-50 19.5t-71 9q-65 0 -101 -52.5t-36 -111.5q0 -123 118 -204.5t336 -81.5 q144 0 243.5 51.5t158.5 157.5t84.5 253t25.5 353q0 243 -26.5 384t-77.5 199t-137 58q-50 0 -87 -14t-58.5 -36t-34.5 -55t-17 -66t-4 -75q0 -20 2.5 -65.5t4 -80.5t-1.5 -79.5t-12.5 -73.5t-31.5 -49.5t-55 -20.5q-44 0 -64.5 29.5t-20.5 79.5t7 100t16.5 108.5t9.5 88.5 q0 92 -50.5 150.5t-141.5 58.5q-120 0 -179 -120.5t-59 -379.5zM184 1196q0 58 66.5 115.5t158.5 97t183.5 64t146.5 24.5q98 0 154.5 -60.5t56.5 -150.5q0 -67 -39.5 -116t-111.5 -77.5t-163 -41.5t-204 -13q-128 0 -188 38t-60 120zM283 1196q0 -59 149 -59q420 0 420 149 q0 48 -30.5 80.5t-82.5 32.5q-64 0 -169 -26.5t-196 -76t-91 -100.5z" />
<glyph unicode="&#xff;" horiz-adv-x="1136" d="M-41 514q0 260 56.5 402t174.5 180q-69 72 -69 178q0 103 68 177.5t190 74.5q116 0 188 -72q72 72 187 72q123 0 191.5 -74t68.5 -176q0 -107 -72 -182q121 -42 176.5 -209.5t55.5 -511.5q0 -231 -30.5 -395.5t-101 -283.5t-189 -177t-290.5 -58q-135 0 -242 31 t-174 84.5t-102 122t-35 147.5q0 58 25.5 117t73.5 98q-150 153 -150 455zM57 514q0 -127 31 -223t85 -151.5t121.5 -83t147.5 -27.5q100 0 157 32.5t103 92.5q0 -58 -6.5 -92t-26 -61.5t-56.5 -38.5t-97 -11q-53 0 -91.5 9t-57.5 19.5t-50 19.5t-71 9q-65 0 -101 -52.5 t-36 -111.5q0 -123 118 -204.5t336 -81.5q144 0 243.5 51.5t158.5 157.5t84.5 253t25.5 353q0 243 -26.5 384t-77.5 199t-137 58q-50 0 -87 -14t-58.5 -36t-34.5 -55t-17 -66t-4 -75q0 -20 2.5 -65.5t4 -80.5t-1.5 -79.5t-12.5 -73.5t-31.5 -49.5t-55 -20.5 q-44 0 -64.5 29.5t-20.5 79.5t7 100t16.5 108.5t9.5 88.5q0 92 -50.5 150.5t-141.5 58.5q-120 0 -179 -120.5t-59 -379.5zM219 1274q0 -63 43 -109.5t117 -46.5t117 47.5t43 110.5q0 62 -41.5 106.5t-118.5 44.5q-75 0 -117.5 -45t-42.5 -108zM492 1042q43 -40 67 -96 q19 62 66 103q-37 19 -60 45q-30 -34 -73 -52zM596 1274q0 -63 42 -109.5t116 -46.5q75 0 118 47.5t43 110.5q0 62 -42 106.5t-119 44.5q-75 0 -116.5 -45t-41.5 -108z" />
<glyph unicode="&#x152;" horiz-adv-x="1773" d="M-41 729q0 203 51 357.5t141 247t205.5 138.5t253.5 46q155 0 269 -54q105 68 307 68q114 0 206 -10.5t155 -28t110 -44.5t74 -55.5t43 -66t21 -71t5 -74.5q0 -184 -186 -256q131 -79 131 -234q0 -81 -32 -139.5t-109 -97.5q98 -37 154.5 -102t56.5 -156 q0 -65 -15.5 -114t-38 -82.5t-68 -56t-84.5 -34.5t-111 -18.5t-124 -7.5t-145 -1q-124 0 -206.5 14t-143.5 60q-108 -51 -273 -51q-103 0 -197.5 32t-176.5 99t-142.5 163t-95.5 232t-35 297zM57 729q0 -177 45 -318t122 -228t174.5 -133t207.5 -46q193 0 283 76 q67 -98 340 -98q60 0 94.5 0.5t84.5 2.5t78.5 6t65.5 11.5t58 18t44 27t35 37.5t19.5 49t7.5 63q0 53 -34 94t-90 65t-126 36.5t-144 11t-142 -14.5q11 45 16 88q135 5 225.5 22t139 46.5t67.5 64t19 82.5q0 47 -22.5 85.5t-71.5 69t-136.5 46.5t-206.5 12q-3 53 -6 99 q51 -11 112 -15.5t130.5 2t125.5 26t93 62t37 103.5q0 43 -9 75t-40.5 67t-86 57.5t-151 37.5t-229.5 15q-104 0 -188.5 -23t-110.5 -72q-88 80 -277 80q-117 0 -215.5 -40t-175 -121.5t-119.5 -216.5t-43 -312zM502 793q0 57 35.5 99t97.5 42q60 0 93.5 -40t33.5 -95 q0 -57 -35.5 -99.5t-97.5 -42.5q-60 0 -93.5 40t-33.5 96zM600 793q0 -14 8 -25.5t21 -11.5q16 0 25.5 13t9.5 30q0 14 -8 25.5t-21 11.5q-16 0 -25.5 -13t-9.5 -30z" />
<glyph unicode="&#x153;" horiz-adv-x="1533" d="M-41 522q0 149 43.5 264.5t121 187t179 108t223.5 36.5q73 0 151.5 -27t135.5 -69q112 90 274 90q124 0 219.5 -38.5t151.5 -104.5t84.5 -147.5t28.5 -174.5q0 -130 -80 -207q84 -64 84 -178q0 -62 -30.5 -123.5t-88.5 -115.5t-156.5 -87.5t-220.5 -33.5q-168 0 -278 84 q-119 -80 -281 -80q-120 0 -220 37t-177.5 110t-120.5 193t-43 276zM57 522q0 -131 35.5 -232t99.5 -162.5t146.5 -92.5t181.5 -31q90 0 164 30t119 83q94 -117 276 -117q98 0 177 24.5t125.5 63.5t71 84t24.5 90q0 52 -30 85.5t-73 33.5q-50 0 -118 -23.5t-101 -23.5 q-50 0 -97.5 29t-72.5 94q55 -15 118 -21.5t129.5 1t119.5 29.5t87 68.5t34 112.5q0 73 -22.5 137t-67.5 116.5t-121.5 83t-174.5 30.5q-175 0 -278 -137q-37 69 -113.5 106t-169.5 37q-101 0 -185 -30.5t-148 -90.5t-100 -156.5t-36 -220.5zM430 555q0 40 23 68t65 28 q46 0 71 -29.5t25 -70.5q0 -40 -24 -69t-66 -29q-43 0 -68.5 30.5t-25.5 71.5zM512 553q0 -14 14 -14q15 0 15 14t-15 14q-14 0 -14 -14zM1044 676q0 33 19.5 57.5t52.5 24.5q36 0 56 -24.5t20 -57.5q0 -32 -18.5 -55t-51.5 -23q-37 0 -57.5 23t-20.5 55zM1108 680 q0 -4 4 -8t8 -4q5 0 9 4t4 8t-4 8t-9 4q-4 0 -8 -4t-4 -8z" />
<glyph unicode="&#x178;" horiz-adv-x="1134" d="M-72 1198q0 52 14 104.5t42 100.5t74.5 84.5t105.5 50.5q-43 64 -43 145q0 103 68 177.5t190 74.5q117 0 188 -71q71 71 187 71q123 0 191.5 -73.5t68.5 -175.5q0 -87 -49 -154q120 -13 179.5 -93.5t59.5 -205.5q0 -144 -101.5 -326.5t-234.5 -310.5q39 -137 39 -268 q0 -71 -12 -132.5t-40 -116.5t-71 -93.5t-108.5 -61t-149.5 -22.5q-77 0 -139 25t-101.5 66t-66.5 98.5t-38 119.5t-11 131q0 123 37 242q-111 115 -195 290t-84 324zM27 1198q0 -148 93.5 -323.5t203.5 -262.5q-27 -58 -42.5 -135.5t-11.5 -161t28 -154t82.5 -116 t145.5 -45.5q70 0 123 21.5t84.5 58.5t50 87.5t23 106.5t-1 118.5t-18 120.5t-31.5 114q130 107 240 287t110 319q0 91 -45 147t-135 56q-59 0 -120 -46.5t-109.5 -119.5t-86 -155.5t-57.5 -160.5q-14 84 -42.5 169t-69 159t-95.5 120t-113 46q-68 0 -117 -41t-69 -95.5 t-20 -113.5zM219 1683q0 -63 43 -109t117 -46t117 47.5t43 110.5q0 62 -41.5 106.5t-118.5 44.5q-75 0 -117.5 -45.5t-42.5 -108.5zM442 1436q66 -71 125 -193q67 118 144 189q-90 12 -146 71q-49 -53 -123 -67zM596 1683q0 -63 42 -109t116 -46q75 0 118 47.5t43 110.5 q0 62 -42 106.5t-119 44.5q-75 0 -116.5 -45.5t-41.5 -108.5z" />
<glyph unicode="&#x2c6;" horiz-adv-x="555" d="M-41 1174q0 70 47.5 160t124 157.5t148.5 67.5q55 0 114 -42.5t102.5 -103.5t72 -129.5t28.5 -120.5q0 -166 -154 -166q-82 0 -155 70q-66 -66 -162 -66q-83 0 -124.5 47t-41.5 126zM57 1174q0 -34 17 -54t51 -20q63 0 100 47t51 117q28 -70 71.5 -119t94.5 -49 q56 0 56 67q0 52 -32 122t-84.5 122.5t-102.5 52.5q-74 0 -148 -101.5t-74 -184.5z" />
<glyph unicode="&#x2dc;" horiz-adv-x="706" d="M-41 1217q0 105 87.5 185.5t191.5 80.5q42 0 80 -14t65 -28t41 -14q8 0 52.5 21.5t90.5 21.5q91 0 136 -56t45 -136q0 -33 -19.5 -74.5t-54 -81.5t-92 -67t-123.5 -27q-54 0 -92.5 15t-60.5 29.5t-34 14.5q-9 0 -24.5 -13.5t-43.5 -26.5t-67 -13q-77 0 -127.5 53 t-50.5 130zM57 1217q0 -36 22.5 -60t57.5 -24q31 0 66.5 26.5t68.5 26.5q28 0 54 -15t58 -30t75 -15q85 0 137.5 52.5t52.5 99.5q0 39 -20.5 66.5t-61.5 27.5q-40 0 -83 -21.5t-58 -21.5q-26 0 -52 13.5t-59.5 27.5t-76.5 14q-68 0 -124.5 -50.5t-56.5 -116.5z" />
<glyph unicode="&#x2000;" horiz-adv-x="984" />
<glyph unicode="&#x2001;" horiz-adv-x="1968" />
<glyph unicode="&#x2002;" horiz-adv-x="984" />
<glyph unicode="&#x2003;" horiz-adv-x="1968" />
<glyph unicode="&#x2004;" horiz-adv-x="656" />
<glyph unicode="&#x2005;" horiz-adv-x="492" />
<glyph unicode="&#x2006;" horiz-adv-x="328" />
<glyph unicode="&#x2007;" horiz-adv-x="328" />
<glyph unicode="&#x2008;" horiz-adv-x="246" />
<glyph unicode="&#x2009;" horiz-adv-x="393" />
<glyph unicode="&#x200a;" horiz-adv-x="109" />
<glyph unicode="&#x2010;" horiz-adv-x="886" d="M-41 621q0 167 113 239t350 72q100 0 183 -14.5t157 -47t116 -94.5t42 -149q0 -78 -36.5 -137t-101 -94.5t-148 -53.5t-183.5 -18q-258 0 -375 72t-117 225zM57 621q0 -102 94.5 -150.5t299.5 -48.5q164 0 267 51.5t103 153.5q0 59 -33.5 101t-93 64.5t-126 32 t-146.5 9.5q-188 0 -276.5 -49.5t-88.5 -163.5z" />
<glyph unicode="&#x2011;" horiz-adv-x="886" d="M-41 621q0 167 113 239t350 72q100 0 183 -14.5t157 -47t116 -94.5t42 -149q0 -78 -36.5 -137t-101 -94.5t-148 -53.5t-183.5 -18q-258 0 -375 72t-117 225zM57 621q0 -102 94.5 -150.5t299.5 -48.5q164 0 267 51.5t103 153.5q0 59 -33.5 101t-93 64.5t-126 32 t-146.5 9.5q-188 0 -276.5 -49.5t-88.5 -163.5z" />
<glyph unicode="&#x2012;" horiz-adv-x="886" d="M-41 621q0 167 113 239t350 72q100 0 183 -14.5t157 -47t116 -94.5t42 -149q0 -78 -36.5 -137t-101 -94.5t-148 -53.5t-183.5 -18q-258 0 -375 72t-117 225zM57 621q0 -102 94.5 -150.5t299.5 -48.5q164 0 267 51.5t103 153.5q0 59 -33.5 101t-93 64.5t-126 32 t-146.5 9.5q-188 0 -276.5 -49.5t-88.5 -163.5z" />
<glyph unicode="&#x2013;" horiz-adv-x="1146" d="M-41 756q0 167 143.5 239t448.5 72q101 0 188 -8t171.5 -29.5t144.5 -55t96.5 -88t36.5 -124.5q0 -78 -46.5 -137.5t-130 -95t-189 -53t-232.5 -17.5q-331 0 -481 72t-150 225zM57 756q0 -102 127 -150.5t406 -48.5q106 0 194.5 12t158 36t108.5 64t39 93q0 59 -45.5 101 t-125.5 64.5t-170 32t-198 9.5q-255 0 -374.5 -49t-119.5 -164z" />
<glyph unicode="&#x2014;" horiz-adv-x="1509" d="M-41 762q0 94 47 156t148.5 98t241.5 50.5t347 14.5q299 0 473.5 -31.5t253 -99t78.5 -182.5q0 -88 -29.5 -142.5t-112.5 -94t-230 -56t-381 -16.5q-130 0 -227 3t-188.5 11.5t-154.5 23t-116.5 37t-84.5 54.5t-48 75t-17 99zM57 762q0 -38 15 -67t42.5 -50.5t74.5 -37 t102.5 -25.5t136.5 -15.5t166.5 -7.5t200.5 -2q270 0 412.5 22t192.5 65.5t50 123.5q0 79 -69 125.5t-222.5 68t-415.5 21.5q-363 0 -524.5 -47.5t-161.5 -173.5z" />
<glyph unicode="&#x2018;" horiz-adv-x="636" d="M-41 1081q0 93 38.5 182.5t96.5 152t127.5 100.5t130.5 38q91 0 146 -47.5t55 -136.5q0 -62 -27 -108q70 -35 111 -104t41 -167q0 -150 -93.5 -241t-262.5 -91q-173 0 -268 106.5t-95 315.5zM57 1081q0 -160 69 -241.5t196 -81.5q123 0 190.5 64t67.5 169q0 99 -57.5 153 t-143.5 54q-43 0 -78 -12q13 29 41 51.5t52 35t42.5 37.5t18.5 60q0 41 -28.5 63.5t-74.5 22.5q-62 0 -130 -49.5t-116.5 -138.5t-48.5 -187z" />
<glyph unicode="&#x2019;" horiz-adv-x="634" d="M-41 1225q0 149 92.5 239t261.5 90q178 0 270.5 -98t92.5 -321q0 -93 -38.5 -183t-96.5 -153t-127.5 -101.5t-130.5 -38.5q-88 0 -145.5 48.5t-57.5 138.5q0 62 29 106q-70 35 -110 104.5t-40 168.5zM57 1225q0 -100 56.5 -153.5t144.5 -53.5q42 0 76 12 q-10 -30 -36.5 -53.5t-52.5 -37t-46.5 -37.5t-20.5 -56q0 -42 30 -65t75 -23q62 0 130 50t116.5 139.5t48.5 187.5q0 172 -67 246.5t-198 74.5q-123 0 -189.5 -63.5t-66.5 -167.5z" />
<glyph unicode="&#x201a;" horiz-adv-x="634" d="M-41 248q0 148 93.5 244t260.5 96q178 0 270.5 -99t92.5 -323q0 -94 -38.5 -185t-96.5 -155t-127.5 -103.5t-130.5 -39.5q-54 0 -97 19t-68 49.5t-37.5 65.5t-12.5 70q0 58 22 97q-131 79 -131 264zM57 248q0 -100 57 -154.5t144 -54.5q30 0 76 12q-7 -26 -35 -44.5 t-57 -28t-52.5 -32.5t-23.5 -59q0 -41 30 -73.5t87 -32.5q62 0 130 51.5t116.5 143t48.5 190.5q0 172 -67.5 247.5t-197.5 75.5q-122 0 -189 -67.5t-67 -173.5z" />
<glyph unicode="&#x201c;" horiz-adv-x="1206" d="M-41 1083q0 93 38.5 183t96.5 153t127.5 101.5t130.5 38.5q97 0 151 -56t54 -133q0 -66 -29 -106l31 -19q51 131 158.5 220t204.5 89q94 0 146 -47.5t52 -136.5q0 -60 -24 -106q69 -41 110 -116.5t41 -172.5q0 -144 -101.5 -230t-254.5 -86q-202 0 -287 117 q-92 -112 -282 -112q-178 0 -270.5 98t-92.5 321zM57 1083q0 -172 67 -246.5t198 -74.5q123 0 189.5 63.5t66.5 167.5q0 99 -57 153t-144 54q-38 0 -76 -10q11 30 38.5 53t53 35.5t46 36t20.5 55.5q0 37 -28 63.5t-79 26.5q-62 0 -130 -50t-116.5 -139.5t-48.5 -187.5z M627 1081q0 -173 67 -248t197 -75q110 0 184 59t74 158q0 102 -58.5 166.5t-142.5 64.5q-40 0 -74 -12q11 27 37 47.5t49.5 32t42.5 36t19 60.5q0 41 -26.5 63.5t-73.5 22.5q-62 0 -130 -49.5t-116.5 -138.5t-48.5 -187z" />
<glyph unicode="&#x201d;" horiz-adv-x="1206" d="M-41 1243q0 144 101.5 230t252.5 86q200 0 285 -117q96 117 287 117q177 0 269.5 -100t92.5 -324q0 -93 -38.5 -183t-96.5 -153t-127.5 -101.5t-130.5 -38.5q-94 0 -149.5 49t-55.5 138q0 62 29 106l-33 19q-50 -132 -156.5 -219.5t-205.5 -87.5q-93 0 -147 55t-54 133 q0 63 22 102q-67 43 -106 118t-39 171zM57 1243q0 -102 58 -166.5t143 -64.5q40 0 74 12q-11 -24 -31 -41t-40 -27.5t-38.5 -22t-30.5 -31.5t-12 -50q0 -37 28 -63.5t75 -26.5q63 0 131 49.5t116 138.5t48 187q0 173 -67 248t-198 75q-109 0 -182.5 -59t-73.5 -158z M627 1225q0 -100 56.5 -153.5t143.5 -53.5q41 0 78 16q-10 -27 -37.5 -50t-53 -36.5t-46 -40t-20.5 -61.5q0 -42 29 -65t77 -23q62 0 130 50t116.5 139.5t48.5 187.5q0 172 -67 248.5t-197 76.5q-123 0 -190.5 -65t-67.5 -170z" />
<glyph unicode="&#x201e;" horiz-adv-x="1206" d="M-41 272q0 144 101.5 230t252.5 86q199 0 285 -119q95 119 287 119q177 0 269.5 -100t92.5 -324q0 -93 -38.5 -183t-96.5 -152.5t-127.5 -101t-130.5 -38.5q-94 0 -149.5 48.5t-55.5 137.5q0 65 29 109l-33 18q-50 -131 -156.5 -220t-205.5 -89q-93 0 -147 55t-54 133 q0 63 22 105q-66 41 -105.5 115.5t-39.5 170.5zM57 272q0 -102 58 -166.5t143 -64.5q40 0 74 12q-11 -24 -31 -41t-40 -27.5t-38.5 -22t-30.5 -31.5t-12 -50q0 -37 28 -63.5t75 -26.5q63 0 131 49.5t116 138.5t48 187q0 173 -67 248t-198 75q-109 0 -182.5 -59t-73.5 -158z M627 254q0 -100 56.5 -153.5t143.5 -53.5q41 0 78 16q-10 -27 -37.5 -50t-53 -36.5t-46 -40t-20.5 -61.5q0 -42 29 -65t77 -23q62 0 130 50t116.5 139.5t48.5 187.5q0 172 -67 248.5t-197 76.5q-123 0 -190.5 -65t-67.5 -170z" />
<glyph unicode="&#x2022;" horiz-adv-x="800" d="M-41 702q0 80 27 153t79 132t136.5 94t189.5 35q108 0 196 -37t142.5 -98.5t83.5 -137.5t29 -157t-28 -154.5t-80 -133t-136.5 -95t-189.5 -35.5q-107 0 -194.5 37.5t-142 99.5t-83.5 138.5t-29 158.5zM57 702q0 -63 23 -122.5t65.5 -107t110.5 -76.5t152 -29 q158 0 246.5 94t88.5 225q0 63 -23 121.5t-65.5 106t-111 76t-152.5 28.5q-159 0 -246.5 -93t-87.5 -223z" />
<glyph unicode="&#x2026;" horiz-adv-x="1744" d="M-41 240q0 88 35 163t111.5 125t181.5 50q100 0 174.5 -43.5t118.5 -116.5q41 73 112.5 116.5t171.5 43.5t174.5 -43.5t118.5 -116.5q41 73 113 116.5t172 43.5q107 0 187 -51.5t118.5 -129t38.5 -166.5q0 -65 -22 -124t-63 -107t-108 -76t-151 -28q-97 0 -169 43 t-112 114q-42 -72 -117.5 -114.5t-179.5 -42.5q-97 0 -168 42.5t-112 114.5q-42 -72 -117.5 -114.5t-179.5 -42.5t-180.5 51t-112 127.5t-35.5 165.5zM57 240q0 -100 61 -173t169 -73q118 0 181.5 69.5t63.5 167.5q0 99 -65.5 173.5t-179.5 74.5q-109 0 -169.5 -70.5 t-60.5 -168.5zM635 240q0 -100 60.5 -173t168.5 -73q118 0 182 69.5t64 167.5q0 99 -66 173.5t-180 74.5q-109 0 -169 -70.5t-60 -168.5zM1212 240q0 -100 61 -173t169 -73q118 0 182 69.5t64 167.5q0 99 -66 173.5t-180 74.5q-109 0 -169.5 -70.5t-60.5 -168.5z" />
<glyph unicode="&#x202f;" horiz-adv-x="393" />
<glyph unicode="&#x2039;" horiz-adv-x="884" d="M-41 528q0 59 76.5 163.5t182 203t227.5 171.5t204 73q273 0 273 -305q0 -87 -65 -167.5t-165 -142.5q101 -70 167.5 -155t66.5 -170q0 -71 -13 -119.5t-45.5 -87.5t-94.5 -57.5t-155 -18.5q-59 0 -146.5 47.5t-174.5 122t-164.5 156.5t-125.5 160.5t-48 125.5zM57 528 q0 -66 103 -190t239.5 -224t218.5 -100q121 0 165 45.5t44 139.5q0 49 -37 103.5t-93 99t-114.5 79t-109.5 54.5q51 14 109 42.5t113 67t91.5 89t36.5 100.5q0 206 -174 206q-70 0 -175 -61.5t-195.5 -144t-156 -170t-65.5 -136.5z" />
<glyph unicode="&#x203a;" horiz-adv-x="884" d="M-41 199q0 85 66.5 170t167.5 155q-100 62 -165 142.5t-65 167.5q0 305 273 305q82 0 204 -73t227.5 -171.5t182 -203t76.5 -163.5q0 -47 -48.5 -125.5t-126 -160.5t-164.5 -156.5t-175 -122t-146 -47.5q-93 0 -154.5 18.5t-94.5 57.5t-45.5 87.5t-12.5 119.5zM57 199 q0 -94 44 -139.5t165 -45.5q82 0 218 100t239.5 224t103.5 190q0 49 -65.5 136.5t-155.5 170t-195 144t-175 61.5q-175 0 -175 -206q0 -50 36.5 -100.5t92 -89t113.5 -67t109 -42.5q-51 -20 -109.5 -54.5t-115 -79t-93.5 -99t-37 -103.5z" />
<glyph unicode="&#x205f;" horiz-adv-x="492" />
<glyph unicode="&#x20ac;" horiz-adv-x="1220" d="M-41 721q0 127 107 192q25 160 91 283t156 195t190 107.5t206 35.5q135 0 236.5 -30.5t161 -84t88 -121t28.5 -147.5q0 -106 -70 -173.5t-174 -72.5q76 -64 76 -174t-39 -160q125 -13 185.5 -91t60.5 -199q0 -70 -32 -136t-93.5 -120.5t-163.5 -87.5t-230 -33 q-302 0 -475 167.5t-207 479.5q-56 29 -79 71t-23 99zM57 721q0 -34 21.5 -58t75.5 -42q22 -293 172 -456t417 -163q201 0 310.5 83.5t109.5 195.5q0 89 -47.5 141.5t-146.5 52.5q-29 0 -88 -5t-86 -5q-65 0 -106.5 25.5t-53.5 93.5q195 0 258 27.5t63 119.5q0 83 -81 120.5 t-242 39.5q3 68 54.5 91.5t143.5 23.5q21 0 67 -1t67 -1q68 0 113.5 40.5t45.5 106.5q0 60 -23 110t-71 90t-130 62.5t-191 22.5q-75 0 -146 -19.5t-140 -64.5t-123 -111.5t-92.5 -167.5t-51.5 -225q-54 -20 -76.5 -50.5t-22.5 -76.5z" />
<glyph unicode="&#x2122;" horiz-adv-x="1394" d="M-41 1309q0 86 31 132t110.5 67.5t231.5 21.5q235 0 330 -68q61 64 124 64q107 0 193 -154q77 144 186 144q80 0 144 -83.5t95.5 -203.5t31.5 -246q0 -73 -11.5 -137.5t-34.5 -119t-64 -86.5t-95 -32q-89 0 -141 74q-39 -29 -95 -29q-69 0 -121 49q-58 -94 -151 -94 q-134 0 -197 119q-51 -121 -174 -121q-60 0 -102.5 21t-69 62.5t-41 103.5t-17.5 142.5t1 180.5q-164 36 -164 193zM57 1309q0 -102 174 -105q-12 -98 -12 -186q1 -129 14.5 -196t40.5 -92t78 -25q111 0 111 241q0 150 -27 268q94 17 140.5 55.5t46.5 76.5q0 86 -291 86 q-111 0 -170 -12t-82 -37.5t-23 -73.5zM580 952q0 -108 35.5 -176.5t107.5 -68.5q34 0 61 36t41.5 90t20.5 121q60 -202 149 -202q77 0 117 190q27 -235 119 -235q53 10 79.5 86.5t26.5 189.5q0 102 -20.5 200.5t-61 166t-90.5 67.5q-34 0 -63.5 -31t-51 -83t-37 -107.5 t-26.5 -118.5q-16 60 -35 116t-45 111.5t-57.5 89t-63.5 33.5q-53 0 -101.5 -75.5t-76.5 -185t-28 -214.5z" />
<glyph unicode="&#x25fc;" horiz-adv-x="1126" d="M0 0v1126h1126v-1126h-1126z" />
</font>
</defs>
</svg>
